<svg width="102" height="24" viewBox="0 0 102 24" fill="none" xmlns="http://www.w3.org/2000/svg">
<path id="Path 8036" d="M31.9101 7.6926L36.5431 3.06876C36.5925 3.02185 36.6318 2.96544 36.6586 2.90293C36.6854 2.84043 36.6993 2.77313 36.6993 2.70513C36.6993 2.63712 36.6854 2.56983 36.6586 2.50732C36.6318 2.44481 36.5925 2.3884 36.5431 2.3415L34.3565 0.160202C34.3113 0.111842 34.2568 0.0729756 34.1964 0.0458725C34.1359 0.0187695 34.0707 0.0039823 34.0044 0.00236967C33.9382 0.000757046 33.8723 0.0123553 33.8106 0.036485C33.7489 0.0606147 33.6926 0.0967847 33.6451 0.142888L24.2396 9.52808L24.2223 9.5454C24.1328 9.6431 24.0847 9.77154 24.0879 9.90385C24.0912 10.0362 24.1455 10.1621 24.2396 10.2554L26.4437 12.455C26.5309 12.538 26.6441 12.5883 26.7642 12.5976C26.8844 12.6069 27.004 12.5745 27.103 12.5059C27.1203 12.4886 27.154 12.4713 27.1724 12.455C27.4816 12.1989 27.8264 11.9889 28.1961 11.8316C28.6958 11.6222 29.2329 11.5162 29.7749 11.5199C30.8661 11.5214 31.913 11.9505 32.6903 12.7147C33.0728 13.0965 33.3756 13.5503 33.5811 14.0498C33.7866 14.5492 33.8907 15.0844 33.8875 15.6243C33.8891 16.1645 33.784 16.6998 33.5781 17.1995C33.3722 17.6991 33.0696 18.1534 32.6876 18.5362C32.3056 18.919 31.8518 19.2229 31.352 19.4305C30.8522 19.6381 30.3163 19.7453 29.7749 19.746H24.3611C23.0653 19.7395 21.8244 19.223 20.9081 18.3085C19.9918 17.394 19.4742 16.1556 19.4678 14.8624V11.5174C19.4686 11.2465 19.4157 10.9781 19.3122 10.7277C19.2087 10.4772 19.0566 10.2497 18.8647 10.0582C18.6728 9.8666 18.4448 9.71481 18.1938 9.61152C17.9429 9.50822 17.674 9.45547 17.4026 9.45628H7.63326C7.49534 9.45668 7.36318 9.51154 7.26565 9.60887C7.16812 9.70621 7.11315 9.8381 7.11275 9.97575V14.8425C7.10631 16.1357 6.5887 17.3742 5.67241 18.2886C4.75613 19.2031 3.51523 19.7197 2.21942 19.7261C1.93448 19.7296 1.64985 19.7064 1.36925 19.6568C1.25435 19.65 1.14027 19.6799 1.04355 19.7422C0.946833 19.8045 0.872518 19.8959 0.831389 20.0032L0.0148982 23.0166C-0.0171429 23.1474 0.00293644 23.2855 0.0709057 23.4018C0.138875 23.5181 0.249425 23.6035 0.379257 23.64C0.587462 23.6746 0.813017 23.7093 1.02122 23.7419C1.41237 23.7946 1.80638 23.8235 2.20105 23.8284C3.38378 23.8286 4.55496 23.5962 5.64769 23.1445C6.74042 22.6929 7.73331 22.0309 8.56965 21.1963C9.40599 20.3616 10.0694 19.3708 10.522 18.2802C10.9746 17.1897 11.2075 16.0209 11.2074 14.8405V13.5591H15.32V14.8405C15.3199 16.0209 15.5529 17.1897 16.0054 18.2802C16.458 19.3708 17.1215 20.3616 17.9578 21.1963C18.7941 22.0309 19.787 22.6929 20.8798 23.1445C21.9725 23.5962 23.1437 23.8286 24.3264 23.8284H29.7407C31.3705 23.8274 32.9634 23.3445 34.3183 22.4405C35.6731 21.5366 36.7292 20.2522 37.3531 18.7496C37.977 17.247 38.1408 15.5936 37.8237 13.9982C37.5066 12.4028 36.7229 10.9369 35.5715 9.78579C34.564 8.76931 33.2983 8.0457 31.9101 7.6926ZM9.17949 5.35496H19.3463L20.6302 6.63633C20.6772 6.68558 20.7338 6.72479 20.7964 6.75158C20.859 6.77837 20.9265 6.79217 20.9946 6.79217C21.0628 6.79217 21.1302 6.77837 21.1928 6.75158C21.2554 6.72479 21.312 6.68558 21.359 6.63633L23.5456 4.45402L23.563 4.43671C23.6361 4.35886 23.6823 4.2597 23.6947 4.15375C23.7072 4.04779 23.6854 3.94062 23.6324 3.84797L23.4242 3.64018L21.6539 1.87346L21.2028 1.42325C21.156 1.37381 21.0995 1.33448 21.0368 1.30767C20.9741 1.28087 20.9066 1.26716 20.8385 1.2674H9.17949C8.90787 1.26312 8.63812 1.31282 8.38593 1.41359C8.13375 1.51437 7.90418 1.66422 7.71058 1.8544C7.51699 2.04459 7.36324 2.2713 7.25829 2.52136C7.15335 2.77142 7.0993 3.03983 7.0993 3.31094C7.0993 3.58204 7.15335 3.85044 7.25829 4.1005C7.36324 4.35056 7.51699 4.57728 7.71058 4.76747C7.90418 4.95765 8.13375 5.10748 8.38593 5.20826C8.63812 5.30904 8.90787 5.35873 9.17949 5.35445V5.35496ZM60.6832 5.35496H70.85L72.1339 6.63633C72.1809 6.68558 72.2374 6.72479 72.3001 6.75158C72.3627 6.77837 72.4302 6.79217 72.4983 6.79217C72.5664 6.79217 72.6339 6.77837 72.6965 6.75158C72.7591 6.72479 72.8157 6.68558 72.8626 6.63633L75.0493 4.45402L75.0667 4.43671C75.1398 4.35886 75.1859 4.2597 75.1984 4.15375C75.2109 4.04779 75.1891 3.94062 75.1361 3.84797L74.9279 3.64018L73.1581 1.87346L72.707 1.42325C72.6601 1.37383 72.6036 1.33452 72.541 1.30772C72.4783 1.28092 72.4108 1.26719 72.3426 1.2674H60.6811C60.4095 1.26312 60.1398 1.31282 59.8876 1.41359C59.6354 1.51437 59.4058 1.66422 59.2122 1.8544C59.0186 2.04459 58.8649 2.2713 58.7599 2.52136C58.655 2.77142 58.6009 3.03983 58.6009 3.31094C58.6009 3.58204 58.655 3.85044 58.7599 4.1005C58.8649 4.35056 59.0186 4.57728 59.2122 4.76747C59.4058 4.95765 59.6354 5.10748 59.8876 5.20826C60.1398 5.30904 60.4095 5.35873 60.6811 5.35445L60.6832 5.35496ZM42.1504 7.39874C41.7907 7.39809 41.4313 7.42122 41.0746 7.468C40.8882 7.48705 40.7028 7.51596 40.5194 7.55459C40.4542 7.57109 40.3929 7.60041 40.3391 7.64083C40.2853 7.68125 40.2401 7.73196 40.2062 7.78999C40.1723 7.84802 40.1503 7.91222 40.1415 7.97883C40.1327 8.04544 40.1374 8.11314 40.1551 8.17796L40.9532 11.1568V11.1741C40.9864 11.283 41.0564 11.3771 41.1514 11.4402C41.2463 11.5034 41.3602 11.5317 41.4737 11.5204C41.5084 11.5204 41.5431 11.5031 41.5758 11.5031H41.5931C41.7715 11.4806 41.9512 11.469 42.131 11.4685C43.2221 11.47 44.269 11.8991 45.0464 12.6633C45.4288 13.0451 45.7316 13.4989 45.9371 13.9983C46.1426 14.4978 46.2468 15.0329 46.2435 15.5728C46.2421 16.6618 45.8121 17.7067 45.0464 18.4824C44.6638 18.8641 44.2091 19.1663 43.7086 19.3713C43.2082 19.5764 42.672 19.6804 42.131 19.6772C41.7681 19.6749 41.4069 19.6283 41.0553 19.5387C40.8644 19.4878 40.6735 19.4175 40.4827 19.3482H40.4653C40.3492 19.302 40.2201 19.2993 40.1021 19.3406C39.984 19.382 39.885 19.4647 39.8234 19.5733L38.2792 22.2405C38.214 22.3607 38.1975 22.5013 38.233 22.6334C38.2685 22.7654 38.3533 22.8789 38.47 22.9504C38.9625 23.1869 39.473 23.3838 39.9969 23.5391C40.6927 23.727 41.4107 23.8202 42.1315 23.8162C43.7619 23.8159 45.3556 23.3333 46.7113 22.4292C48.0669 21.5251 49.1235 20.2403 49.7476 18.737C50.3717 17.2338 50.5352 15.5797 50.2175 13.9837C49.8998 12.3877 49.1152 10.9215 47.9628 9.77051C46.4081 8.2539 44.3218 7.40273 42.1478 7.39823L42.1504 7.39874ZM83.4158 7.69311L88.0489 3.06927C88.0982 3.02237 88.1375 2.96595 88.1643 2.90345C88.1912 2.84094 88.205 2.77365 88.205 2.70564C88.205 2.63763 88.1912 2.57034 88.1643 2.50783C88.1375 2.44533 88.0982 2.38891 88.0489 2.34201L85.8622 0.159704C85.817 0.111344 85.7626 0.0724627 85.7021 0.0453596C85.6417 0.0182566 85.5764 0.0034694 85.5102 0.00185678C85.4439 0.00024415 85.378 0.0118424 85.3163 0.0359721C85.2546 0.0601018 85.1983 0.0962874 85.1508 0.14239L75.7454 9.52911L75.728 9.54642C75.6386 9.64413 75.5904 9.77256 75.5936 9.90488C75.5969 10.0372 75.6512 10.1631 75.7454 10.2564L77.9494 12.456C78.0366 12.539 78.1498 12.5894 78.27 12.5986C78.3901 12.6079 78.5097 12.5755 78.6087 12.5069C78.6261 12.4896 78.6597 12.4723 78.6781 12.456C78.9873 12.1999 79.3322 11.9899 79.7018 11.8326C80.2015 11.6232 80.7387 11.5172 81.2807 11.5209C82.3718 11.5225 83.4187 11.9515 84.196 12.7157C84.5785 13.0976 84.8813 13.5513 85.0868 14.0508C85.2923 14.5502 85.3964 15.0854 85.3932 15.6253C85.3948 16.1656 85.2897 16.7008 85.0838 17.2005C84.8779 17.7002 84.5753 18.1544 84.1933 18.5372C83.8113 18.9201 83.3575 19.224 82.8577 19.4315C82.3579 19.6391 81.822 19.7463 81.2807 19.747H75.8663C74.5705 19.7406 73.3296 19.224 72.4133 18.3095C71.497 17.3951 70.9794 16.1566 70.973 14.8634V11.5174C70.9738 11.2465 70.9209 10.9781 70.8174 10.7277C70.7139 10.4772 70.5618 10.2497 70.3699 10.0582C70.178 9.8666 69.95 9.71481 69.6991 9.61152C69.4481 9.50822 69.1792 9.45547 68.9078 9.45628H59.1191C58.9812 9.45668 58.849 9.51154 58.7515 9.60887C58.6539 9.70621 58.599 9.8381 58.5986 9.97575V14.8425C58.5921 16.1357 58.0745 17.3742 57.1582 18.2886C56.2419 19.2031 55.001 19.7197 53.7052 19.7261C53.4203 19.7296 53.1357 19.7064 52.8551 19.6568C52.7402 19.65 52.6261 19.6799 52.5294 19.7422C52.4326 19.8045 52.3583 19.8959 52.3172 20.0032L51.5007 23.0166C51.4687 23.1474 51.4888 23.2855 51.5567 23.4018C51.6247 23.5181 51.7352 23.6035 51.8651 23.64C52.0733 23.6746 52.2988 23.7093 52.507 23.7419C52.8982 23.7946 53.2922 23.8235 53.6869 23.8284C54.8696 23.8286 56.0408 23.5962 57.1335 23.1445C58.2262 22.6929 59.2191 22.0309 60.0555 21.1963C60.8918 20.3616 61.5552 19.3708 62.0078 18.2802C62.4604 17.1897 62.6933 16.0209 62.6933 14.8405V13.5591H66.8058V14.8405C66.8058 16.0209 67.0387 17.1897 67.4913 18.2802C67.9439 19.3708 68.6073 20.3616 69.4436 21.1963C70.28 22.0309 71.2728 22.6929 72.3656 23.1445C73.4583 23.5962 74.6295 23.8286 75.8122 23.8284H81.2266C82.8563 23.8274 84.4492 23.3445 85.8041 22.4405C87.159 21.5366 88.215 20.2522 88.8389 18.7496C89.4628 17.247 89.6266 15.5936 89.3095 13.9982C88.9924 12.4028 88.2087 10.9369 87.0573 9.78579C86.0591 8.76627 84.798 8.04187 83.4132 7.6926L83.4158 7.69311ZM99.4669 9.80615C98.5716 8.91529 97.4833 8.24126 96.286 7.83592C95.0887 7.43057 93.8142 7.3047 92.5605 7.468C92.374 7.48705 92.1887 7.51596 92.0053 7.55459C91.94 7.57109 91.8787 7.60041 91.8249 7.64083C91.7711 7.68125 91.726 7.73196 91.692 7.78999C91.6581 7.84802 91.6361 7.91222 91.6273 7.97883C91.6186 8.04544 91.6232 8.11314 91.6409 8.17796L92.439 11.1568V11.1741C92.4722 11.283 92.5423 11.3771 92.6372 11.4402C92.7321 11.5034 92.846 11.5317 92.9595 11.5204C92.9942 11.5204 93.0289 11.5031 93.0616 11.5031H93.0789C93.2574 11.4806 93.437 11.469 93.6168 11.4685C94.7079 11.47 95.7549 11.8991 96.5322 12.6633C96.9147 13.0451 97.2174 13.4989 97.4229 13.9983C97.6284 14.4978 97.7326 15.0329 97.7294 15.5728C97.7279 16.6618 97.298 17.7067 96.5322 18.4824C96.1496 18.8641 95.6949 19.1663 95.1945 19.3714C94.694 19.5765 94.1578 19.6804 93.6168 19.6772C93.2539 19.6749 92.8927 19.6283 92.5411 19.5387C92.3502 19.4878 92.1594 19.4175 91.9685 19.3482H91.9512C91.835 19.302 91.7059 19.2993 91.5879 19.3406C91.4699 19.382 91.3709 19.4647 91.3092 19.5733L89.765 22.2405C89.6999 22.3607 89.6833 22.5013 89.7188 22.6334C89.7543 22.7654 89.8391 22.8789 89.9559 22.9504C90.4484 23.187 90.9592 23.3838 91.4832 23.5391C92.179 23.727 92.897 23.8202 93.6178 23.8162C94.7003 23.817 95.7723 23.6048 96.7725 23.1918C97.7728 22.7788 98.6816 22.173 99.447 21.4091C100.212 20.6453 100.82 19.7383 101.233 18.7401C101.647 17.7419 101.86 16.672 101.859 15.5917C101.865 14.5168 101.656 13.4516 101.245 12.4581C100.834 11.4647 100.229 10.5628 99.4649 9.80514L99.4669 9.80615Z" fill="white"/>
</svg>
