<svg width="22" height="23" viewBox="0 0 22 23" fill="none" xmlns="http://www.w3.org/2000/svg">
<g id="Group 13210">
<g id="Group">
<g id="Group_2">
<g id="Group_3">
<path id="Vector" d="M11.0007 16.4753C8.73297 16.4753 6.90527 14.6476 6.90527 12.3799C6.90527 10.1122 8.73297 8.28455 11.0007 8.28455C13.2684 8.28455 15.096 10.1122 15.096 12.3799C15.096 14.6476 13.2684 16.4753 11.0007 16.4753ZM11.0007 8.72455C8.96989 8.72455 7.34527 10.383 7.34527 12.3799C7.34527 14.3769 9.00374 16.0353 11.0007 16.0353C12.9976 16.0353 14.656 14.3769 14.656 12.3799C14.656 10.383 13.0314 8.72455 11.0007 8.72455Z" fill="black"/>
</g>
<g id="Group_4">
<path id="Vector_2" d="M3.08067 13.0908C2.97913 13.0908 2.8776 12.9892 2.8776 12.8877C2.8776 12.7185 2.84375 12.5492 2.84375 12.38C2.84375 9.26616 4.5699 6.45693 7.37913 5.06924C7.51452 5.00155 7.68375 5.10308 7.68375 5.27232C7.68375 5.37385 7.61606 5.44155 7.54837 5.47539C4.90837 6.79539 3.28375 9.43539 3.28375 12.38C3.28375 12.5492 3.28375 12.7185 3.28375 12.8539C3.28375 12.9892 3.21606 13.0908 3.08067 13.0908Z" fill="black"/>
</g>
<g id="Group_5">
<path id="Vector_3" d="M11.0006 20.5368C9.37598 20.5368 7.81906 20.063 6.46521 19.183C6.36368 19.1153 6.32983 18.9799 6.39752 18.8784C6.46521 18.7768 6.6006 18.743 6.70214 18.8107C7.98829 19.6568 9.44368 20.0968 10.9668 20.0968C12.4898 20.0968 13.9791 19.6568 15.2314 18.8107C15.3329 18.743 15.4683 18.7768 15.536 18.8784C15.6037 18.9799 15.5698 19.1153 15.4683 19.183C14.1821 20.063 12.6252 20.5368 11.0006 20.5368Z" fill="black"/>
</g>
<g id="Group_6">
<path id="Vector_4" d="M18.9211 13.0907C18.7857 13.0907 18.6842 12.9891 18.718 12.8537C18.718 12.6845 18.718 12.5153 18.718 12.3799C18.718 9.43527 17.0934 6.76142 14.4196 5.47527C14.3519 5.44142 14.2842 5.37373 14.2842 5.27219C14.2842 5.10296 14.4534 5.00142 14.5888 5.06912C17.398 6.45681 19.1242 9.26604 19.1242 12.3799C19.1242 12.5491 19.1242 12.7183 19.0903 12.8876C19.158 12.9891 19.0565 13.0907 18.9211 13.0907Z" fill="black"/>
</g>
</g>
<g id="Group_7">
<g id="Group_8">
<g id="Group_9">
<path id="Vector_5" d="M13.3023 7.64154C13.2008 7.64154 13.0993 7.60769 12.9977 7.57384C11.7454 6.89692 10.2223 6.89692 8.97003 7.57384C8.66541 7.74308 8.2931 7.64154 8.12387 7.33692L5.92387 3.51231C5.82233 3.37692 5.82233 3.17385 5.85618 3.00461C5.89003 2.83538 6.02541 2.7 6.1608 2.59846C9.1731 0.939999 12.7946 0.939999 15.8069 2.59846C15.9423 2.66615 16.0777 2.83538 16.1116 3.00461C16.1454 3.17385 16.1454 3.34308 16.0439 3.51231L13.8777 7.30308C13.7423 7.50615 13.5393 7.64154 13.3023 7.64154ZM11.0008 6.15231C11.7454 6.15231 12.5239 6.32154 13.2008 6.66L15.13 3.30923C12.5239 1.95538 9.44387 1.95538 6.83772 3.30923L8.76695 6.66C9.47772 6.32154 10.2562 6.15231 11.0008 6.15231Z" fill="black"/>
</g>
</g>
<g id="Group_10">
<g id="Group_11">
<path id="Vector_6" d="M16.7204 21.5185C16.6527 21.5185 16.6189 21.5185 16.5512 21.4846C16.382 21.4508 16.2466 21.3493 16.145 21.18L13.945 17.3893C13.7758 17.0846 13.8773 16.7123 14.1481 16.5093C15.3666 15.7308 16.1112 14.4446 16.1789 13.0231C16.1789 12.6846 16.4835 12.4139 16.822 12.4139H21.222C21.3912 12.4139 21.5604 12.4816 21.6958 12.617C21.8312 12.7523 21.8989 12.9216 21.865 13.0908C21.7973 16.5431 20.0035 19.657 17.0589 21.4508C16.9235 21.4846 16.822 21.5185 16.7204 21.5185ZM14.8589 17.1523L16.7881 20.5031C19.2589 18.9123 20.782 16.2385 20.9512 13.3277H17.0589C16.9235 14.8508 16.145 16.2723 14.8589 17.1523Z" fill="black"/>
</g>
</g>
<g id="Group_12">
<g id="Group_13">
<path id="Vector_7" d="M5.28036 21.5185C5.17882 21.5185 5.04344 21.4846 4.9419 21.4169C1.99728 19.6231 0.203434 16.5092 0.135742 13.0569C0.135742 12.8877 0.203434 12.7185 0.304973 12.5831C0.440358 12.4477 0.575742 12.38 0.778819 12.38H5.17882C5.51728 12.38 5.8219 12.6508 5.8219 12.9892C5.88959 14.4108 6.6342 15.7308 7.81882 16.4754C8.12344 16.6446 8.22497 17.0508 8.0219 17.3554L5.8219 21.1462C5.72036 21.2815 5.58497 21.4169 5.41574 21.4508C5.41574 21.5185 5.34805 21.5185 5.28036 21.5185ZM1.04959 13.3277C1.18497 16.2723 2.7419 18.9123 5.21267 20.5031L7.1419 17.1523C5.88959 16.2723 5.07728 14.8508 4.9419 13.3277H1.04959Z" fill="black"/>
</g>
</g>
</g>
</g>
</g>
</svg>
