<svg width="22" height="22" viewBox="0 0 22 22" fill="none" xmlns="http://www.w3.org/2000/svg">
<g id="id_08">
<path id="Path 1123" d="M4.2086 1.88799C4.3172 1.83587 4.44206 1.82904 4.55571 1.86898C4.66936 1.90893 4.76248 1.99238 4.8146 2.10099C4.86671 2.20959 4.87355 2.33445 4.8336 2.4481C4.79366 2.56175 4.7102 2.65487 4.6016 2.70699C3.88939 3.04791 3.28772 3.5827 2.8656 4.24999C2.44699 4.91216 2.22505 5.6796 2.2256 6.46299V11.737C2.2251 11.8706 2.23211 12.0042 2.2466 12.137C2.78893 12.5335 3.38578 12.8494 4.0186 13.075C5.55082 13.6186 7.22338 13.6186 8.7556 13.075C9.38842 12.8494 9.98527 12.5335 10.5276 12.137C10.5396 12.005 10.5486 11.87 10.5486 11.737V6.46299C10.55 5.6792 10.3272 4.91135 9.9066 4.24999C9.48462 3.58233 8.88293 3.04718 8.1706 2.70599C8.06199 2.65387 7.97854 2.56075 7.93859 2.4471C7.89864 2.33345 7.90548 2.20859 7.9576 2.09999C8.00971 1.99138 8.10284 1.90793 8.21648 1.86798C8.33013 1.82804 8.45499 1.83487 8.5636 1.88699C9.42985 2.30276 10.1622 2.95303 10.6776 3.76399C11.1897 4.57139 11.4612 5.5079 11.4606 6.46399V11.738C11.4562 12.9479 11.0211 14.1166 10.2331 15.0347C9.44508 15.9528 8.35582 16.5602 7.1606 16.748C7.56231 17.7948 8.31593 18.6691 9.29206 19.2209C10.2682 19.7726 11.4059 19.9672 12.51 19.7715C13.614 19.5757 14.6155 19.0017 15.3424 18.148C16.0693 17.2943 16.4763 16.2141 16.4936 15.093C16.4901 15.0701 16.4881 15.0471 16.4876 15.024V8.71799C15.5383 8.60197 14.669 8.12809 14.0571 7.39304C13.4453 6.65799 13.1369 5.71717 13.195 4.76255C13.2532 3.80792 13.6733 2.91145 14.3698 2.25605C15.0664 1.60065 15.9867 1.23572 16.9431 1.23572C17.8995 1.23572 18.8198 1.60065 19.5163 2.25605C20.2129 2.91145 20.633 3.80792 20.6912 4.76255C20.7493 5.71717 20.4409 6.65799 19.8291 7.39304C19.2172 8.12809 18.3479 8.60197 17.3986 8.71799V14.793C17.3986 14.82 17.3986 14.85 17.3986 14.886C17.3986 14.979 17.3986 15.024 17.3986 15.024C17.3975 16.3887 16.9099 17.7083 16.0235 18.7459C15.137 19.7835 13.9097 20.4711 12.5619 20.6852C11.2141 20.8994 9.83407 20.6261 8.66965 19.9144C7.50523 19.2026 6.63266 18.0991 6.2086 16.802C4.89573 16.7532 3.6526 16.1986 2.73932 15.2542C1.82603 14.3098 1.31337 13.0488 1.3086 11.735V6.46299C1.30751 5.50684 1.57913 4.57021 2.0916 3.76299C2.60877 2.95306 3.34344 2.30502 4.2116 1.89299L4.2086 1.88799ZM2.3526 12.763C2.54013 13.4853 2.91671 14.1445 3.4436 14.673C3.96257 15.1906 4.60917 15.5617 5.31785 15.7489C6.02652 15.936 6.77207 15.9324 7.47891 15.7385C8.18575 15.5446 8.82875 15.1672 9.34273 14.6446C9.85671 14.1221 10.2234 13.4729 10.4056 12.763C9.20342 13.5355 7.80456 13.9461 6.3756 13.9461C4.94663 13.9461 3.54778 13.5355 2.3456 12.763H2.3526ZM17.3926 6.46999V7.79299C18.0978 7.67852 18.7341 7.30272 19.1748 6.74038C19.6155 6.17803 19.8283 5.47037 19.7709 4.75823C19.7135 4.04608 19.39 3.38166 18.8649 2.89719C18.3398 2.41272 17.6516 2.14371 16.9371 2.14371C16.2226 2.14371 15.5344 2.41272 15.0093 2.89719C14.4842 3.38166 14.1607 4.04608 14.1033 4.75823C14.0459 5.47037 14.2587 6.17803 14.6994 6.74038C15.1401 7.30272 15.7764 7.67852 16.4816 7.79299V6.46899C16.241 6.39379 16.0219 6.26213 15.8426 6.08499C15.6026 5.8457 15.4477 5.53436 15.4015 5.19864C15.3554 4.86292 15.4205 4.52132 15.5869 4.22613C15.7534 3.93095 16.012 3.69844 16.3231 3.56421C16.6343 3.42998 16.9809 3.40143 17.3098 3.48292C17.6387 3.56441 17.9319 3.75146 18.1444 4.01542C18.3569 4.27939 18.4771 4.60573 18.4865 4.94448C18.4959 5.28323 18.394 5.61572 18.1964 5.89106C17.9989 6.16639 17.7165 6.3704 17.3926 6.46999ZM17.7076 4.22099C17.5301 4.04343 17.2965 3.93287 17.0467 3.90812C16.7968 3.88337 16.5461 3.94596 16.3372 4.08524C16.1283 4.22451 15.9741 4.43187 15.9008 4.67203C15.8276 4.91219 15.8398 5.1703 15.9355 5.40246C16.0311 5.63461 16.2042 5.82646 16.4253 5.94535C16.6465 6.06425 16.902 6.10284 17.1484 6.05457C17.3948 6.0063 17.6168 5.87415 17.7768 5.6806C17.9367 5.48705 18.0246 5.24406 18.0256 4.99299C18.0262 4.84954 17.9984 4.70739 17.9438 4.57473C17.8892 4.44207 17.8089 4.32251 17.7076 4.22099Z" fill="#001A34"/>
</g>
</svg>
