<svg width="22" height="22" viewBox="0 0 22 22" fill="none" xmlns="http://www.w3.org/2000/svg">
<g id="id_05">
<path id="Path 1170" d="M15.8905 14.6595C15.8725 14.6975 15.8535 14.7355 15.8345 14.7735C15.8322 14.7783 15.8296 14.783 15.8265 14.7875C14.9844 16.4471 13.613 17.7785 11.9292 18.5711C10.2454 19.3638 8.34538 19.5723 6.52973 19.1639C4.71409 18.7554 3.08648 17.7532 1.90439 16.3158C0.722308 14.8784 0.0532433 13.0879 0.00304563 11.2275C-0.0471521 9.36717 0.524384 7.5432 1.62723 6.04415C2.73008 4.5451 4.30128 3.45658 6.09225 2.95078C7.88323 2.44498 9.79173 2.55079 11.5158 3.25147C13.2399 3.95215 14.6811 5.20769 15.6115 6.81946C15.6615 6.90546 15.7115 6.98846 15.7505 7.07046C15.7765 7.12046 15.8045 7.17046 15.8305 7.22546C15.8364 7.2355 15.8417 7.24585 15.8465 7.25646C16.1257 7.8294 16.5556 8.31549 17.0901 8.66256C17.6246 9.00963 18.2436 9.20457 18.8805 9.22646H21.5505C21.6103 9.22646 21.6694 9.23823 21.7246 9.2611C21.7798 9.28396 21.83 9.31748 21.8722 9.35973C21.9145 9.40198 21.948 9.45214 21.9709 9.50734C21.9937 9.56254 22.0055 9.62171 22.0055 9.68146C22.0055 9.74121 21.9937 9.80038 21.9709 9.85558C21.948 9.91079 21.9145 9.96094 21.8722 10.0032C21.83 10.0454 21.7798 10.079 21.7246 10.1018C21.6694 10.1247 21.6103 10.1365 21.5505 10.1365H18.9065H18.8555C18.0522 10.1105 17.2712 9.86556 16.597 9.42814C15.9227 8.99072 15.3807 8.37742 15.0295 7.65446L15.0215 7.63846C14.9985 7.59346 14.9755 7.54746 14.9495 7.50146C14.9075 7.42246 14.8665 7.34746 14.8245 7.27546C13.995 5.83695 12.7096 4.71611 11.1715 4.09028C9.63343 3.46446 7.93059 3.36939 6.33241 3.82012C4.73423 4.27086 3.33199 5.24165 2.34756 6.57889C1.36313 7.91614 0.852723 9.54347 0.897106 11.2034C0.941489 12.8633 1.53813 14.461 2.59261 15.7438C3.6471 17.0265 5.09921 17.921 6.71919 18.2857C8.33917 18.6503 10.0345 18.4644 11.5369 17.7573C13.0394 17.0502 14.2631 15.8622 15.0145 14.3815C15.3629 13.651 15.9053 13.0304 16.5825 12.5874C17.2598 12.1444 18.0457 11.896 18.8545 11.8695H18.9055H21.5495C21.6702 11.8695 21.7859 11.9174 21.8712 12.0027C21.9566 12.0881 22.0045 12.2038 22.0045 12.3245C22.0045 12.4451 21.9566 12.5609 21.8712 12.6462C21.7859 12.7315 21.6702 12.7795 21.5495 12.7795H18.8795C18.2582 12.8005 17.6536 12.9865 17.1278 13.3183C16.602 13.65 16.174 14.1157 15.8875 14.6675L15.8905 14.6595ZM3.13351 13.2595C3.35729 12.9946 3.54062 12.698 3.67751 12.3795C3.86537 11.9426 3.96168 11.472 3.96051 10.9965C3.96303 10.1679 3.66937 9.36563 3.13251 8.73446C2.82465 9.44903 2.66586 10.2189 2.66586 10.997C2.66586 11.775 2.82465 12.5449 3.13251 13.2595H3.13351ZM3.58751 7.88646C3.62351 7.92346 3.65551 7.95546 3.68751 7.98646C4.06567 8.39372 4.36355 8.8687 4.56551 9.38646C4.7684 9.90073 4.87255 10.4486 4.87251 11.0015C4.87305 11.5781 4.75983 12.1492 4.53933 12.682C4.31882 13.2148 3.99538 13.6988 3.58751 14.1065C4.24718 15.1215 5.21265 15.9004 6.34426 16.3305C7.47587 16.7606 8.71496 16.8196 9.88231 16.4989C11.0497 16.1782 12.0847 15.4945 12.8378 14.5467C13.5909 13.5989 14.023 12.4361 14.0715 11.2265H12.5485C12.4902 12.2946 12.0248 13.2997 11.248 14.0352C10.4713 14.7707 9.44222 15.1805 8.37251 15.1805C8.31204 15.1805 8.25405 15.1564 8.21129 15.1137C8.16854 15.0709 8.14451 15.0129 8.14451 14.9525C8.14451 14.892 8.16854 14.834 8.21129 14.7912C8.25405 14.7485 8.31204 14.7245 8.37251 14.7245C9.13605 14.7243 9.88112 14.4897 10.5071 14.0524C11.133 13.6152 11.6096 12.9963 11.8725 12.2795C11.6174 12.4519 11.3164 12.5438 11.0085 12.5435H9.90151C9.84666 12.9097 9.66214 13.2441 9.38153 13.4858C9.10092 13.7275 8.74287 13.8605 8.37251 13.8605C8.31231 13.8605 8.25457 13.8365 8.212 13.794C8.16943 13.7514 8.14551 13.6937 8.14551 13.6335C8.14551 13.5733 8.16943 13.5155 8.212 13.4729C8.25457 13.4304 8.31231 13.4065 8.37251 13.4065C8.6616 13.4065 8.93885 13.2916 9.14326 13.0872C9.34767 12.8828 9.46251 12.6055 9.46251 12.3165C9.46251 12.0274 9.34767 11.7501 9.14326 11.5457C8.93885 11.3413 8.6616 11.2265 8.37251 11.2265C8.31204 11.2265 8.25405 11.2024 8.21129 11.1597C8.16854 11.1169 8.14451 11.0589 8.14451 10.9985C8.14451 10.938 8.16854 10.88 8.21129 10.8372C8.25405 10.7945 8.31204 10.7705 8.37251 10.7705C8.74272 10.7704 9.10065 10.9032 9.38124 11.1447C9.66183 11.3862 9.84644 11.7204 9.90151 12.0865H11.0065C11.2933 12.0867 11.5686 11.9739 11.7726 11.7725C11.9767 11.571 12.0931 11.2972 12.0965 11.0105V10.9965C12.0972 10.507 12.0013 10.0222 11.8142 9.56984C11.6272 9.1175 11.3527 8.70652 11.0065 8.36046L10.9445 8.29946C10.7087 8.78085 10.3425 9.18644 9.88768 9.47015C9.43286 9.75387 8.90758 9.90433 8.37151 9.90446C8.31104 9.90446 8.25305 9.88044 8.21029 9.83768C8.16753 9.79492 8.14351 9.73693 8.14351 9.67646C8.14351 9.61599 8.16753 9.558 8.21029 9.51524C8.25305 9.47248 8.31104 9.44846 8.37151 9.44846C8.84208 9.44873 9.30242 9.31118 9.6957 9.05278C10.089 8.79439 10.398 8.42647 10.5845 7.99446C9.94412 7.52054 9.1682 7.26529 8.37151 7.26646C8.31104 7.26646 8.25305 7.24244 8.21029 7.19968C8.16753 7.15692 8.14351 7.09893 8.14351 7.03846C8.14351 6.97799 8.16753 6.92 8.21029 6.87724C8.25305 6.83448 8.31104 6.81046 8.37151 6.81046C9.44122 6.8104 10.4703 7.22026 11.247 7.95572C12.0238 8.69119 12.4892 9.69635 12.5475 10.7645H14.0715C14.0223 9.55529 13.5898 8.39311 12.8366 7.44589C12.0835 6.49866 11.0486 5.81549 9.8816 5.4951C8.71461 5.17472 7.47597 5.23372 6.34473 5.6636C5.21348 6.09347 4.24824 6.87193 3.58851 7.88646H3.58751ZM21.5515 10.7675C21.612 10.7675 21.67 10.7915 21.7127 10.8342C21.7555 10.877 21.7795 10.935 21.7795 10.9955C21.7795 11.0559 21.7555 11.1139 21.7127 11.1567C21.67 11.1994 21.612 11.2235 21.5515 11.2235H14.5265C14.4668 12.8361 13.7765 14.3608 12.6042 15.4698C11.4319 16.5787 9.87116 17.1833 8.25772 17.1534C6.64427 17.1235 5.107 16.4616 3.97654 15.31C2.84608 14.1584 2.21273 12.6092 2.21273 10.9955C2.21273 9.38174 2.84608 7.83248 3.97654 6.68089C5.107 5.5293 6.64427 4.86739 8.25772 4.83752C9.87116 4.80764 11.4319 5.41219 12.6042 6.52114C13.7765 7.63009 14.4668 9.15484 14.5265 10.7675H21.5515Z" fill="#001A34"/>
</g>
</svg>
