<svg width="22" height="22" viewBox="0 0 22 22" fill="none" xmlns="http://www.w3.org/2000/svg">
<g id="id_06">
<path id="Path 1106" d="M2.22836 17.1351H3.95336V15.4101H2.22836V17.1351ZM10.7724 9.35106C10.773 9.05252 10.7089 8.75739 10.5844 8.48606C10.5732 8.46903 10.5644 8.45052 10.5584 8.43106C10.4558 8.22721 10.3207 8.04144 10.1584 7.88106C9.86747 7.59048 9.49699 7.39263 9.09372 7.3125C8.69044 7.23237 8.27247 7.27356 7.89259 7.43086C7.51271 7.58816 7.18797 7.85452 6.9594 8.19629C6.73083 8.53806 6.60867 8.9399 6.60836 9.35106V12.9761C6.60878 13.0903 6.65402 13.1998 6.73436 13.2811C6.77433 13.3212 6.82187 13.353 6.87423 13.3746C6.92658 13.3963 6.98271 13.4073 7.03936 13.4071H10.3394C10.3961 13.4072 10.4524 13.3961 10.5048 13.3744C10.5573 13.3528 10.605 13.321 10.6451 13.2808C10.6853 13.2407 10.7171 13.193 10.7387 13.1405C10.7604 13.0881 10.7715 13.0318 10.7714 12.9751V9.35006L10.7724 9.35106ZM11.6594 13.8631C11.5427 13.8633 11.4272 13.8404 11.3194 13.7958C11.2116 13.7512 11.1137 13.6857 11.0314 13.6031L10.9994 13.5691C10.9894 13.581 10.9787 13.5924 10.9674 13.6031C10.885 13.6857 10.7871 13.7512 10.6793 13.7958C10.5716 13.8404 10.456 13.8633 10.3394 13.8631H7.03936C6.80462 13.8628 6.57951 13.7697 6.41315 13.6041C6.24679 13.4385 6.15268 13.2138 6.15136 12.9791V12.4351C6.01928 12.5086 5.87056 12.5472 5.71936 12.5471H3.74636C3.51093 12.5468 3.28522 12.4531 3.11874 12.2867C2.95227 12.1202 2.85862 11.8945 2.85836 11.6591V7.04206C2.85823 6.46302 2.97218 5.88963 3.19371 5.35465C3.41523 4.81966 3.73999 4.33357 4.14943 3.92413C4.55887 3.51469 5.04497 3.18993 5.57995 2.9684C6.11494 2.74688 6.68833 2.63293 7.26736 2.63306H14.7214C15.3005 2.63293 15.874 2.74686 16.4091 2.96836C16.9442 3.18987 17.4304 3.51459 17.84 3.92401C18.2496 4.33342 18.5745 4.8195 18.7963 5.3545C19.018 5.88949 19.1322 6.46293 19.1324 7.04206V11.6551C19.1321 11.8905 19.0385 12.1162 18.872 12.2827C18.7055 12.4492 18.4798 12.5428 18.2444 12.5431H16.2664C16.1152 12.5432 15.9664 12.5046 15.8344 12.4311V12.9751C15.833 13.2098 15.7389 13.4345 15.5726 13.6001C15.4062 13.7657 15.1811 13.8588 14.9464 13.8591H11.6464L11.6594 13.8631ZM11.2274 12.9761C11.2272 13.0328 11.2383 13.0891 11.26 13.1415C11.2816 13.194 11.3135 13.2417 11.3536 13.2818C11.3937 13.322 11.4414 13.3538 11.4939 13.3754C11.5464 13.3971 11.6026 13.4082 11.6594 13.4081H14.9594C15.0161 13.4082 15.0724 13.3971 15.1248 13.3754C15.1773 13.3538 15.225 13.322 15.2651 13.2818C15.3053 13.2417 15.3371 13.194 15.3587 13.1415C15.3804 13.0891 15.3915 13.0328 15.3914 12.9761V9.35306C15.3909 8.88378 15.2318 8.42844 14.9399 8.06103C14.6479 7.69362 14.2403 7.43573 13.7833 7.32926C13.3262 7.22279 12.8466 7.274 12.4224 7.47457C11.9981 7.67514 11.6541 8.01329 11.4464 8.43406C11.4395 8.4532 11.4308 8.47163 11.4204 8.48906C11.2958 8.76039 11.2317 9.05552 11.2324 9.35406V12.9771L11.2274 12.9761ZM15.8414 11.6581C15.8412 11.7148 15.8523 11.7711 15.874 11.8235C15.8956 11.876 15.9275 11.9237 15.9676 11.9638C16.0077 12.004 16.0554 12.0358 16.1079 12.0574C16.1604 12.0791 16.2166 12.0902 16.2734 12.0901H18.2514C18.3081 12.0902 18.3644 12.0791 18.4168 12.0574C18.4693 12.0358 18.517 12.004 18.5571 11.9638C18.5973 11.9237 18.6291 11.876 18.6507 11.8235C18.6724 11.7711 18.6835 11.7148 18.6834 11.6581V9.35306C18.6834 8.97645 18.5338 8.61527 18.2675 8.34896C18.0012 8.08266 17.64 7.93306 17.2634 7.93306C16.8868 7.93306 16.5256 8.08266 16.2593 8.34896C15.993 8.61527 15.8434 8.97645 15.8434 9.35306V11.6591L15.8414 11.6581ZM18.2264 7.74206V7.04206C18.2264 6.1138 17.8576 5.22356 17.2012 4.56718C16.5449 3.91081 15.6546 3.54206 14.7264 3.54206H7.27436C6.3461 3.54206 5.45586 3.91081 4.79949 4.56718C4.14311 5.22356 3.77436 6.1138 3.77436 7.04206V7.74206C4.13308 7.52714 4.55329 7.43817 4.96833 7.48926C5.38337 7.54035 5.76947 7.72856 6.06536 8.02406C6.17406 8.13314 6.26909 8.25503 6.34836 8.38706C6.53619 7.92956 6.85375 7.537 7.2619 7.25772C7.67006 6.97845 8.15099 6.82467 8.64546 6.81531C9.13993 6.80596 9.62633 6.94144 10.0448 7.20508C10.4632 7.46872 10.7954 7.84899 11.0004 8.29906C11.2057 7.84936 11.538 7.46948 11.9564 7.20613C12.3747 6.94279 12.861 6.80748 13.3552 6.81683C13.8495 6.82618 14.3303 6.97978 14.7384 7.25876C15.1465 7.53774 15.4642 7.92991 15.6524 8.38706C15.732 8.25525 15.827 8.1334 15.9354 8.02406C16.2313 7.72856 16.6173 7.54035 17.0324 7.48926C17.4474 7.43817 17.8676 7.52714 18.2264 7.74206ZM3.31836 9.35106V11.6571C3.31878 11.7713 3.36402 11.8808 3.44436 11.9621C3.48433 12.0022 3.53187 12.034 3.58423 12.0556C3.63658 12.0773 3.69271 12.0883 3.74936 12.0881H5.72736C5.78413 12.0882 5.84036 12.0771 5.89283 12.0554C5.94531 12.0338 5.99298 12.002 6.03312 11.9618C6.07327 11.9217 6.10508 11.874 6.12674 11.8215C6.14841 11.7691 6.15949 11.7128 6.15936 11.6561V9.35106C6.15936 8.97445 6.00975 8.61327 5.74345 8.34696C5.47715 8.08066 5.11597 7.93106 4.73936 7.93106C4.36275 7.93106 4.00157 8.08066 3.73527 8.34696C3.46897 8.61327 3.31936 8.97445 3.31936 9.35106H3.31836ZM6.58836 17.6161L4.86336 16.7531V17.5931C4.86336 17.7137 4.81542 17.8295 4.73009 17.9148C4.64476 18.0001 4.52903 18.0481 4.40836 18.0481H1.77336C1.65269 18.0481 1.53695 18.0001 1.45163 17.9148C1.3663 17.8295 1.31836 17.7137 1.31836 17.5931V14.9541C1.31836 14.8334 1.3663 14.7177 1.45163 14.6323C1.53695 14.547 1.65269 14.4991 1.77336 14.4991H4.40936C4.53003 14.4991 4.64576 14.547 4.73109 14.6323C4.81642 14.7177 4.86436 14.8334 4.86436 14.9541V16.2461L6.58936 17.1091V16.2711C6.58936 16.1504 6.6373 16.0347 6.72263 15.9493C6.80796 15.864 6.92369 15.8161 7.04436 15.8161H9.68036C9.80103 15.8161 9.91677 15.864 10.0021 15.9493C10.0874 16.0347 10.1354 16.1504 10.1354 16.2711V17.3611H11.8604V16.2711C11.8604 16.1504 11.9083 16.0347 11.9936 15.9493C12.079 15.864 12.1947 15.8161 12.3154 15.8161H14.9514C15.072 15.8161 15.1878 15.864 15.2731 15.9493C15.3584 16.0347 15.4064 16.1504 15.4064 16.2711V17.1091L17.1314 16.2461V14.9541C17.1314 14.8334 17.1793 14.7177 17.2646 14.6323C17.35 14.547 17.4657 14.4991 17.5864 14.4991H20.2224C20.343 14.4991 20.4588 14.547 20.5441 14.6323C20.6294 14.7177 20.6774 14.8334 20.6774 14.9541V17.5931C20.6774 17.7137 20.6294 17.8295 20.5441 17.9148C20.4588 18.0001 20.343 18.0481 20.2224 18.0481H17.5884C17.4677 18.0481 17.352 18.0001 17.2666 17.9148C17.1813 17.8295 17.1334 17.7137 17.1334 17.5931V16.7531L15.4084 17.6161V18.9081C15.4084 19.0287 15.3604 19.1445 15.2751 19.2298C15.1898 19.3151 15.074 19.3631 14.9534 19.3631H12.3164C12.1957 19.3631 12.08 19.3151 11.9946 19.2298C11.9093 19.1445 11.8614 19.0287 11.8614 18.9081V17.8181H10.1354V18.9081C10.1354 19.0287 10.0874 19.1445 10.0021 19.2298C9.91677 19.3151 9.80103 19.3631 9.68036 19.3631H7.04436C6.92369 19.3631 6.80796 19.3151 6.72263 19.2298C6.6373 19.1445 6.58936 19.0287 6.58936 18.9081L6.58836 17.6161ZM7.49936 18.4541H9.22436V16.7281H7.50036L7.49936 18.4541ZM12.7724 18.4541H14.4984V16.7281H12.7734L12.7724 18.4541ZM18.0454 17.1361H19.7704V15.4101H18.0464L18.0454 17.1361Z" fill="#001A34"/>
</g>
</svg>
