<svg width="22" height="23" viewBox="0 0 22 23" fill="none" xmlns="http://www.w3.org/2000/svg">
<g id="id_02">
<path id="Path 1120" d="M11.002 0.49707C12.8698 0.501822 14.6597 1.2459 15.9804 2.56663C17.3012 3.88736 18.0453 5.67729 18.05 7.54507V15.4551C18.0503 16.5867 17.778 17.7018 17.2562 18.7059C16.7344 19.7101 15.9785 20.5738 15.0522 21.2239C14.126 21.8741 13.0568 22.2916 11.9351 22.4412C10.8134 22.5907 9.6722 22.4679 8.60801 22.0831C8.60801 22.0831 8.60101 22.0831 8.59701 22.0831C7.63174 21.7279 6.75494 21.1677 6.02701 20.4411C5.37126 19.7885 4.85092 19.0128 4.49585 18.1585C4.14079 17.3042 3.95801 16.3882 3.95801 15.4631V7.54907C3.96171 5.68025 4.7056 3.88899 6.02687 2.56734C7.34814 1.2457 9.13918 0.501298 11.008 0.49707H11.002ZM4.86801 10.0821C4.86761 10.8881 5.02642 11.6862 5.33531 12.4306C5.64421 13.175 6.09711 13.8511 6.66801 14.4201L8.34001 16.0921L11.897 12.5351C11.6028 12.5864 11.3047 12.6122 11.006 12.6121C10.3399 12.6126 9.68028 12.4818 9.0648 12.2271C8.44932 11.9725 7.89009 11.599 7.4191 11.128C6.94811 10.657 6.5746 10.0978 6.31994 9.48228C6.06529 8.8668 5.93448 8.20715 5.93501 7.54107C5.93448 6.87499 6.06529 6.21534 6.31994 5.59986C6.5746 4.98438 6.94811 4.42515 7.4191 3.95416C7.89009 3.48317 8.44932 3.10966 9.0648 2.85501C9.68028 2.60035 10.3399 2.46954 11.006 2.47007C11.6721 2.46954 12.3317 2.60035 12.9472 2.85501C13.5627 3.10966 14.1219 3.48317 14.5929 3.95416C15.0639 4.42515 15.4374 4.98438 15.6921 5.59986C15.9467 6.21534 16.0775 6.87499 16.077 7.54107C16.0784 8.20729 15.948 8.86721 15.6934 9.48282C15.4387 10.0984 15.0647 10.6576 14.593 11.1281L8.80801 16.9091C8.78508 16.9776 8.74755 17.0404 8.69801 17.0931C8.64684 17.1445 8.58357 17.1824 8.51401 17.2031L6.31801 19.3971C6.43201 19.5304 6.54967 19.6594 6.67101 19.7841C7.23779 20.3508 7.90921 20.8022 8.64801 21.1131L10.684 19.0771L17.143 12.6181V7.54107C17.143 5.91304 16.4963 4.35169 15.3451 3.2005C14.1939 2.0493 12.6325 1.40257 11.0045 1.40257C9.37648 1.40257 7.81512 2.0493 6.66393 3.2005C5.51274 4.35169 4.86601 5.91304 4.86601 7.54107V10.0821H4.86801ZM7.69201 16.7361L6.02001 15.0641C5.56983 14.6135 5.18205 14.1046 4.86701 13.5511V15.4511C4.86579 16.5812 5.17952 17.6893 5.77301 18.6511L7.69101 16.7331L7.69201 16.7361ZM11.385 19.6671C11.3689 19.6908 11.3505 19.7129 11.33 19.7331C11.3097 19.7533 11.2876 19.7717 11.264 19.7881L9.61801 21.4351C10.5177 21.6404 11.452 21.6407 12.3519 21.436C13.2517 21.2314 14.094 20.8269 14.8164 20.2527C15.5388 19.6785 16.1228 18.9492 16.5252 18.1187C16.9276 17.2882 17.138 16.3779 17.141 15.4551V13.9121L11.385 19.6671ZM9.45601 9.01807C9.4336 8.99692 9.41574 8.97144 9.4035 8.94316C9.39126 8.91489 9.3849 8.88442 9.38482 8.85361C9.38473 8.8228 9.39092 8.7923 9.40301 8.76396C9.41509 8.73562 9.43281 8.71003 9.4551 8.68876C9.47739 8.66749 9.50378 8.65098 9.53265 8.64024C9.56153 8.62949 9.59229 8.62474 9.62306 8.62627C9.65383 8.62779 9.68397 8.63556 9.71164 8.64911C9.73931 8.66266 9.76393 8.6817 9.78401 8.70507L9.79901 8.72007L9.81401 8.73507C10.13 9.05078 10.5584 9.22812 11.005 9.22812C11.4517 9.22812 11.88 9.05078 12.196 8.73507L12.225 8.70607C12.2673 8.66616 12.3233 8.644 12.3814 8.64415C12.4396 8.64431 12.4955 8.66678 12.5375 8.70693C12.5796 8.74707 12.6047 8.80183 12.6075 8.85991C12.6104 8.91799 12.5909 8.97496 12.553 9.01907C12.531 9.04107 12.52 9.05607 12.516 9.05607C12.1144 9.45709 11.5701 9.68233 11.0025 9.68233C10.435 9.68233 9.89062 9.45709 9.48901 9.05607L9.47101 9.03807L9.45301 9.02007L9.45601 9.01807ZM7.03301 6.30807C8.08032 6.64251 9.19603 6.70208 10.273 6.48107C11.4887 6.22953 12.6038 5.62659 13.48 4.74707C13.587 4.64007 13.68 4.53707 13.771 4.43807C13.0109 3.75897 12.0273 3.38374 11.008 3.38407C10.1206 3.38436 9.25649 3.66821 8.54177 4.19422C7.82705 4.72023 7.29912 5.46087 7.03501 6.30807H7.03301ZM14.096 4.75807C13.996 4.86807 13.896 4.97207 13.805 5.06707C12.865 6.0089 11.6692 6.65422 10.366 6.92307C9.22208 7.15941 8.03666 7.09847 6.92301 6.74607C6.87139 7.0096 6.8456 7.27753 6.84601 7.54607C6.84733 8.64894 7.28644 9.70618 8.06686 10.4855C8.84727 11.2647 9.90513 11.7023 11.008 11.7021C12.1116 11.7021 13.1699 11.2637 13.9503 10.4833C14.7306 9.703 15.169 8.64464 15.169 7.54107C15.1698 6.51126 14.7877 5.51793 14.097 4.75407L14.096 4.75807Z" fill="#001A34"/>
</g>
</svg>
