<svg width="22" height="22" viewBox="0 0 22 22" fill="none" xmlns="http://www.w3.org/2000/svg">
<g id="id_01">
<path id="Path 1125" d="M5.26763 13.6547C5.16763 13.1847 4.90762 12.7777 4.36762 12.7777C4.25426 12.7776 4.14198 12.7998 4.03721 12.8431C3.93245 12.8864 3.83726 12.95 3.7571 13.0302C3.67694 13.1103 3.61337 13.2055 3.57005 13.3103C3.52673 13.415 3.50449 13.5273 3.50462 13.6407C3.50462 13.6547 3.50462 13.6677 3.50462 13.6807V15.3807C3.50436 15.784 3.66418 16.1709 3.94899 16.4565C4.2338 16.7421 4.62031 16.9029 5.02362 16.9037C5.25649 16.8951 5.4863 16.8478 5.70363 16.7637C5.68963 16.6027 5.68162 16.4407 5.68162 16.2767V15.6037C5.68162 15.5432 5.70565 15.4852 5.7484 15.4425C5.79116 15.3997 5.84916 15.3757 5.90962 15.3757C5.97009 15.3757 6.02809 15.3997 6.07085 15.4425C6.1136 15.4852 6.13763 15.5432 6.13763 15.6037V16.2797C6.13749 16.9124 6.26203 17.539 6.50411 18.1236C6.74619 18.7082 7.10107 19.2394 7.54849 19.6868C7.99591 20.1342 8.52709 20.4891 9.1117 20.7312C9.69631 20.9733 10.3229 21.0978 10.9556 21.0977H11.4456C13.6424 21.0966 15.7488 20.2235 17.3021 18.6702C18.8554 17.1169 19.7286 15.0104 19.7296 12.8137V11.3637C19.7281 10.5983 19.5357 9.84542 19.1697 9.17321C18.8038 8.50101 18.2758 7.93074 17.6338 7.51408C16.9918 7.09742 16.256 6.84754 15.493 6.78708C14.73 6.72662 13.964 6.85749 13.2644 7.16784C12.5648 7.47819 11.9536 7.9582 11.4864 8.56439C11.0191 9.17057 10.7105 9.88376 10.5885 10.6393C10.4664 11.3949 10.5349 12.169 10.7876 12.8915C11.0403 13.6139 11.4693 14.2619 12.0356 14.7767C12.0716 14.8087 12.2136 14.9347 12.3356 15.0257H14.7996C15.0645 15.0253 15.3283 15.059 15.5846 15.1257C16.0108 15.2394 16.4072 15.4441 16.7466 15.7257C16.8816 15.8371 17.0067 15.9598 17.1206 16.0927C17.1604 16.1383 17.1804 16.1979 17.1763 16.2582C17.1722 16.3186 17.1442 16.3749 17.0986 16.4147C17.053 16.4545 16.9935 16.4745 16.9331 16.4704C16.8727 16.4663 16.8164 16.4383 16.7766 16.3927C16.6797 16.2798 16.5734 16.1754 16.4586 16.0807C16.3437 15.9863 16.2213 15.9014 16.0926 15.8267C15.6999 15.602 15.2551 15.4844 14.8026 15.4857H11.5526C11.4988 15.4858 11.4466 15.4666 11.4056 15.4317C11.4007 15.428 11.3963 15.4237 11.3926 15.4187C10.8676 14.9333 10.4414 14.3509 10.1376 13.7037C10.0886 13.6037 10.0436 13.4947 10.0006 13.3877C9.85706 13.5256 9.73293 13.6823 9.63162 13.8537C9.58217 13.9368 9.53872 14.0234 9.50163 14.1127C9.49662 14.1267 9.49162 14.1407 9.48462 14.1557C9.48462 14.1557 9.48462 14.1557 9.48462 14.1607V14.1687C9.3567 14.4989 9.31098 14.8552 9.35139 15.207C9.39181 15.5588 9.51715 15.8955 9.71662 16.188C9.9161 16.4806 10.1837 16.7203 10.4964 16.8864C10.8091 17.0525 11.1575 17.1402 11.5116 17.1417H12.7496C12.8703 17.1417 12.986 17.1896 13.0714 17.275C13.1567 17.3603 13.2046 17.476 13.2046 17.5967C13.2046 17.7174 13.1567 17.8331 13.0714 17.9184C12.986 18.0038 12.8703 18.0517 12.7496 18.0517H11.5116C11.0266 18.0518 10.5483 17.9378 10.1155 17.7189C9.68267 17.5 9.30741 17.1823 9.02004 16.7916C8.73268 16.4008 8.54127 15.948 8.46129 15.4696C8.38131 14.9912 8.41499 14.5007 8.55962 14.0377C8.38445 13.8133 8.1603 13.632 7.90431 13.5076C7.64832 13.3831 7.36726 13.3189 7.08262 13.3197C6.58957 13.3194 6.11625 13.5134 5.76528 13.8597C5.4143 14.206 5.21394 14.6767 5.20762 15.1697V15.1937C5.20762 15.2542 5.1836 15.3122 5.14085 15.3549C5.09809 15.3977 5.04009 15.4217 4.97963 15.4217C4.91916 15.4217 4.86116 15.3977 4.8184 15.3549C4.77565 15.3122 4.75162 15.2542 4.75162 15.1937C4.75053 14.6379 4.9314 14.097 5.26662 13.6537L5.26763 13.6547ZM11.4116 22.0037H10.9616C9.70434 22.0035 8.482 21.5898 7.48291 20.8266C6.48382 20.0633 5.7634 18.9927 5.43263 17.7797C5.30042 17.8018 5.16666 17.8131 5.03262 17.8137C4.38735 17.8137 3.76851 17.5574 3.31223 17.1011C2.85596 16.6448 2.59962 16.026 2.59962 15.3807V13.6807C2.59962 13.6677 2.59962 13.6537 2.59962 13.6407C2.59956 13.257 2.72407 12.8836 2.95442 12.5767C3.18476 12.2698 3.50851 12.046 3.87699 11.9388C4.24546 11.8317 4.63875 11.8471 4.99772 11.9827C5.3567 12.1183 5.66196 12.3667 5.86762 12.6907C6.27122 12.4943 6.71628 12.3983 7.16495 12.4108C7.61362 12.4233 8.05262 12.5441 8.44462 12.7627L8.51762 12.8057C8.34781 11.8298 7.96669 10.9029 7.40097 10.0898C6.83525 9.27672 6.0986 8.59715 5.24262 8.09869L5.21162 8.08469C3.89202 7.32536 2.82821 6.19054 2.15562 4.82469C1.48114 3.45541 1.2268 1.9172 1.42462 0.403688C1.43061 0.343192 1.44868 0.284513 1.47777 0.231134C1.50686 0.177754 1.54638 0.130761 1.59397 0.0929404C1.64157 0.0551203 1.69627 0.027244 1.75485 0.0109651C1.81342 -0.00531386 1.87466 -0.00966384 1.93495 -0.00182686C1.99523 0.00601012 2.05333 0.0258744 2.10579 0.0565878C2.15825 0.0873012 2.20401 0.128238 2.24036 0.17697C2.2767 0.225702 2.30288 0.281237 2.31736 0.34028C2.33184 0.399323 2.33431 0.460672 2.32462 0.520688C2.14869 1.85793 2.37352 3.2173 2.97063 4.42669C3.56462 5.63251 4.50467 6.63383 5.67063 7.30269L5.69463 7.31769C6.85413 7.99081 7.81682 8.95626 8.48662 10.1177C8.94691 10.9157 9.26117 11.7893 9.41463 12.6977C9.51197 12.6084 9.61448 12.5249 9.72162 12.4477C9.57143 11.6928 9.58094 10.9148 9.74955 10.1638C9.91816 9.41281 10.2421 8.70542 10.7006 8.08718C11.1591 7.46894 11.7419 6.95353 12.4116 6.57413C13.0813 6.19473 13.823 5.95974 14.589 5.88427C15.355 5.80881 16.1283 5.89455 16.8592 6.13598C17.59 6.3774 18.2622 6.76916 18.8325 7.28605C19.4029 7.80294 19.8586 8.4335 20.1706 9.13716C20.4825 9.84082 20.6436 10.602 20.6436 11.3717V12.8137C20.6442 14.0211 20.4066 15.2168 19.9447 16.3323C19.4827 17.4479 18.8053 18.4614 17.9513 19.3149C17.0973 20.1685 16.0834 20.8453 14.9676 21.3066C13.8518 21.768 12.656 22.0049 11.4486 22.0037H11.4116ZM14.6586 13.5907L13.6586 13.8587C13.6004 13.8742 13.5384 13.866 13.4863 13.8358C13.4341 13.8056 13.3961 13.7559 13.3806 13.6977C13.3651 13.6395 13.3734 13.5775 13.4035 13.5253C13.4337 13.4732 13.4834 13.4352 13.5416 13.4197L14.5416 13.1517C14.6361 13.1294 14.7251 13.0884 14.8033 13.031C14.8816 12.9737 14.9476 12.9013 14.9974 12.818C15.0472 12.7347 15.0797 12.6422 15.0931 12.5461C15.1065 12.45 15.1005 12.3522 15.0753 12.2585C15.0502 12.1648 15.0066 12.077 14.9469 12.0005C14.8873 11.924 14.8129 11.8602 14.7282 11.8129C14.6434 11.7656 14.5501 11.7359 14.4536 11.7254C14.3571 11.7148 14.2596 11.7238 14.1666 11.7517C14.136 11.7601 14.1059 11.7704 14.0766 11.7827C14.0479 11.7948 14.0198 11.8085 13.9926 11.8237C13.9405 11.8539 13.8785 11.8622 13.8203 11.8467C13.7621 11.8313 13.7124 11.7933 13.6821 11.7412C13.6519 11.6891 13.6436 11.6271 13.6591 11.5689C13.6745 11.5106 13.7125 11.4609 13.7646 11.4307C13.8094 11.405 13.8558 11.3822 13.9036 11.3627C13.9511 11.3428 13.9999 11.3261 14.0496 11.3127C14.2009 11.2674 14.3597 11.253 14.5167 11.2702C14.6736 11.2875 14.8255 11.336 14.9634 11.413C15.1012 11.49 15.2222 11.5939 15.3192 11.7186C15.4161 11.8432 15.4871 11.986 15.5279 12.1385C15.5686 12.2911 15.5784 12.4503 15.5565 12.6066C15.5346 12.763 15.4816 12.9134 15.4005 13.0489C15.3195 13.1844 15.212 13.3023 15.0846 13.3955C14.9572 13.4887 14.8123 13.5555 14.6586 13.5917V13.5907Z" fill="#001A34"/>
</g>
</svg>
