<svg width="22" height="23" viewBox="0 0 22 23" fill="none" xmlns="http://www.w3.org/2000/svg">
<g id="id_09">
<path id="Path 1119" d="M1.31641 11.501C1.31641 8.9329 2.33658 6.46999 4.15249 4.65408C5.96841 2.83816 8.43132 1.81799 10.9994 1.81799C13.5675 1.81799 16.0304 2.83816 17.8463 4.65408C19.6622 6.46999 20.6824 8.9329 20.6824 11.501V11.508C20.6805 11.8582 20.5749 12.2 20.379 12.4904C20.1832 12.7807 19.9058 13.0065 19.5817 13.1395C19.2577 13.2724 18.9016 13.3064 18.5583 13.2373C18.2149 13.1682 17.8997 12.999 17.6524 12.751H17.5264C17.1946 13.082 16.7451 13.268 16.2764 13.268H12.7464C12.6483 13.9234 12.3421 14.5298 11.8731 14.998C11.404 15.4661 10.797 15.7711 10.1414 15.868V20.678C10.1414 20.691 10.1414 20.705 10.1414 20.718C10.1411 20.8383 10.0932 20.9536 10.0081 21.0387C9.92306 21.1238 9.80773 21.1717 9.68741 21.172H7.05441C6.93408 21.1717 6.81876 21.1238 6.73367 21.0387C6.64859 20.9536 6.60067 20.8383 6.60041 20.718V17.834C6.57893 17.3027 6.36579 16.7972 6.00041 16.411C5.99341 16.411 5.99041 16.401 5.98341 16.394L3.28341 13.694C2.74296 13.6326 2.24403 13.3744 1.88179 12.9686C1.51956 12.5628 1.31937 12.0379 1.31941 11.494L1.31641 11.501ZM19.7744 11.501C19.7754 10.3493 19.549 9.20877 19.1082 8.14481C18.6673 7.08085 18.0207 6.11442 17.2054 5.30099C16.8785 4.97539 16.5279 4.67456 16.1564 4.40099C17.2294 5.63846 17.819 7.22209 17.8164 8.85999V11.502C17.8165 11.6155 17.839 11.7279 17.8826 11.8328C17.9262 11.9376 17.99 12.0328 18.0704 12.113C18.3184 12.2788 18.6101 12.3672 18.9084 12.367C19.0224 12.3679 19.1354 12.3462 19.241 12.3031C19.3465 12.26 19.4424 12.1964 19.5232 12.1159C19.6039 12.0354 19.6679 11.9397 19.7114 11.8343C19.7548 11.729 19.7769 11.616 19.7764 11.502L19.7744 11.501ZM17.3624 11.501V8.85899C17.3611 7.7114 17.0501 6.58544 16.4623 5.59983C15.8744 4.61423 15.0315 3.80552 14.0224 3.25899C12.6965 2.77299 11.2729 2.61426 9.8726 2.7963C8.47225 2.97834 7.13655 3.49576 5.97901 4.3046C4.82147 5.11343 3.87631 6.18977 3.22386 7.44213C2.5714 8.69449 2.23094 10.0859 2.23141 11.498C2.23172 11.8436 2.36868 12.175 2.61241 12.42C2.81821 12.6252 3.08636 12.7562 3.37471 12.7924C3.66306 12.8286 3.95527 12.7679 4.20541 12.62C4.38481 12.5148 4.53531 12.3667 4.64341 12.189C4.31468 11.7654 4.15197 11.2363 4.18585 10.7012C4.21973 10.1661 4.44787 9.66175 4.82741 9.28299C4.87016 9.24133 4.9276 9.21818 4.9873 9.21856C5.047 9.21894 5.10414 9.24283 5.14636 9.28504C5.18857 9.32726 5.21246 9.3844 5.21284 9.4441C5.21322 9.5038 5.19007 9.56124 5.14841 9.60399C4.85369 9.93776 4.69745 10.3714 4.71158 10.8165C4.72571 11.2615 4.90914 11.6844 5.22443 11.9988C5.53972 12.3132 5.96312 12.4954 6.40819 12.5083C6.85327 12.5211 7.28648 12.3637 7.61941 12.068C7.64038 12.0465 7.66543 12.0293 7.69308 12.0176C7.72074 12.0058 7.75046 11.9996 7.78051 11.9994C7.81056 11.9992 7.84036 12.005 7.86816 12.0164C7.89597 12.0278 7.92123 12.0447 7.94248 12.0659C7.96373 12.0872 7.98055 12.1124 7.99197 12.1402C8.00338 12.168 8.00916 12.1978 8.00896 12.2279C8.00877 12.2579 8.00261 12.2877 7.99084 12.3153C7.97907 12.343 7.96193 12.368 7.94041 12.389C7.60367 12.7247 7.16755 12.9427 6.69693 13.0107C6.22631 13.0786 5.74633 12.9928 5.32841 12.766C5.15154 13.0166 4.92394 13.2271 4.66041 13.384C4.57592 13.4353 4.48767 13.4801 4.39641 13.518L6.61741 15.739L6.64741 15.769C6.90725 16.0428 7.11438 16.3621 7.25841 16.711C7.40062 17.0561 7.47987 17.4239 7.49241 17.797C7.49406 17.8136 7.49406 17.8304 7.49241 17.847V20.255H9.21941V15.483C9.21941 15.47 9.21941 15.456 9.21941 15.443C9.21967 15.3227 9.26759 15.2073 9.35267 15.1223C9.43775 15.0372 9.55308 14.9893 9.67341 14.989C9.95993 14.9894 10.2437 14.9332 10.5085 14.8238C10.7733 14.7143 11.0139 14.5537 11.2165 14.3511C11.4191 14.1485 11.5797 13.9079 11.6892 13.6431C11.7987 13.3783 11.8548 13.0945 11.8544 12.808V12.795V12.785V12.775V12.768V12.758V12.748C11.8537 12.7464 11.8533 12.7447 11.8533 12.743C11.8533 12.7413 11.8537 12.7396 11.8544 12.738C11.8537 12.7364 11.8533 12.7347 11.8533 12.733C11.8533 12.7313 11.8537 12.7296 11.8544 12.728C11.8537 12.7264 11.8533 12.7247 11.8533 12.723C11.8533 12.7213 11.8537 12.7196 11.8544 12.718C11.8544 12.718 11.8544 12.711 11.8544 12.708C11.8544 12.708 11.8544 12.701 11.8544 12.698C11.8544 12.698 11.8544 12.691 11.8544 12.688C11.8544 12.688 11.8544 12.681 11.8544 12.678C11.8544 12.678 11.8544 12.671 11.8544 12.668C11.8544 12.668 11.8544 12.661 11.8544 12.658C11.8544 12.658 11.8544 12.651 11.8544 12.648C11.8544 12.648 11.8544 12.641 11.8544 12.638C11.8544 12.638 11.8544 12.631 11.8544 12.628C11.8544 12.628 11.8544 12.621 11.8544 12.618C11.8544 12.618 11.8544 12.611 11.8614 12.608C11.8614 12.608 11.8614 12.601 11.8684 12.598C11.8684 12.598 11.8684 12.591 11.8754 12.588C11.8754 12.588 11.8754 12.581 11.8824 12.578C11.8824 12.578 11.8824 12.571 11.8894 12.568C11.8894 12.568 11.8894 12.561 11.8964 12.558C11.8964 12.558 11.8964 12.551 11.9034 12.548C11.9034 12.548 11.9034 12.541 11.9104 12.538C11.9104 12.538 11.9104 12.531 11.9174 12.528C11.9174 12.528 11.9174 12.521 11.9244 12.521C11.9244 12.521 11.9244 12.514 11.9314 12.514C11.9314 12.514 11.9314 12.507 11.9384 12.507L11.9454 12.5L11.9524 12.493C11.9524 12.493 11.9594 12.493 11.9594 12.486C11.9594 12.486 11.9664 12.486 11.9664 12.479C11.9664 12.479 11.9734 12.479 11.9734 12.472C11.9734 12.472 11.9804 12.472 11.9834 12.465C11.9834 12.465 11.9904 12.465 11.9934 12.458C11.9934 12.458 12.0004 12.458 12.0034 12.451C12.0034 12.451 12.0104 12.451 12.0134 12.444C12.0134 12.444 12.0204 12.444 12.0234 12.437C12.0234 12.437 12.0304 12.437 12.0334 12.43C12.0334 12.43 12.0404 12.43 12.0434 12.423C12.0434 12.423 12.0504 12.423 12.0534 12.416C12.0534 12.416 12.0604 12.416 12.0634 12.409C12.065 12.4083 12.0667 12.4079 12.0684 12.4079C12.0701 12.4079 12.0718 12.4083 12.0734 12.409C12.0734 12.409 12.0804 12.409 12.0834 12.409C12.0834 12.409 12.0904 12.409 12.0934 12.409C12.0934 12.409 12.1004 12.409 12.1034 12.409C12.1034 12.409 12.1104 12.409 12.1134 12.409C12.1134 12.409 12.1204 12.409 12.1234 12.409C12.1234 12.409 12.1304 12.409 12.1334 12.409C12.1334 12.409 12.1404 12.409 12.1434 12.409C12.1434 12.409 12.1504 12.409 12.1534 12.409C12.1534 12.409 12.1604 12.409 12.1634 12.409C12.165 12.4097 12.1667 12.4101 12.1684 12.4101C12.1701 12.4101 12.1718 12.4097 12.1734 12.409C12.175 12.4097 12.1767 12.4101 12.1784 12.4101C12.1801 12.4101 12.1818 12.4097 12.1834 12.409C12.185 12.4097 12.1867 12.4101 12.1884 12.4101C12.1901 12.4101 12.1918 12.4097 12.1934 12.409H16.4764C16.7057 12.4085 16.9254 12.3172 17.0875 12.1551C17.2496 11.993 17.3409 11.7732 17.3414 11.544L17.3624 11.501ZM9.68341 9.95399H14.2594C14.3196 9.95399 14.3773 9.97791 14.4199 10.0205C14.4625 10.0631 14.4864 10.1208 14.4864 10.181C14.4864 10.2412 14.4625 10.2989 14.4199 10.3415C14.3773 10.3841 14.3196 10.408 14.2594 10.408H9.68341C9.31061 10.4073 8.9506 10.272 8.66952 10.0272C8.38845 9.78227 8.20518 9.44417 8.15341 9.07499C7.76732 9.01905 7.41666 8.8192 7.17174 8.51554C6.92683 8.21188 6.80577 7.82685 6.83285 7.43768C6.85992 7.0485 7.03313 6.68394 7.31773 6.41712C7.60234 6.1503 7.97729 6.00094 8.36741 5.99899C8.42761 5.99899 8.48535 6.02291 8.52792 6.06548C8.57049 6.10805 8.59441 6.16579 8.59441 6.22599C8.59441 6.2862 8.57049 6.34394 8.52792 6.38651C8.48535 6.42908 8.42761 6.45299 8.36741 6.45299C8.07779 6.45299 7.80004 6.56804 7.59525 6.77283C7.39046 6.97762 7.27541 7.25538 7.27541 7.54499C7.27541 7.83461 7.39046 8.11236 7.59525 8.31715C7.80004 8.52194 8.07779 8.63699 8.36741 8.63699C8.38426 8.63769 8.40101 8.64003 8.41741 8.64399C8.46921 8.65438 8.51583 8.68235 8.54936 8.72317C8.5829 8.764 8.60128 8.81516 8.60141 8.86799C8.60308 8.88027 8.60308 8.89272 8.60141 8.90499C8.61049 9.1878 8.72919 9.45599 8.93242 9.65286C9.13564 9.84974 9.40746 9.95988 9.69041 9.95999L9.68341 9.95399Z" fill="#001A34"/>
</g>
</svg>
