<svg width="22" height="22" viewBox="0 0 22 22" fill="none" xmlns="http://www.w3.org/2000/svg">
<g id="id_07">
<path id="Path 1115" d="M18.0483 18.691L11.8974 12.54L9.30735 17.025C9.33081 17.0455 9.35318 17.0672 9.37435 17.09C9.7374 17.453 9.95489 17.9365 9.98572 18.4489C10.0166 18.9614 9.85858 19.4674 9.54167 19.8713C9.22475 20.2752 8.77086 20.5491 8.26577 20.6411C7.76067 20.733 7.23938 20.6368 6.80042 20.3706C6.36146 20.1043 6.03524 19.6865 5.88343 19.196C5.73161 18.7056 5.76471 18.1765 5.97648 17.7088C6.18824 17.2412 6.564 16.8672 7.03272 16.6578C7.50144 16.4483 8.03066 16.4178 8.52035 16.572L11.2324 11.872L10.1224 10.765L5.42235 13.477C5.57661 13.9668 5.54606 14.4962 5.33646 14.965C5.12687 15.4338 4.75276 15.8095 4.28489 16.0212C3.81702 16.2329 3.28781 16.2657 2.79733 16.1136C2.30685 15.9615 1.88911 15.635 1.62309 15.1957C1.35706 14.7565 1.26121 14.235 1.35364 13.7299C1.44607 13.2247 1.72039 12.771 2.12472 12.4544C2.52905 12.1378 3.03536 11.9804 3.54792 12.0118C4.06048 12.0433 4.54375 12.2614 4.90635 12.625C4.92735 12.646 4.95035 12.669 4.97135 12.692L9.45835 10.102L6.23435 6.87404L2.77035 3.41204C2.70408 3.34587 2.65983 3.26086 2.64366 3.16862C2.62749 3.07637 2.64018 2.98138 2.67999 2.89661C2.7198 2.81185 2.7848 2.74143 2.86612 2.69497C2.94744 2.64852 3.04111 2.62828 3.13435 2.63704H6.17035C6.29081 2.63728 6.40638 2.68466 6.49235 2.76904L8.41435 4.69004C8.45665 4.73221 8.49021 4.78232 8.51311 4.83749C8.53601 4.89266 8.5478 4.9518 8.5478 5.01154C8.5478 5.07127 8.53601 5.13042 8.51311 5.18558C8.49021 5.24075 8.45665 5.29086 8.41435 5.33304L7.65335 6.09404H8.22035C9.24354 6.09508 10.2246 6.5018 10.9484 7.22504L12.2284 8.50504L13.6584 7.67904L17.1994 1.54404C17.261 1.44239 17.3601 1.36899 17.4753 1.33963C17.5906 1.31026 17.7127 1.32727 17.8155 1.38699C17.9183 1.44671 17.9936 1.54439 18.0252 1.65902C18.0568 1.77365 18.0421 1.8961 17.9844 2.00004L15.2344 6.77004L20.0063 4.01604C20.058 3.98367 20.1156 3.96205 20.1758 3.95248C20.236 3.94292 20.2975 3.9456 20.3567 3.96037C20.4158 3.97514 20.4714 4.00169 20.52 4.03843C20.5686 4.07517 20.6094 4.12135 20.6397 4.17421C20.6701 4.22706 20.6895 4.28549 20.6967 4.34601C20.704 4.40653 20.6989 4.46789 20.6819 4.52642C20.6649 4.58495 20.6362 4.63944 20.5976 4.68662C20.559 4.73381 20.5113 4.77272 20.4573 4.80104L14.3274 8.34004L13.4984 9.77504L20.2344 16.511C20.5113 16.8026 20.6634 17.1908 20.6583 17.5928C20.6531 17.9949 20.4911 18.3791 20.2067 18.6634C19.9224 18.9478 19.5382 19.1098 19.1362 19.1149C18.7341 19.1201 18.3459 18.968 18.0543 18.691H18.0483ZM4.18635 3.54204L6.54935 5.90504L7.44235 5.01204L5.97235 3.54204H4.18635ZM7.64835 7.00404L18.6924 18.048C18.75 18.1108 18.8198 18.1612 18.8975 18.1963C18.9752 18.2313 19.0591 18.2503 19.1443 18.2521C19.2295 18.2539 19.3142 18.2384 19.3933 18.2066C19.4724 18.1748 19.5442 18.1274 19.6044 18.0671C19.6647 18.0069 19.7122 17.935 19.7439 17.856C19.7757 17.7769 19.7912 17.6922 19.7894 17.607C19.7876 17.5218 19.7686 17.4378 19.7336 17.3602C19.6985 17.2825 19.6481 17.2127 19.5854 17.155L10.3004 7.87004C10.0277 7.59466 9.7029 7.37648 9.34487 7.22829C8.98684 7.0801 8.60283 7.00488 8.21535 7.00704H7.64835V7.00404ZM7.88635 19.769C8.16243 19.7693 8.43006 19.6738 8.64361 19.4988C8.85717 19.3239 9.00342 19.0802 9.05744 18.8095C9.11147 18.5387 9.06992 18.2576 8.93988 18.0141C8.80983 17.7706 8.59935 17.5797 8.34431 17.474C8.08927 17.3682 7.80545 17.3543 7.54126 17.4344C7.27706 17.5145 7.04883 17.6838 6.89548 17.9134C6.74212 18.1429 6.67314 18.4186 6.70029 18.6933C6.72744 18.9681 6.84903 19.2249 7.04435 19.42C7.15492 19.531 7.2863 19.619 7.43096 19.6791C7.57562 19.7391 7.73072 19.77 7.88735 19.77L7.88635 19.769ZM3.42035 15.303C3.69643 15.3033 3.96406 15.2078 4.17761 15.0328C4.39117 14.8579 4.53742 14.6142 4.59144 14.3435C4.64547 14.0727 4.60392 13.7916 4.47387 13.5481C4.34383 13.3046 4.13335 13.1137 3.87831 13.008C3.62327 12.9022 3.33946 12.8883 3.07526 12.9684C2.81106 13.0485 2.58283 13.2178 2.42948 13.4474C2.27612 13.6769 2.20714 13.9526 2.23429 14.2273C2.26144 14.5021 2.38303 14.7589 2.57835 14.954C2.68888 15.0647 2.82013 15.1525 2.96461 15.2123C3.10909 15.2722 3.26395 15.303 3.42035 15.303Z" fill="#001A34"/>
</g>
</svg>
