<svg width="22" height="22" viewBox="0 0 22 22" fill="none" xmlns="http://www.w3.org/2000/svg">
<g id="id_04">
<path id="Path 1169" d="M18.1698 8.70408C18.4448 9.0568 18.6758 9.44162 18.8578 9.85008C19.1898 10.5907 19.3603 11.3935 19.3578 12.2051V18.7991C19.357 19.269 19.1698 19.7193 18.8371 20.0512C18.5045 20.3831 18.0537 20.5693 17.5838 20.5691H12.3148C11.0434 20.5692 9.78434 20.3189 8.60962 19.8325C7.43489 19.346 6.36748 18.633 5.46834 17.734C4.56919 16.835 3.8559 15.7678 3.36922 14.5931C2.88253 13.4185 2.63197 12.1595 2.63184 10.8881V1.88808C2.63206 1.77283 2.67591 1.66194 2.75457 1.57772C2.83323 1.49349 2.94087 1.44217 3.05584 1.43408C3.06584 1.43408 3.07584 1.43408 3.08584 1.43408H13.6348C13.695 1.43408 13.7528 1.458 13.7953 1.50057C13.8379 1.54314 13.8618 1.60088 13.8618 1.66108V5.16108H18.9088C19.0292 5.16135 19.1445 5.20926 19.2296 5.29435C19.3147 5.37943 19.3626 5.49475 19.3628 5.61508V8.24908C19.3626 8.36941 19.3147 8.48473 19.2296 8.56982C19.1445 8.6549 19.0292 8.70282 18.9088 8.70308H18.1708L18.1698 8.70408ZM12.3078 7.93608C12.3231 7.91989 12.3411 7.90637 12.3608 7.89608C12.4426 7.83154 12.5437 7.79633 12.6478 7.79608H18.4518V6.06508H8.36384C8.30415 6.06508 8.24505 6.05333 8.18991 6.03049C8.13476 6.00764 8.08466 5.97417 8.04246 5.93196C8.00025 5.88976 7.96677 5.83965 7.94393 5.78451C7.92109 5.72937 7.90934 5.67027 7.90934 5.61058C7.90934 5.5509 7.92109 5.49179 7.94393 5.43665C7.96677 5.38151 8.00025 5.33141 8.04246 5.2892C8.08466 5.247 8.13476 5.21352 8.18991 5.19068C8.24505 5.16784 8.30415 5.15608 8.36384 5.15608H13.4108V1.88308H11.2298V2.97508C11.2298 3.03529 11.2059 3.09302 11.1633 3.1356C11.1208 3.17817 11.063 3.20208 11.0028 3.20208C10.9426 3.20208 10.8849 3.17817 10.8423 3.1356C10.7998 3.09302 10.7758 3.03529 10.7758 2.97508V1.88308H8.59384V2.97508C8.59384 3.03529 8.56992 3.09302 8.52735 3.1356C8.48478 3.17817 8.42704 3.20208 8.36684 3.20208C8.30663 3.20208 8.24889 3.17817 8.20632 3.1356C8.16375 3.09302 8.13984 3.03529 8.13984 2.97508V1.88308H6.18584V6.93008C6.18238 8.82865 6.90673 10.6563 8.20984 12.0371L12.3098 7.93708L12.3078 7.93608ZM12.6518 8.70408H12.1838L5.06584 15.8221C5.37555 16.2756 5.72673 16.6995 6.11484 17.0881C6.92827 17.9034 7.89469 18.55 8.95865 18.9909C10.0226 19.4317 11.1632 19.6581 12.3148 19.6571H17.5888C17.7021 19.6572 17.8142 19.635 17.9189 19.5917C18.0235 19.5485 18.1186 19.485 18.1987 19.4049C18.2787 19.3248 18.3422 19.2298 18.3855 19.1251C18.4288 19.0205 18.451 18.9083 18.4508 18.7951V12.2041C18.4528 11.521 18.3082 10.8455 18.0268 10.2231C17.7685 9.65158 17.4022 9.13543 16.9478 8.70308H12.6518V8.70408ZM4.81584 15.4311L7.56484 12.6821C6.09333 11.1285 5.2734 9.06992 5.27384 6.93008V1.88308H3.55184V10.8831C3.54962 12.4862 3.98865 14.0589 4.82084 15.4291L4.81584 15.4311Z" fill="#001A34"/>
</g>
</svg>
