<svg width="22" height="22" viewBox="0 0 22 22" fill="none" xmlns="http://www.w3.org/2000/svg">
<g id="id_03">
<path id="Path 1147" d="M7.59298 17.792H13.946C15.0616 17.7896 16.1307 17.3454 16.9196 16.5565C17.7084 15.7677 18.1526 14.6985 18.155 13.583V13.205H3.24698V13.583C3.24936 14.6985 3.69357 15.7677 4.4824 16.5565C5.27122 17.3454 6.34042 17.7896 7.45598 17.792H7.59298ZM8.04798 18.247V19.108H13.359V18.247H8.04798ZM15.387 4.95696L17.025 6.59496C17.032 6.58715 17.04 6.58041 17.049 6.57496L18.566 5.04996L16.928 3.41196L15.415 4.93196L15.391 4.95596L15.387 4.95696ZM17.001 7.21396L14.767 4.98096L14.743 4.95696C14.6934 4.90717 14.6345 4.86767 14.5697 4.84073C14.5048 4.81378 14.4352 4.79993 14.365 4.79996C14.2947 4.79954 14.225 4.81321 14.1601 4.84018C14.0952 4.86715 14.0363 4.90685 13.987 4.95696C13.9372 5.00651 13.8977 5.06541 13.8708 5.13029C13.8438 5.19516 13.83 5.26471 13.83 5.33496C13.8296 5.40526 13.8432 5.47493 13.8702 5.53985C13.8972 5.60478 13.9369 5.66364 13.987 5.71296L16.264 7.98996L16.276 8.00196C16.3518 8.07482 16.4474 8.1238 16.5509 8.14282C16.6543 8.16185 16.7611 8.15007 16.8579 8.10896C16.9547 8.06785 17.0373 7.99921 17.0955 7.91157C17.1536 7.82393 17.1847 7.72114 17.185 7.61596C17.1854 7.54566 17.1717 7.47598 17.1448 7.41106C17.1178 7.34613 17.0781 7.28727 17.028 7.23796L17.004 7.21396H17.001ZM15.625 8.00296L13.987 6.36496L13.963 6.38896L11.798 8.56596H15.069L15.624 8.00696L15.625 8.00296ZM6.76498 5.94296V7.24296H8.06498C8.46735 7.24361 8.86591 7.16501 9.23791 7.01164C9.6099 6.85826 9.94804 6.63312 10.233 6.34907C10.518 6.06501 10.7443 5.72761 10.8988 5.35612C11.0534 4.98463 11.1333 4.58633 11.134 4.18396V2.88396H9.83398C9.43161 2.88317 9.03303 2.96164 8.66098 3.11489C8.28894 3.26814 7.95073 3.49318 7.66565 3.77714C7.38057 4.0611 7.15422 4.39843 6.99951 4.76987C6.8448 5.14131 6.76477 5.53959 6.76398 5.94196L6.76498 5.94296ZM5.85598 7.20996V5.94196C5.85465 5.12026 6.10908 4.31852 6.58398 3.64796C6.35196 3.44464 6.09156 3.27621 5.81098 3.14796C5.41534 2.9693 4.98609 2.87724 4.55198 2.87796H3.25198V4.17796C3.25185 4.91103 3.51497 5.61978 3.99345 6.17516C4.47194 6.73055 5.13396 7.09564 5.85898 7.20396L5.85598 7.20996ZM7.18698 2.97096C7.91283 2.32489 8.85126 1.96888 9.82298 1.97096H11.581C11.7015 1.97148 11.8169 2.01959 11.9021 2.1048C11.9874 2.19002 12.0355 2.30544 12.036 2.42596V4.18396C12.0361 4.70547 11.9335 5.2219 11.734 5.70375C11.5345 6.18559 11.242 6.6234 10.8732 6.99217C10.5044 7.36094 10.0666 7.65343 9.58478 7.85295C9.10293 8.05246 8.5865 8.15509 8.06498 8.15496H6.30498C5.78347 8.15509 5.26704 8.05246 4.78519 7.85295C4.30335 7.65343 3.86554 7.36094 3.49677 6.99217C3.128 6.6234 2.83551 6.18559 2.63599 5.70375C2.43648 5.2219 2.33385 4.70547 2.33398 4.18396V2.42596C2.33451 2.30544 2.38262 2.19002 2.46783 2.1048C2.55305 2.01959 2.66847 1.97148 2.78898 1.97096H4.54698C5.5175 1.96892 6.45466 2.32499 7.17898 2.97096H7.18698ZM17.934 6.96396C18.0374 7.16716 18.0912 7.39196 18.091 7.61996C18.0915 7.96515 17.9688 8.29919 17.745 8.56196H18.614C18.7345 8.56248 18.8499 8.61059 18.9351 8.6958C19.0204 8.78102 19.0685 8.89644 19.069 9.01696V13.58C19.0652 14.8814 18.5675 16.1328 17.6765 17.0813C16.7855 18.0299 15.5676 18.6048 14.269 18.69V19.563C14.2685 19.6835 14.2204 19.7989 14.1351 19.8841C14.0499 19.9693 13.9345 20.0174 13.814 20.018H7.59698C7.47647 20.0174 7.36105 19.9693 7.27583 19.8841C7.19062 19.7989 7.14251 19.6835 7.14198 19.563V18.69C5.84337 18.6048 4.6255 18.0299 3.73449 17.0813C2.84348 16.1328 2.34578 14.8814 2.34198 13.58V9.01696C2.34251 8.89644 2.39062 8.78102 2.47583 8.6958C2.56105 8.61059 2.67647 8.56248 2.79698 8.56196H10.519L13.074 5.99496C12.9617 5.7747 12.9078 5.52929 12.9175 5.28223C12.9272 5.03518 13.0002 4.79475 13.1295 4.58399C13.2587 4.37323 13.4399 4.19919 13.6558 4.07854C13.8716 3.95789 14.1147 3.89468 14.362 3.89496C14.5881 3.89582 14.8111 3.94814 15.014 4.04796L16.578 2.47096L16.602 2.44696C16.6876 2.36195 16.8033 2.31425 16.924 2.31425C17.0446 2.31425 17.1604 2.36195 17.246 2.44696L19.527 4.73096C19.5691 4.77294 19.6025 4.82282 19.6252 4.87773C19.648 4.93264 19.6598 4.99151 19.6598 5.05096C19.6598 5.11041 19.648 5.16927 19.6252 5.22418C19.6025 5.27909 19.5691 5.32897 19.527 5.37096L17.934 6.97096V6.96396ZM18.155 12.742V9.47096H3.25098V12.742H18.155Z" fill="#001A34"/>
</g>
</svg>
