<svg width="22" height="23" viewBox="0 0 22 23" fill="none" xmlns="http://www.w3.org/2000/svg">
<g id="id_19">
<path id="Vector" d="M19.94 4.59263C19.9823 4.5503 20.0326 4.51671 20.0878 4.4938C20.1431 4.47089 20.2024 4.45911 20.2622 4.4591C20.3221 4.45909 20.3813 4.47085 20.4366 4.49375C20.4919 4.51664 20.5422 4.55021 20.5845 4.59252C20.6268 4.63483 20.6604 4.68505 20.6833 4.74033C20.7062 4.79562 20.718 4.85489 20.718 4.91473C20.718 4.97458 20.7063 5.03384 20.6834 5.08913C20.6605 5.14443 20.6269 5.19467 20.5846 5.237L11.4656 14.3558H13.2228C13.236 14.3558 13.2487 14.3558 13.2613 14.3575C14.6773 14.35 16.0328 13.7825 17.0318 12.7788L19.9396 9.87086C19.9817 9.82762 20.032 9.7932 20.0875 9.76956C20.1431 9.74591 20.2027 9.73348 20.2631 9.73309C20.3235 9.73269 20.3833 9.74433 20.4391 9.76725C20.495 9.79017 20.5457 9.82393 20.5884 9.86661C20.6311 9.9093 20.6649 9.96003 20.6878 10.0159C20.7107 10.0717 20.7223 10.1316 20.7219 10.1919C20.7215 10.2523 20.7091 10.312 20.6855 10.3675C20.6618 10.4231 20.6274 10.4733 20.5842 10.5154L17.6764 13.4232C16.5062 14.595 14.9204 15.2571 13.2643 15.2653C13.2505 15.2664 13.2364 15.2672 13.2225 15.2672H11.4656L13.3266 17.1282C13.4119 17.2137 13.4599 17.3296 13.4599 17.4504C13.4599 17.5712 13.4119 17.6871 13.3266 17.7726L10.0279 21.0717L10.0266 21.0704C9.98448 21.1125 9.93445 21.1458 9.8794 21.1685C9.82435 21.1911 9.76536 21.2027 9.70583 21.2024H4.46719C4.37402 21.2106 4.2806 21.1899 4.19959 21.1431C4.11859 21.0964 4.05394 21.0258 4.01441 20.9411C3.97489 20.8563 3.96241 20.7614 3.97867 20.6693C3.99493 20.5772 4.03913 20.4923 4.10529 20.4262L10.0405 14.4911L10.0462 14.4854L15.0287 9.50278C14.3718 8.54115 13.4982 7.74728 12.4783 7.18509C12.6372 7.74381 12.6643 8.3318 12.5575 8.90277C12.4507 9.47375 12.2129 10.0121 11.8628 10.4756C11.5127 10.9391 11.0598 11.3151 10.5398 11.5739C10.0197 11.8328 9.44676 11.9675 8.86588 11.9674C8.285 11.9672 7.71207 11.8324 7.19214 11.5733C6.67221 11.3143 6.21947 10.9382 5.86952 10.4746C5.51957 10.0109 5.28196 9.47244 5.17536 8.90143C5.06877 8.33041 5.09611 7.74241 5.25523 7.18375C4.15245 7.79124 3.22249 8.66951 2.55297 9.73577H3.10715C3.22802 9.73577 3.34394 9.78378 3.4294 9.86925C3.51487 9.95471 3.56288 10.0706 3.56288 10.1915C3.56288 10.3124 3.51487 10.4283 3.4294 10.5138C3.34394 10.5992 3.22802 10.6472 3.10715 10.6472H1.77637C1.65553 10.6472 1.53963 10.5993 1.45412 10.5139C1.36861 10.4285 1.32049 10.3127 1.32031 10.1918H1.32163C1.32169 10.122 1.33772 10.0532 1.36849 9.99052C2.32716 8.05491 3.999 6.56642 6.03249 5.83802C6.04701 5.8323 6.06087 5.8275 6.07649 5.82288C6.11763 5.80836 6.15877 5.79381 6.19991 5.78061C7.97498 5.18154 9.89996 5.19703 11.6652 5.8246C11.6715 5.82658 11.6784 5.829 11.6847 5.83142C11.9939 5.94247 12.2964 6.07156 12.5905 6.21798C13.8216 6.82665 14.883 7.73059 15.6799 8.84917L19.9383 4.59107L19.94 4.59263ZM9.96213 6.33324C8.79923 6.16122 7.61213 6.26638 6.49757 6.64014C6.25213 7.00974 6.09657 7.43164 6.04335 7.87211C5.99012 8.31258 6.04071 8.75938 6.19106 9.1768C6.3414 9.59422 6.58734 9.97069 6.90921 10.2761C7.23107 10.5814 7.61992 10.8073 8.04466 10.9355C8.46941 11.0637 8.91826 11.0907 9.35532 11.0144C9.79238 10.9381 10.2055 10.7605 10.5617 10.496C10.9179 10.2315 11.2072 9.88726 11.4066 9.49091C11.6059 9.09455 11.7098 8.65706 11.7098 8.21339C11.7098 8.14189 11.7074 8.07172 11.7023 8.0022C11.664 8.05521 11.6214 8.10508 11.5752 8.15135C11.4625 8.26591 11.3282 8.35702 11.1801 8.41943C11.032 8.48183 10.873 8.51427 10.7123 8.51492C10.5516 8.51558 10.3923 8.48444 10.2437 8.42324C10.0951 8.36204 9.96008 8.27198 9.84643 8.15834C9.73279 8.0447 9.64278 7.9097 9.58158 7.76109C9.52038 7.61249 9.4892 7.45323 9.48985 7.29252C9.49051 7.1318 9.52297 6.9728 9.58538 6.82469C9.64778 6.67659 9.73889 6.54231 9.85345 6.4296C9.88757 6.39541 9.92371 6.3633 9.96169 6.33345L9.96213 6.33324ZM7.23897 2.73144C7.2231 2.73164 7.20722 2.73084 7.19145 2.72902C5.31396 2.70158 3.49438 3.37892 2.09185 4.62738C2.0477 4.66857 1.99578 4.70051 1.93912 4.72137C1.88246 4.74224 1.82221 4.75164 1.76189 4.74893C1.70157 4.74622 1.6424 4.7315 1.58784 4.70564C1.53329 4.67977 1.48444 4.64325 1.44416 4.59827C1.40388 4.55329 1.37297 4.50076 1.35326 4.44369C1.33355 4.38662 1.32543 4.32616 1.32936 4.26591C1.3333 4.20566 1.34921 4.14682 1.37618 4.0928C1.40315 4.03877 1.44062 3.99068 1.48641 3.95132C3.05846 2.54778 5.10124 1.78744 7.20839 1.82152C7.21851 1.82152 7.22863 1.82018 7.23941 1.82018H16.3034C16.3641 1.81884 16.4244 1.82967 16.4809 1.85198C16.5374 1.87428 16.5888 1.9076 16.6322 1.95005C16.6756 1.9925 16.7101 2.0432 16.7336 2.09915C16.7571 2.15511 16.7693 2.21521 16.7693 2.27592C16.7693 2.33662 16.7571 2.39672 16.7336 2.45268C16.7101 2.50863 16.6756 2.55933 16.6322 2.60178C16.5888 2.64423 16.5374 2.67755 16.4809 2.69986C16.4244 2.72216 16.3641 2.73299 16.3034 2.73165H7.23941L7.23897 2.73144ZM10.715 8.05231C10.8913 8.05225 11.0621 7.99109 11.1984 7.8792C11.3346 7.76731 11.4279 7.61165 11.4622 7.43872C11.4965 7.26579 11.4699 7.08629 11.3867 6.93083C11.3035 6.77536 11.1691 6.65353 11.0061 6.58611C10.8432 6.51869 10.662 6.5098 10.4933 6.56103C10.3246 6.61225 10.1789 6.7204 10.081 6.86702C9.98305 7.01364 9.939 7.18968 9.95632 7.36513C9.97365 7.54059 10.0513 7.70461 10.176 7.82925C10.2467 7.90016 10.3307 7.95641 10.4232 7.99473C10.5157 8.03306 10.6148 8.05272 10.715 8.05258V8.05231ZM10.8131 18.998H6.82339L5.52539 20.296H9.51553L10.8135 18.998H10.8131ZM7.27967 18.5426H11.2689L12.3608 17.4508L10.3663 15.4564L7.28011 18.5428L7.27967 18.5426Z" fill="black"/>
</g>
</svg>
