<svg width="22" height="23" viewBox="0 0 22 23" fill="none" xmlns="http://www.w3.org/2000/svg">
<g id="id_18">
<path id="Vector" d="M5.07755 13.0886C4.79533 12.0342 4.79938 10.9235 5.08928 9.87116C5.37918 8.81879 5.94444 7.86282 6.72678 7.10179C7.50912 6.34075 8.48022 5.80219 9.53997 5.54165C10.5997 5.28111 11.7098 5.30801 12.7557 5.61957L12.7722 5.62462L13.3877 5.79592C13.4462 5.81086 13.5011 5.83733 13.5492 5.87376C13.5973 5.91019 13.6377 5.95585 13.668 6.00807C13.6983 6.0603 13.7178 6.11805 13.7255 6.17793C13.7332 6.23781 13.7289 6.29861 13.7128 6.3568C13.6968 6.41499 13.6692 6.4694 13.6319 6.51683C13.5945 6.56426 13.5481 6.60376 13.4953 6.63303C13.4425 6.66229 13.3844 6.68071 13.3244 6.68725C13.2644 6.69378 13.2037 6.68828 13.1459 6.67106L12.5286 6.49978C12.5171 6.49745 12.5057 6.49451 12.4945 6.49098C12.4813 6.48724 12.4679 6.48283 12.4541 6.47888L12.351 6.45053C12.3479 6.45053 12.3446 6.44853 12.3415 6.44787C11.929 6.3374 11.5045 6.27833 11.0775 6.27198C10.7767 6.26813 10.4761 6.29019 10.1791 6.33793L16.1641 12.3248C16.2797 11.5992 16.2407 10.8574 16.0498 10.1479L14.6018 4.74244C14.6018 4.74134 14.6018 4.74002 14.6005 4.73804C14.3658 3.9158 14.3586 3.04528 14.5796 2.21926C14.6492 1.96098 14.7403 1.70898 14.8519 1.46593C14.9632 1.22354 15.0949 0.991022 15.2454 0.770867C15.279 0.721576 15.322 0.679401 15.3719 0.646725C15.4218 0.614049 15.4777 0.591514 15.5363 0.580427C15.5949 0.569339 15.6551 0.569901 15.7135 0.582091C15.7719 0.594281 15.8273 0.617865 15.8765 0.651476C15.9258 0.685087 15.968 0.728064 16.0007 0.77798C16.0333 0.827896 16.0559 0.883763 16.0669 0.942384C16.078 1.00101 16.0775 1.06124 16.0653 1.11965C16.0531 1.17805 16.0295 1.23347 15.9959 1.28276C15.8739 1.45994 15.7671 1.64724 15.677 1.84259C15.5867 2.03976 15.5132 2.24418 15.4571 2.45367C15.4433 2.50666 15.4299 2.55919 15.418 2.61152L19.9609 7.15568C20.4363 7.04921 20.8868 6.8527 21.2883 6.57674C21.3878 6.50886 21.5102 6.4833 21.6285 6.50569C21.7469 6.52808 21.8515 6.59658 21.9194 6.69613C21.9872 6.79568 22.0128 6.91812 21.9904 7.03651C21.968 7.1549 21.8995 7.25953 21.8 7.32742C21.239 7.71353 20.6009 7.97318 19.9297 8.0884C19.2586 8.20362 18.5704 8.17168 17.9128 7.99478C17.8249 7.97147 17.8717 7.98334 17.9128 7.99478L17.8919 7.98906C17.8875 7.98774 17.8831 7.98707 17.8787 7.98597C17.8902 7.98905 17.9007 7.99237 17.8717 7.98401L16.2922 7.54531L16.9264 9.91373C17.1359 10.692 17.1896 11.5041 17.0844 12.3032C16.9791 13.1023 16.717 13.8727 16.3131 14.5702C16.3081 14.579 16.3024 14.588 16.2966 14.5962C15.6049 15.7818 14.5355 16.7011 13.2596 17.2068C11.9836 17.7125 10.575 17.7754 9.25911 17.3854L9.25274 17.3835L8.096 17.0624C8.03752 17.0475 7.98261 17.021 7.93447 16.9846C7.88634 16.9482 7.84596 16.9025 7.81568 16.8503C7.7854 16.798 7.76583 16.7403 7.75813 16.6804C7.75043 16.6205 7.75474 16.5597 7.77082 16.5015C7.7869 16.4433 7.81442 16.3889 7.85177 16.3415C7.88912 16.2941 7.93556 16.2546 7.98836 16.2253C8.04115 16.1961 8.09925 16.1776 8.15925 16.1711C8.21925 16.1645 8.27995 16.17 8.33781 16.1873L9.49454 16.5083L9.51542 16.514C9.51915 16.5153 9.52311 16.516 9.52685 16.5173L9.61478 16.5419C9.62248 16.5439 9.62995 16.5463 9.63676 16.5488C10.3489 16.7434 11.0945 16.7828 11.8232 16.6644L5.83816 10.6778C5.72261 11.4034 5.76157 12.1452 5.95247 12.8547L7.40047 18.2601C7.40047 18.2614 7.40046 18.2625 7.40178 18.2645C7.63645 19.0868 7.64368 19.9573 7.42267 20.7833C7.35312 21.0416 7.262 21.2936 7.15031 21.5366C7.03899 21.779 6.90736 22.0115 6.75682 22.2317C6.72322 22.281 6.68024 22.3232 6.63034 22.3559C6.58043 22.3885 6.52458 22.4111 6.46598 22.4221C6.40737 22.4332 6.34715 22.4327 6.28876 22.4205C6.23038 22.4083 6.17497 22.3847 6.12569 22.3511C6.07641 22.3175 6.03424 22.2745 6.00157 22.2246C5.9689 22.1747 5.94638 22.1188 5.9353 22.0602C5.92422 22.0016 5.92478 21.9413 5.93696 21.8829C5.94915 21.8245 5.97273 21.7691 6.00633 21.7198C6.25229 21.3637 6.43445 20.9675 6.54468 20.5489C6.55853 20.4964 6.57194 20.4434 6.58381 20.3908L2.04395 15.848C1.56872 15.9547 1.11822 16.1511 0.716626 16.4267C0.667405 16.4616 0.611741 16.4863 0.55287 16.4994C0.493998 16.5125 0.433111 16.5138 0.373751 16.5031C0.314391 16.4924 0.257747 16.47 0.207136 16.4372C0.156525 16.4044 0.112948 16.3618 0.0789619 16.312C0.0449759 16.2621 0.0212647 16.206 0.00919264 16.1469C-0.00287941 16.0878 -0.00306465 16.0269 0.00865596 15.9677C0.0203766 15.9085 0.0437699 15.8523 0.0774592 15.8022C0.111148 15.7522 0.154453 15.7094 0.204869 15.6763C0.765808 15.2901 1.40391 15.0305 2.07503 14.9152C2.74616 14.8 3.43429 14.832 4.09185 15.0089C4.13581 15.0204 4.06349 15.0014 4.13296 15.021C4.21561 15.043 4.1178 15.0153 4.17341 15.0318C4.18155 15.0342 4.19056 15.0368 4.19869 15.0399L5.71241 15.4601L5.07821 13.0911L5.07755 13.0886ZM15.3371 3.17181C15.3295 3.27296 15.3263 3.37344 15.3276 3.47327C15.3309 3.78754 15.3731 4.1002 15.4534 4.40405C15.4554 4.41109 15.4578 4.41723 15.4591 4.42426L15.4743 4.48122L15.4762 4.48868C15.4782 4.49506 15.4793 4.50078 15.4806 4.50694L16.0214 6.5266L18.1049 7.10468C18.0854 7.09897 18.0847 7.09897 18.1489 7.11612C18.5564 7.22588 18.9793 7.26711 19.4004 7.23814L15.3364 3.17313L15.3371 3.17181ZM6.66954 19.829C6.67702 19.7279 6.68017 19.6274 6.679 19.5276C6.67584 19.2135 6.6336 18.9011 6.55326 18.5974C6.55128 18.5904 6.54886 18.5842 6.54754 18.5772L6.53238 18.5203L6.53039 18.5132C6.52863 18.5068 6.52731 18.5011 6.52599 18.4956L5.98523 16.476L3.956 15.9131C3.94523 15.9111 3.93512 15.908 3.92435 15.9054C3.87511 15.8913 3.89467 15.8964 3.90479 15.899L3.88017 15.892C3.8872 15.894 3.89599 15.897 3.85686 15.8863C3.44934 15.7765 3.02642 15.7353 2.60539 15.7642L6.66933 19.8293L6.66954 19.829ZM9.65018 6.45139C8.83812 6.66787 8.09037 7.07743 7.47059 7.64516L14.8568 15.0333C15.1081 14.7589 15.3292 14.4583 15.5163 14.1366C15.52 14.1291 15.5244 14.1208 15.5288 14.1133C15.7571 13.7183 15.9327 13.2951 16.0513 12.8545L9.64995 6.45139H9.65018ZM7.14921 7.96729C6.58182 8.58714 6.17188 9.33445 5.954 10.1461L12.3554 16.5499C13.1674 16.3335 13.9152 15.924 14.535 15.3563L7.14876 7.96818L7.14921 7.96729ZM18.1307 7.11172C18.1319 7.11223 18.1331 7.11267 18.1344 7.11303L18.1489 7.11676L18.1394 7.11435L18.1307 7.11172ZM17.9146 7.99389C17.9506 8.00335 17.9829 8.0117 17.9146 7.99389V7.99389Z" fill="black"/>
</g>
</svg>
