<svg width="22" height="22" viewBox="0 0 22 22" fill="none" xmlns="http://www.w3.org/2000/svg">
<g id="id_12">
<path id="Path 1150" d="M2.23229 15.454C2.23127 15.655 2.27143 15.8541 2.35029 16.039C2.42832 16.2228 2.54066 16.3901 2.68129 16.532C2.82229 16.6734 2.98984 16.7856 3.17432 16.8622C3.35879 16.9387 3.55657 16.978 3.75629 16.978C3.95641 16.9779 4.15453 16.9382 4.33921 16.8611C4.5239 16.7841 4.69148 16.6712 4.83229 16.529L7.85129 13.51L2.23229 9.01697V15.454ZM6.19029 4.84897C6.1656 4.86591 6.13782 4.87782 6.10853 4.88402C6.07923 4.89022 6.04901 4.8906 6.01957 4.88512C5.99013 4.87964 5.96206 4.86842 5.93697 4.85209C5.91187 4.83576 5.89023 4.81465 5.87329 4.78997C5.85635 4.76528 5.84444 4.73749 5.83823 4.7082C5.83203 4.67891 5.83166 4.64868 5.83714 4.61925C5.84262 4.58981 5.85384 4.56174 5.87016 4.53664C5.88649 4.51154 5.9076 4.48991 5.93229 4.47297C6.38519 4.16499 6.88171 3.92667 7.40529 3.76597C7.93026 3.60512 8.47623 3.52323 9.02529 3.52297H13.6393C13.6999 3.52297 13.758 3.54704 13.8009 3.58989C13.8437 3.63274 13.8678 3.69086 13.8678 3.75147C13.8678 3.81207 13.8437 3.87019 13.8009 3.91304C13.758 3.95589 13.6999 3.97997 13.6393 3.97997H9.02529C8.52108 3.97953 8.01961 4.05401 7.53729 4.20097C7.05767 4.3473 6.60313 4.5658 6.18929 4.84897H6.19029ZM4.44529 6.90697C4.41996 6.96173 4.37391 7.0042 4.31728 7.02501C4.26064 7.04583 4.19806 7.04329 4.14329 7.01797C4.08852 6.99264 4.04606 6.94659 4.02524 6.88995C4.00443 6.83332 4.00696 6.77073 4.03229 6.71597C4.10656 6.55455 4.189 6.39701 4.27929 6.24397C4.37129 6.08897 4.46729 5.93797 4.57029 5.79797C4.58703 5.77221 4.60883 5.75012 4.63436 5.73304C4.65989 5.71595 4.68863 5.70423 4.71882 5.69858C4.74902 5.69292 4.78005 5.69346 4.81003 5.70014C4.84001 5.70683 4.86832 5.71954 4.89325 5.73749C4.91818 5.75544 4.93921 5.77826 4.95506 5.80458C4.97091 5.8309 4.98125 5.86016 4.98546 5.89058C4.98967 5.92101 4.98766 5.95198 4.97955 5.98161C4.97145 6.01124 4.95741 6.03892 4.93829 6.06297C4.83829 6.19897 4.75029 6.33497 4.66929 6.47197C4.58661 6.6127 4.51183 6.75792 4.44529 6.90697ZM10.8013 14.036V20.23C10.8013 20.29 10.7895 20.3494 10.7665 20.4049C10.7435 20.4603 10.7099 20.5107 10.6674 20.5531C10.625 20.5955 10.5746 20.6292 10.5192 20.6522C10.4637 20.6751 10.4043 20.687 10.3443 20.687H8.36629C8.30627 20.687 8.24685 20.6751 8.1914 20.6522C8.13596 20.6292 8.08558 20.5955 8.04314 20.5531C8.0007 20.5107 7.96704 20.4603 7.94408 20.4049C7.92111 20.3494 7.90929 20.29 7.90929 20.23V14.736L5.47229 17.174C5.24664 17.4 4.9785 17.5792 4.68331 17.7013C4.38812 17.8233 4.07171 17.8857 3.75229 17.885C3.43269 17.8851 3.11622 17.8221 2.82105 17.6996C2.52588 17.5771 2.25782 17.3974 2.03229 17.171C1.8052 16.9451 1.62596 16.6757 1.50529 16.379C1.38397 16.0846 1.32147 15.7693 1.32129 15.451V9.02097C1.32129 8.00853 1.52077 7.00602 1.90833 6.0707C2.2959 5.13538 2.86395 4.28559 3.58003 3.56988C4.29612 2.85417 5.1462 2.28656 6.08172 1.89948C7.01724 1.5124 8.01986 1.31344 9.03229 1.31397H18.9193C19.1525 1.3137 19.3834 1.35944 19.5989 1.44854C19.8143 1.53765 20.0101 1.66839 20.175 1.83326C20.3399 1.99814 20.4706 2.19392 20.5597 2.40939C20.6488 2.62486 20.6946 2.8558 20.6943 3.08897C20.6951 5.81425 19.6843 8.44282 17.8576 10.4653C16.031 12.4878 13.5186 13.7602 10.8073 14.036H10.8013ZM8.20129 13.211C8.25378 13.1887 8.31028 13.1775 8.36729 13.178H9.68529C12.3616 13.1761 14.9277 12.1121 16.8201 10.2197C18.7125 8.32734 19.7764 5.76123 19.7783 3.08497C19.7786 2.97137 19.7562 2.85886 19.7126 2.75396C19.669 2.64907 19.605 2.55389 19.5243 2.47397C19.3623 2.31176 19.1425 2.22042 18.9133 2.21997H9.02529C7.32119 2.22099 5.67959 2.8618 4.42547 4.01555C3.17135 5.16929 2.39613 6.75187 2.25329 8.44997L8.20029 13.208L8.20129 13.211ZM8.82329 14.087V19.769H9.89129V14.088C9.82529 14.088 9.75529 14.088 9.69129 14.088H8.82929L8.82329 14.087Z" fill="#001A34"/>
</g>
</svg>
