<svg width="22" height="23" viewBox="0 0 22 23" fill="none" xmlns="http://www.w3.org/2000/svg">
<g id="id_10">
<path id="Path 1161" d="M10.5711 15.34C10.5711 15.4547 10.6167 15.5647 10.6978 15.6458C10.7789 15.7269 10.8889 15.7725 11.0036 15.7725C11.1184 15.7725 11.2284 15.7269 11.3095 15.6458C11.3906 15.5647 11.4361 15.4547 11.4361 15.34V7.94C11.435 6.40045 11.9431 4.90375 12.8811 3.683C13.0078 3.52567 13.1388 3.37734 13.2741 3.238C12.4486 3.75012 11.7674 4.4644 11.2949 5.31327C10.8224 6.16214 10.5744 7.11751 10.5741 8.089V15.341L10.5711 15.34ZM13.2081 15.34C13.2081 15.9248 12.9758 16.4857 12.5623 16.8992C12.1488 17.3127 11.588 17.545 11.0031 17.545C10.4183 17.545 9.8575 17.3127 9.44398 16.8992C9.03046 16.4857 8.79815 15.9248 8.79815 15.34V11.84H4.86915V17.975C4.87152 18.5532 5.10231 19.1069 5.51121 19.5156C5.92012 19.9244 6.474 20.1549 7.05215 20.157H14.9641C15.5425 20.1549 16.0965 19.9242 16.5054 19.5153C16.9144 19.1064 17.145 18.5523 17.1471 17.974V11.838H13.2171V15.338L13.2081 15.34ZM9.25215 15.34C9.24658 15.5729 9.28763 15.8045 9.37289 16.0213C9.45816 16.238 9.58591 16.4356 9.74864 16.6022C9.91137 16.7689 10.1058 16.9014 10.3205 16.9918C10.5351 17.0822 10.7657 17.1288 10.9986 17.1288C11.2316 17.1288 11.4622 17.0822 11.6768 16.9918C11.8915 16.9014 12.0859 16.7689 12.2487 16.6022C12.4114 16.4356 12.5391 16.238 12.6244 16.0213C12.7097 15.8045 12.7507 15.5729 12.7451 15.34V8.52C12.745 8.46989 12.7617 8.42117 12.7925 8.38165C12.8233 8.34213 12.8665 8.31409 12.9151 8.302C12.9319 8.2962 12.9494 8.29316 12.9671 8.293H17.5921C17.7126 8.293 17.828 8.34084 17.9132 8.42598C17.9983 8.51112 18.0461 8.6266 18.0461 8.747V17.977C18.0438 18.7961 17.7174 19.5809 17.1382 20.16C16.559 20.7392 15.7742 21.0656 14.9551 21.068H7.04315C6.22409 21.0656 5.43927 20.7392 4.8601 20.16C4.28094 19.5809 3.95452 18.7961 3.95215 17.977V8.747C3.95214 8.62729 3.99943 8.51241 4.0837 8.42738C4.16798 8.34235 4.28243 8.29406 4.40215 8.293H9.02615C9.08442 8.29535 9.13945 8.32042 9.17945 8.36285C9.21945 8.40528 9.24124 8.4617 9.24015 8.52V15.34H9.25215ZM8.79815 10.93V9.206H4.86915V10.931L8.79815 10.93ZM13.2081 9.205V10.93H17.1381V9.206L13.2081 9.205ZM10.1171 15.34V8.079C10.1185 6.44624 10.7683 4.88086 11.9237 3.72716C13.0791 2.57347 14.6454 1.92594 16.2781 1.927H17.5971C17.6574 1.927 17.7151 1.95092 17.7577 1.99349C17.8002 2.03606 17.8241 2.0938 17.8241 2.154C17.8241 2.21421 17.8002 2.27195 17.7577 2.31452C17.7151 2.35709 17.6574 2.381 17.5971 2.381H16.2781C15.6842 2.3934 15.1009 2.54192 14.5734 2.81515C14.0458 3.08838 13.588 3.47902 13.2351 3.957C12.359 5.09767 11.886 6.49672 11.8901 7.935V15.335C11.8897 15.5703 11.7971 15.7961 11.6321 15.964C11.5495 16.0464 11.4514 16.1116 11.3434 16.1559C11.2355 16.2002 11.1198 16.2226 11.0031 16.222C10.7678 16.2215 10.542 16.1289 10.3741 15.964C10.2093 15.7982 10.1169 15.5738 10.1171 15.34Z" fill="#001A34"/>
</g>
</svg>
