<svg width="22" height="23" viewBox="0 0 22 23" fill="none" xmlns="http://www.w3.org/2000/svg">
<g id="id_15">
<path id="Path 1159" d="M22.002 19.951C22.0012 20.4209 21.8143 20.8714 21.4822 21.2038C21.1502 21.5363 20.6999 21.7237 20.23 21.725H13.63C13.1622 21.7205 12.715 21.5318 12.3855 21.1996C12.056 20.8675 11.8708 20.4189 11.87 19.951V8.32001H10.139V19.951C10.1382 20.4189 9.953 20.8675 9.6235 21.1996C9.294 21.5318 8.84682 21.7205 8.379 21.725H1.774C1.30375 21.7242 0.852987 21.5371 0.520469 21.2045C0.187951 20.872 0.000793466 20.4213 2.39371e-07 19.951V13.366C-0.000262516 12.2681 0.215796 11.1809 0.635832 10.1665C1.05587 9.15207 1.67165 8.23036 2.448 7.45401C3.22435 6.67766 4.14606 6.06188 5.16046 5.64184C6.17486 5.22181 7.26208 5.00575 8.36 5.00601C8.82852 5.00785 9.27736 5.19465 9.60884 5.52576C9.94033 5.85687 10.1276 6.30549 10.13 6.77401V7.86601H10.765V1.50401C10.765 1.44341 10.7891 1.38529 10.8319 1.34244C10.8748 1.29959 10.9329 1.27551 10.9935 1.27551C11.0541 1.27551 11.1122 1.29959 11.1551 1.34244C11.1979 1.38529 11.222 1.44341 11.222 1.50401V7.86601H11.857V6.77401C11.8581 6.30411 12.0452 5.85375 12.3775 5.52148C12.7097 5.18921 13.1601 5.00207 13.63 5.00101C14.7287 5.00022 15.8167 5.21606 16.8319 5.63617C17.8471 6.05629 18.7695 6.67243 19.5464 7.44937C20.3232 8.2263 20.9392 9.14877 21.3592 10.164C21.7792 11.1792 21.9949 12.2673 21.994 13.366V19.956L22.002 19.951ZM12.778 8.22401L16.37 11.816H18.911C18.9716 11.816 19.0297 11.8401 19.0726 11.8829C19.1154 11.9258 19.1395 11.9839 19.1395 12.0445C19.1395 12.1051 19.1154 12.1632 19.0726 12.2061C19.0297 12.2489 18.9716 12.273 18.911 12.273H16.503V14.681C16.503 14.7416 16.4789 14.7997 16.4361 14.8426C16.3932 14.8854 16.3351 14.9095 16.2745 14.9095C16.2139 14.9095 16.1558 14.8854 16.1129 14.8426C16.0701 14.7997 16.046 14.7416 16.046 14.681V12.14L12.776 8.86601V19.951C12.7757 20.0644 12.7979 20.1768 12.8412 20.2816C12.8844 20.3864 12.948 20.4816 13.0282 20.5618C13.1084 20.642 13.2036 20.7056 13.3084 20.7489C13.4133 20.7921 13.5256 20.8143 13.639 20.814H20.23C20.3434 20.8143 20.4557 20.7921 20.5606 20.7489C20.6654 20.7056 20.7606 20.642 20.8408 20.5618C20.921 20.4816 20.9846 20.3864 21.0278 20.2816C21.0711 20.1768 21.0933 20.0644 21.093 19.951V13.366C21.0931 12.3874 20.9005 11.4183 20.526 10.5141C20.1516 9.60992 19.6027 8.78837 18.9107 8.09636C18.2186 7.40435 17.3971 6.85545 16.4929 6.481C15.5887 6.10654 14.6196 5.91388 13.641 5.91401C13.5276 5.91375 13.4153 5.93589 13.3104 5.97917C13.2056 6.02244 13.1104 6.086 13.0302 6.16619C12.95 6.24638 12.8864 6.34162 12.8432 6.44644C12.7999 6.55127 12.7777 6.66361 12.778 6.77701V8.22401ZM9.23 8.86601L5.96 12.137V14.678C5.96 14.7386 5.93593 14.7967 5.89307 14.8396C5.85022 14.8824 5.7921 14.9065 5.7315 14.9065C5.6709 14.9065 5.61278 14.8824 5.56993 14.8396C5.52707 14.7967 5.503 14.7386 5.503 14.678V12.266H3.096C3.0354 12.266 2.97728 12.2419 2.93443 12.1991C2.89157 12.1562 2.8675 12.0981 2.8675 12.0375C2.8675 11.9769 2.89157 11.9188 2.93443 11.8759C2.97728 11.8331 3.0354 11.809 3.096 11.809H5.636L9.23 8.22101V6.76601C9.23026 6.65261 9.20812 6.54027 9.16485 6.43544C9.12157 6.33062 9.05801 6.23538 8.97782 6.15519C8.89763 6.075 8.80239 6.01144 8.69757 5.96817C8.59274 5.92489 8.48041 5.90275 8.367 5.90301C7.38785 5.90262 6.41822 6.09522 5.51355 6.4698C4.60888 6.84439 3.78691 7.39361 3.09464 8.08607C2.40237 8.77852 1.85337 9.60064 1.47902 10.5054C1.10468 11.4102 0.912343 12.3799 0.913 13.359V19.949C0.912736 20.0624 0.934879 20.1748 0.978155 20.2796C1.02143 20.3844 1.08499 20.4796 1.16518 20.5598C1.24537 20.64 1.34061 20.7036 1.44543 20.7469C1.55026 20.7901 1.6626 20.8123 1.776 20.812H8.366C8.47941 20.8123 8.59175 20.7901 8.69657 20.7469C8.80139 20.7036 8.89663 20.64 8.97682 20.5598C9.05701 20.4796 9.12057 20.3844 9.16385 20.2796C9.20712 20.1748 9.22927 20.0624 9.229 19.949V8.86601H9.23Z" fill="#001A34"/>
</g>
</svg>
