<svg width="22" height="22" viewBox="0 0 22 22" fill="none" xmlns="http://www.w3.org/2000/svg">
<g id="id_11">
<path id="Path 1126" d="M15.7207 8.08807C15.726 8.08967 15.731 8.09203 15.7357 8.09507C15.7927 8.12107 15.8447 8.14107 15.8927 8.15707C15.9407 8.17307 15.9827 8.18607 16.0347 8.20107C16.0495 8.20397 16.0642 8.20764 16.0787 8.21207C16.6315 8.35555 17.2185 8.27543 17.7127 7.98907L17.7357 7.97607C18.2196 7.68969 18.5737 7.22697 18.7237 6.68507C18.7237 6.67007 18.7317 6.65607 18.7347 6.64107L19.3187 4.45907C19.3782 4.23809 19.3476 4.00253 19.2337 3.80407C19.1185 3.60651 18.9297 3.46267 18.7087 3.40407C18.633 3.38375 18.555 3.37333 18.4767 3.37307C18.4051 3.37411 18.3339 3.38385 18.2647 3.40207H18.2577C18.2551 3.40115 18.2523 3.40115 18.2497 3.40207H18.2317L16.0597 3.98407L16.0357 3.99107C15.6812 4.09077 15.3576 4.27821 15.0947 4.53607C14.7835 4.84201 14.5712 5.23419 14.4851 5.66199C14.399 6.08979 14.4431 6.53357 14.6117 6.93607C14.6566 7.02205 14.6729 7.12014 14.6582 7.21602C14.6434 7.31191 14.5984 7.40057 14.5297 7.46907L11.6667 10.3321L10.3457 11.6571L3.46768 18.5341C3.42321 18.5783 3.38791 18.6309 3.36383 18.6888C3.33974 18.7467 3.32734 18.8088 3.32734 18.8716C3.32734 18.9343 3.33974 18.9964 3.36383 19.0543C3.38791 19.1122 3.42321 19.1648 3.46768 19.2091C3.51187 19.2539 3.56449 19.2895 3.62249 19.3138C3.6805 19.3382 3.74276 19.3509 3.80568 19.3511C3.86846 19.3511 3.93064 19.3388 3.98864 19.3148C4.04664 19.2907 4.09933 19.2555 4.14368 19.2111L12.3317 11.0231L15.0957 8.25907C15.0357 8.21507 14.9787 8.17107 14.9217 8.12207C14.8972 8.1034 14.8767 8.07995 14.8616 8.05314C14.8464 8.02632 14.8369 7.99671 14.8336 7.96609C14.8302 7.93547 14.8332 7.9045 14.8422 7.87505C14.8512 7.8456 14.8661 7.81829 14.886 7.79479C14.9059 7.77128 14.9304 7.75208 14.9579 7.73833C14.9855 7.72459 15.0156 7.7166 15.0463 7.71485C15.0771 7.7131 15.1079 7.71762 15.1368 7.72815C15.1657 7.73867 15.1922 7.75498 15.2147 7.77607C15.2965 7.84518 15.3827 7.90898 15.4727 7.96707C15.5312 8.00359 15.5916 8.03697 15.6537 8.06707C15.6747 8.07507 15.6957 8.08507 15.7177 8.09507L15.7207 8.08807ZM2.13868 5.40707L2.41068 5.13507C2.41868 5.12507 2.42868 5.11507 2.43868 5.10607L5.07468 2.47007C5.08468 2.46007 5.09468 2.45007 5.10368 2.44207L5.40368 2.14207C5.44569 2.09983 5.49563 2.06631 5.55063 2.04344C5.60563 2.02056 5.66461 2.00879 5.72418 2.00879C5.78375 2.00879 5.84273 2.02056 5.89774 2.04344C5.95274 2.06631 6.00268 2.09983 6.04468 2.14207L8.73168 4.82907C8.74168 4.83707 8.75168 4.84707 8.76068 4.85707C9.10385 5.20069 9.35135 5.62797 9.47869 6.09661C9.60602 6.56526 9.60878 7.05903 9.48668 7.52907L11.3337 9.37607L13.6697 7.04007C13.5956 6.81038 13.5489 6.57273 13.5307 6.33207C13.4775 5.61549 13.6755 4.90276 14.0907 4.31627C14.5058 3.72978 15.1122 3.30613 15.8057 3.11807H15.8157L17.9877 2.53607C18.1416 2.49258 18.3007 2.47004 18.4607 2.46907C18.6206 2.46759 18.78 2.48743 18.9347 2.52807C19.1596 2.5883 19.3705 2.69236 19.5551 2.83428C19.7398 2.9762 19.8946 3.15318 20.0107 3.35507C20.1283 3.55504 20.2052 3.77626 20.2371 4.00603C20.269 4.2358 20.2553 4.46962 20.1967 4.69407L19.6067 6.90007C19.3969 7.68123 18.8893 8.34903 18.1927 8.76007C18.1847 8.76007 18.1767 8.77107 18.1667 8.77607C17.8153 8.9796 17.4272 9.11175 17.0246 9.16495C16.622 9.21815 16.2129 9.19134 15.8207 9.08607C15.754 9.06807 15.6857 9.04673 15.6157 9.02207C14.8327 9.80507 14.0667 10.5771 13.3067 11.3421L19.8527 17.8881C20.1118 18.148 20.2573 18.5001 20.2574 18.8671C20.2574 19.2342 20.112 19.5863 19.8529 19.8463C19.5938 20.1063 19.2422 20.253 18.8752 20.2543C18.5081 20.2555 18.1556 20.1113 17.8947 19.8531L11.3597 13.3161C9.20568 15.4881 7.06968 17.6351 4.79068 19.8571C4.53047 20.1146 4.17877 20.2584 3.81268 20.2571C3.44533 20.2588 3.09224 20.115 2.83068 19.8571C2.57085 19.5965 2.42494 19.2435 2.42494 18.8756C2.42494 18.5076 2.57085 18.1546 2.83068 17.8941L9.38168 11.3431L7.54568 9.50607C7.06976 9.63848 6.56723 9.64224 6.08937 9.51698C5.61152 9.39172 5.17545 9.14192 4.82568 8.79307L2.10968 6.07707C2.02443 5.99159 1.97656 5.87579 1.97656 5.75507C1.97656 5.63434 2.02443 5.51855 2.10968 5.43307C2.11968 5.42307 2.12968 5.41307 2.13868 5.40507V5.40707ZM5.07368 3.75707L6.47368 5.15707L7.37368 6.05707C7.41535 6.09982 7.4385 6.15726 7.43812 6.21696C7.43773 6.27666 7.41385 6.33381 7.37163 6.37602C7.32942 6.41823 7.27228 6.44212 7.21258 6.4425C7.15288 6.44288 7.09544 6.41973 7.05268 6.37807L6.15268 5.47807L4.75268 4.07807L4.07768 4.75307L6.38968 7.06507C6.41121 7.08604 6.42835 7.11109 6.44012 7.13874C6.45189 7.1664 6.45805 7.19612 6.45824 7.22617C6.45843 7.25623 6.45265 7.28602 6.44124 7.31382C6.42983 7.34163 6.41301 7.36689 6.39176 7.38814C6.3705 7.40939 6.34524 7.42622 6.31744 7.43763C6.28963 7.44904 6.25984 7.45482 6.22979 7.45462C6.19973 7.45443 6.17001 7.44827 6.14236 7.4365C6.1147 7.42473 6.08966 7.40759 6.06868 7.38607L3.75668 5.07407L3.08168 5.74907L3.07368 5.75707L5.46768 8.15107C5.72412 8.40793 6.04967 8.58474 6.40473 8.66001C6.75979 8.73529 7.12908 8.70578 7.46768 8.57507C7.55249 8.53422 7.6479 8.52075 7.74071 8.53652C7.83351 8.55228 7.91912 8.59651 7.98568 8.66307L10.0157 10.6941L10.6907 10.0191L8.64568 7.97507C8.5793 7.90905 8.53501 7.82408 8.51889 7.73186C8.50278 7.63964 8.51563 7.54469 8.55568 7.46007C8.6765 7.12521 8.69927 6.76283 8.62133 6.41547C8.5434 6.06812 8.36798 5.75021 8.11568 5.49907L8.08768 5.47007L5.72168 3.10407C5.71853 3.10698 5.71583 3.11035 5.71368 3.11407L5.07368 3.75707ZM11.9907 12.6681L18.5287 19.2061C18.5731 19.2505 18.6259 19.2858 18.684 19.3098C18.7421 19.3339 18.8043 19.3463 18.8672 19.3463C18.93 19.3463 18.9923 19.3339 19.0504 19.3098C19.1085 19.2858 19.1612 19.2505 19.2057 19.2061C19.2501 19.1616 19.2854 19.1088 19.3095 19.0508C19.3335 18.9927 19.3459 18.9304 19.3459 18.8676C19.3459 18.8047 19.3335 18.7425 19.3095 18.6844C19.2854 18.6263 19.2501 18.5735 19.2057 18.5291L12.6627 11.9861C12.4377 12.2131 12.2147 12.4391 11.9897 12.6641L11.9907 12.6681Z" fill="#001A34"/>
</g>
</svg>
