<svg width="22" height="23" viewBox="0 0 22 23" fill="none" xmlns="http://www.w3.org/2000/svg">
<g id="id_13">
<path id="Path 1166" d="M16.0352 10.8448L16.0292 10.8528L11.1832 17.6038C11.1469 17.6495 11.0944 17.6794 11.0366 17.6874C10.9789 17.6954 10.9202 17.6809 10.8729 17.6468C10.8255 17.6127 10.7931 17.5617 10.7824 17.5043C10.7717 17.447 10.7834 17.3877 10.8152 17.3388L15.6622 10.5898L15.6702 10.5788C15.7182 10.5138 15.7702 10.4438 15.8162 10.3688C15.8622 10.2938 15.9162 10.2178 15.9502 10.1508C16.5549 9.10349 16.7188 7.85884 16.4058 6.69068C16.0928 5.52252 15.3285 4.52654 14.2812 3.92183L14.2702 3.91483C13.5754 3.51796 12.7884 3.31102 11.9882 3.31483H11.9692C11.2399 3.31492 10.5385 3.59517 10.01 4.09766C9.48145 4.60015 9.16614 5.28648 9.12921 6.01483H12.3222C12.7286 6.01664 13.1288 6.11445 13.4902 6.3003C13.8516 6.48615 14.164 6.75478 14.4018 7.08428C14.6397 7.41378 14.7963 7.79483 14.859 8.19636C14.9216 8.5979 14.8884 9.00854 14.7622 9.39483C14.6769 9.65385 14.5514 9.89783 14.3902 10.1178L14.3842 10.1258L11.1002 14.6988V14.7058C10.8816 15.0129 10.593 15.2635 10.2582 15.4368C9.89823 15.6225 9.49646 15.7122 9.09169 15.6974C8.68692 15.6825 8.29281 15.5635 7.94743 15.3519C7.60204 15.1403 7.31704 14.8433 7.11994 14.4894C6.92284 14.1356 6.8203 13.7369 6.82221 13.3318C6.82221 13.3208 6.82221 13.3318 6.82221 13.2838C6.82221 13.2698 6.82221 13.2578 6.82221 13.2478C6.82132 13.1917 6.84127 13.1372 6.87821 13.0949C6.91515 13.0526 6.96646 13.0255 7.02221 13.0188C7.34607 12.9679 7.63899 12.7972 7.84295 12.5405C8.04691 12.2838 8.14705 11.9599 8.12353 11.6329C8.10001 11.3059 7.95455 10.9997 7.71595 10.7748C7.47736 10.55 7.16303 10.4229 6.83521 10.4188C6.80407 10.4209 6.77283 10.4165 6.74344 10.4061C6.71404 10.3956 6.68712 10.3791 6.66433 10.3578C6.64154 10.3365 6.62337 10.3107 6.61095 10.2821C6.59853 10.2534 6.59212 10.2225 6.59212 10.1913C6.59212 10.1601 6.59853 10.1292 6.61095 10.1006C6.62337 10.072 6.64154 10.0462 6.66433 10.0249C6.68712 10.0035 6.71404 9.98711 6.74344 9.97662C6.77283 9.96612 6.80407 9.96177 6.83521 9.96383C7.26284 9.96511 7.67543 10.1218 7.99614 10.4046C8.31684 10.6875 8.52381 11.0773 8.5785 11.5014C8.63318 11.9255 8.53184 12.355 8.29337 12.71C8.05489 13.065 7.69553 13.3211 7.28221 13.4308C7.30181 13.8259 7.44424 14.205 7.68963 14.5153C7.93502 14.8256 8.27112 15.0515 8.65107 15.1616C9.03101 15.2717 9.43585 15.2605 9.8091 15.1295C10.1824 14.9985 10.5054 14.7542 10.7332 14.4308L10.7402 14.4218L14.0242 9.84883L14.0322 9.83783C14.264 9.5216 14.4037 9.14735 14.4358 8.75659C14.4678 8.36582 14.3911 7.9738 14.214 7.62399C14.0369 7.27418 13.7664 6.98024 13.4325 6.77475C13.0986 6.56927 12.7143 6.46027 12.3222 6.45983H9.12221V8.86983C9.12221 8.93004 9.0983 8.98778 9.05573 9.03035C9.01315 9.07292 8.95542 9.09683 8.89521 9.09683C8.83501 9.09683 8.77727 9.07292 8.7347 9.03035C8.69213 8.98778 8.66821 8.93004 8.66821 8.86983V6.19483C8.66821 6.13483 8.66821 6.18283 8.66821 6.15083C8.66821 5.27562 9.01589 4.43625 9.63476 3.81738C10.2536 3.19851 11.093 2.85083 11.9682 2.85083H11.9852C12.3974 2.84897 12.8082 2.89835 13.2082 2.99783C13.6591 3.11063 14.0922 3.28528 14.4952 3.51683L14.5082 3.52383C15.0788 3.85281 15.579 4.29101 15.9801 4.8134C16.3812 5.3358 16.6754 5.93213 16.846 6.5683C17.0165 7.20448 17.0599 7.86802 16.9738 8.521C16.8877 9.17398 16.6738 9.80359 16.3442 10.3738C16.2922 10.4628 16.2442 10.5428 16.1972 10.6128C16.1502 10.6828 16.0972 10.7648 16.0372 10.8428L16.0352 10.8448ZM4.28421 19.5578C4.26401 19.5007 4.25542 19.4402 4.25893 19.3797C4.26244 19.3192 4.27799 19.2601 4.30467 19.2057C4.33135 19.1513 4.36861 19.1028 4.41428 19.063C4.45995 19.0232 4.51311 18.993 4.57063 18.974C4.62815 18.955 4.68888 18.9477 4.74926 18.9525C4.80964 18.9573 4.86846 18.9741 4.92225 19.002C4.97605 19.0298 5.02375 19.0681 5.06255 19.1146C5.10135 19.1611 5.13047 19.2149 5.14821 19.2728C5.34809 19.8809 5.71643 20.4198 6.21043 20.8268C6.70443 21.2339 7.3038 21.4924 7.93888 21.5723C8.57397 21.6522 9.2187 21.5502 9.79813 21.2783C10.3776 21.0063 10.8679 20.5754 11.2122 20.0358C11.2212 20.0218 11.2312 20.0088 11.2412 19.9948L17.1412 11.7838L17.1642 11.7508C18.156 10.4461 18.6143 8.81303 18.4462 7.18282C18.278 5.55262 17.496 4.04744 16.2587 2.97268C15.0215 1.89793 13.4217 1.3341 11.784 1.3956C10.1463 1.4571 8.59336 2.13932 7.44021 3.30383L3.40921 7.33583C3.32381 7.42123 3.20799 7.46921 3.08721 7.46921C2.96644 7.46921 2.85061 7.42123 2.76521 7.33583C2.67981 7.25043 2.63184 7.13461 2.63184 7.01383C2.63184 6.89306 2.67981 6.77723 2.76521 6.69183L6.79621 2.66083C8.11388 1.33834 9.88461 0.565586 11.7503 0.498852C13.616 0.432118 15.4374 1.07638 16.8462 2.30136C18.255 3.52633 19.146 5.24059 19.3391 7.09746C19.5321 8.95433 19.0129 10.8152 17.8862 12.3038L17.8752 12.3178L11.9752 20.5298C11.5865 21.1353 11.0527 21.6341 10.4222 21.9808C9.8697 22.2813 9.258 22.4569 8.63025 22.4953C8.00249 22.5336 7.37396 22.4338 6.78897 22.2029C6.20398 21.9719 5.67677 21.6155 5.24452 21.1586C4.81226 20.7018 4.48548 20.1557 4.28721 19.5588L4.28421 19.5578Z" fill="#001A34"/>
</g>
</svg>
