<svg width="22" height="23" viewBox="0 0 22 23" fill="none" xmlns="http://www.w3.org/2000/svg">
<g id="id_14">
<path id="Path 1137" d="M22 10.956C22 11.4485 21.903 11.9361 21.7145 12.3911C21.5261 12.8461 21.2499 13.2595 20.9017 13.6077C20.5534 13.9559 20.14 14.2321 19.6851 14.4206C19.2301 14.609 18.7425 14.706 18.25 14.706C17.7575 14.706 17.2699 14.609 16.8149 14.4206C16.36 14.2321 15.9466 13.9559 15.5983 13.6077C15.2501 13.2595 14.9739 12.8461 14.7855 12.3911C14.597 11.9361 14.5 11.4485 14.5 10.956V9.20204C13.9854 9.47959 13.5429 9.87378 13.208 10.353C12.764 10.9823 12.5309 11.736 12.542 12.506V22.162C12.542 22.2225 12.518 22.2805 12.4752 22.3233C12.4325 22.366 12.3745 22.39 12.314 22.39C12.2535 22.39 12.1955 22.366 12.1528 22.3233C12.11 22.2805 12.086 22.2225 12.086 22.162V12.515C12.0744 11.6494 12.3353 10.8021 12.832 10.093C13.1743 9.60238 13.6176 9.19052 14.132 8.88505C13.5485 8.56156 13.0453 8.11073 12.66 7.56604C12.1939 6.90499 11.9184 6.12848 11.8639 5.32144C11.8094 4.5144 11.9778 3.70791 12.3508 2.99014C12.7237 2.27238 13.2869 1.671 13.9787 1.25176C14.6704 0.832513 15.4641 0.611555 16.273 0.613045C17.7918 0.614369 19.2481 1.21845 20.3218 2.29261C21.3956 3.36678 21.9992 4.82321 22 6.34204V10.956ZM6.5 6.45604C6.47889 6.40526 6.47702 6.34852 6.49474 6.29645C6.51247 6.24439 6.54857 6.20057 6.59629 6.17322C6.644 6.14587 6.70005 6.13685 6.75394 6.14787C6.80782 6.15888 6.85584 6.18916 6.889 6.23304C7.01392 6.44988 7.11069 6.68175 7.177 6.92304C7.24314 7.16416 7.27677 7.41302 7.277 7.66304C7.27633 7.8401 7.26027 8.01677 7.229 8.19104C7.94626 7.85007 8.52623 7.2753 8.87365 6.56114C9.22107 5.84699 9.31528 5.03591 9.14081 4.26113C8.96633 3.48635 8.53355 2.79395 7.91354 2.29764C7.29354 1.80134 6.52318 1.53065 5.729 1.53004C4.45247 1.53163 3.22868 2.03944 2.32603 2.94208C1.42339 3.84472 0.915588 5.06851 0.914 6.34504V10.959C0.914 11.712 1.21311 12.4341 1.74552 12.9665C2.27794 13.4989 3.00005 13.798 3.753 13.798C4.50595 13.798 5.22806 13.4989 5.76048 12.9665C6.29289 12.4341 6.592 11.712 6.592 10.959V9.51705C6.54215 9.57689 6.48907 9.63398 6.433 9.68804C6.16708 9.95455 5.8511 10.1659 5.50324 10.3099C5.15538 10.4538 4.78248 10.5276 4.406 10.527C4.34553 10.527 4.28754 10.503 4.24478 10.4603C4.20202 10.4175 4.178 10.3595 4.178 10.299C4.178 10.2386 4.20202 10.1806 4.24478 10.1378C4.28754 10.0951 4.34553 10.071 4.406 10.071C4.86844 10.0719 5.32131 9.93941 5.71042 9.68952C6.09953 9.43964 6.40838 9.08291 6.6 8.66204C6.61208 8.60781 6.63339 8.55606 6.663 8.50904C6.78838 8.17641 6.83879 7.82019 6.81061 7.46583C6.78243 7.11146 6.67637 6.76769 6.5 6.45904V6.45604ZM9.911 22.162C9.911 22.2225 9.88698 22.2805 9.84422 22.3233C9.80146 22.366 9.74347 22.39 9.683 22.39C9.62253 22.39 9.56454 22.366 9.52178 22.3233C9.47902 22.2805 9.455 22.2225 9.455 22.162V12.506C9.46644 11.7361 9.23363 10.9824 8.79 10.353C8.45566 9.87402 8.01388 9.47985 7.5 9.20204V10.956C7.5 11.9506 7.10491 12.9044 6.40165 13.6077C5.69839 14.311 4.74456 14.706 3.75 14.706C2.75544 14.706 1.80161 14.311 1.09835 13.6077C0.395088 12.9044 0 11.9506 0 10.956L0 6.34204C0.000794898 4.82286 0.60464 3.36613 1.67886 2.29191C2.75309 1.21768 4.20982 0.613839 5.729 0.613045C6.70673 0.613662 7.65654 0.939107 8.42919 1.53824C9.20185 2.13738 9.75354 2.97624 9.99759 3.92302C10.2416 4.8698 10.1642 5.87083 9.77747 6.76882C9.39073 7.66681 8.7166 8.41085 7.861 8.88404C8.37478 9.19038 8.81784 9.60209 9.161 10.092C9.6592 10.8003 9.92035 11.6482 9.907 12.514V22.161L9.911 22.162ZM15.113 6.23304C15.1278 6.20724 15.1475 6.1846 15.171 6.16641C15.1945 6.14822 15.2214 6.13485 15.2501 6.12705C15.2788 6.11925 15.3087 6.11718 15.3382 6.12095C15.3677 6.12472 15.3962 6.13427 15.422 6.14904C15.4478 6.16382 15.4704 6.18353 15.4886 6.20705C15.5068 6.23058 15.5202 6.25745 15.528 6.28615C15.5358 6.31484 15.5379 6.34479 15.5341 6.37428C15.5303 6.40378 15.5208 6.43224 15.506 6.45804C15.329 6.76656 15.2222 7.1103 15.1931 7.4648C15.1641 7.8193 15.2136 8.17584 15.338 8.50904C15.3686 8.55553 15.39 8.60748 15.401 8.66204C15.5924 9.08245 15.9008 9.43886 16.2893 9.68871C16.6778 9.93856 17.1301 10.0713 17.592 10.071C17.6525 10.071 17.7105 10.0951 17.7532 10.1378C17.796 10.1806 17.82 10.2386 17.82 10.299C17.82 10.3595 17.796 10.4175 17.7532 10.4603C17.7105 10.503 17.6525 10.527 17.592 10.527C17.2155 10.5276 16.8426 10.4538 16.4948 10.3099C16.1469 10.1659 15.8309 9.95455 15.565 9.68804C15.511 9.63404 15.457 9.57705 15.406 9.51705V10.959C15.406 11.3319 15.4794 11.701 15.6221 12.0455C15.7648 12.3899 15.9739 12.7029 16.2375 12.9665C16.5012 13.2301 16.8141 13.4393 17.1586 13.5819C17.503 13.7246 17.8722 13.798 18.245 13.798C18.6178 13.798 18.987 13.7246 19.3314 13.5819C19.6759 13.4393 19.9888 13.2301 20.2525 12.9665C20.5161 12.7029 20.7252 12.3899 20.8679 12.0455C21.0106 11.701 21.084 11.3319 21.084 10.959V6.34204C21.0832 5.06517 20.5759 3.84076 19.6734 2.93749C18.7709 2.03423 17.5469 1.5259 16.27 1.52404C15.4758 1.52465 14.7055 1.79534 14.0855 2.29164C13.4655 2.78795 13.0327 3.48035 12.8582 4.25513C12.6837 5.02991 12.7779 5.84099 13.1254 6.55514C13.4728 7.2693 14.0527 7.84407 14.77 8.18504C14.6919 7.76388 14.7094 7.33057 14.821 6.91704C14.8865 6.67672 14.9847 6.44655 15.113 6.23304Z" fill="#001A34"/>
</g>
</svg>
