<svg width="22" height="23" viewBox="0 0 22 23" fill="none" xmlns="http://www.w3.org/2000/svg">
<g id="id_16">
<path id="Vector" d="M21.1657 4.85062C21.2102 4.80388 21.2636 4.76652 21.3228 4.74074C21.382 4.71496 21.4457 4.70129 21.5102 4.70052C21.5747 4.69975 21.6388 4.7119 21.6985 4.73626C21.7583 4.76061 21.8126 4.79668 21.8582 4.84234C21.9039 4.888 21.9399 4.94234 21.9643 5.00215C21.9886 5.06196 22.0007 5.12602 22 5.19059C21.9992 5.25516 21.9855 5.31894 21.9598 5.37815C21.934 5.43735 21.8967 5.4908 21.85 5.53536L12.1678 15.224H14.0355C14.7865 15.226 15.5304 15.079 16.2242 14.7914C16.918 14.5038 17.5479 14.0814 18.0775 13.5486L21.165 10.4591C21.2095 10.4123 21.2629 10.375 21.3221 10.3492C21.3813 10.3234 21.445 10.3097 21.5095 10.309C21.574 10.3082 21.6381 10.3203 21.6978 10.3447C21.7576 10.369 21.8119 10.4051 21.8575 10.4508C21.9032 10.4964 21.9392 10.5508 21.9636 10.6106C21.9879 10.6704 22 10.7345 21.9993 10.799C21.9985 10.8636 21.9848 10.9273 21.9591 10.9866C21.9333 11.0458 21.896 11.0992 21.8493 11.1438L18.7618 14.2333C18.1412 14.8545 17.4044 15.3472 16.5934 15.6834C15.7825 16.0195 14.9133 16.1925 14.0355 16.1924H12.168L14.144 18.1696C14.2346 18.2605 14.2855 18.3836 14.2855 18.512C14.2855 18.6404 14.2346 18.7635 14.144 18.8544L10.6414 22.3592L10.64 22.3578C10.5953 22.4025 10.5422 22.4379 10.4838 22.462C10.4253 22.4861 10.3627 22.4984 10.2995 22.4982H4.73733C4.63842 22.5068 4.53924 22.4848 4.45326 22.4351C4.36728 22.3854 4.29865 22.3105 4.2567 22.2205C4.21474 22.1304 4.20149 22.0296 4.21874 21.9318C4.23599 21.834 4.2829 21.7438 4.35311 21.6736L10.6538 15.3685L10.6599 15.3624L18.8758 7.1408C18.2469 5.66346 17.2469 4.37395 15.973 3.39742C15.7632 3.99254 15.3743 4.50802 14.8598 4.87291C14.3453 5.23781 13.7304 5.43418 13.0998 5.43504C13.037 5.43309 12.9774 5.40675 12.9336 5.36159C12.8899 5.31643 12.8654 5.25599 12.8654 5.1931C12.8654 5.13021 12.8899 5.0698 12.9336 5.02464C12.9774 4.97949 13.037 4.95315 13.0998 4.95119C13.6553 4.95146 14.1958 4.77091 14.6397 4.4368C15.0836 4.10268 15.4069 3.63312 15.5607 3.09901C14.1464 2.13099 12.4926 1.57222 10.7814 1.4842V9.15716H13.6289C13.8195 9.15683 14.0071 9.10952 14.1751 9.01942C14.3432 8.92932 14.4864 8.79921 14.5922 8.64056C14.6981 8.48191 14.7632 8.29961 14.7819 8.10978C14.8006 7.91996 14.7723 7.72845 14.6995 7.55217C14.6408 7.41168 14.5552 7.284 14.4476 7.17634C14.4022 7.13097 14.3768 7.06945 14.3768 7.00529C14.3768 6.94112 14.4022 6.8796 14.4476 6.83423C14.4929 6.78886 14.5544 6.76335 14.6185 6.76335C14.6826 6.76335 14.7441 6.78886 14.7895 6.83423C15.019 7.06427 15.1752 7.35719 15.2384 7.67601C15.3016 7.99483 15.269 8.32524 15.1446 8.62552C15.0203 8.9258 14.8098 9.18247 14.5398 9.36313C14.2698 9.54378 13.9523 9.64033 13.6275 9.64055H10.7812V14.4258C10.7812 14.5543 10.7302 14.6776 10.6394 14.7684C10.5485 14.8593 10.4254 14.9103 10.297 14.9103C10.1685 14.9103 10.0454 14.8593 9.95454 14.7684C9.86373 14.6776 9.81271 14.5543 9.81271 14.4258V10.7631C9.54177 10.9463 9.22218 11.044 8.89519 11.0437H4.91634C4.85812 11.4335 4.66203 11.7893 4.36373 12.0466C4.06543 12.3039 3.68474 12.4455 3.29092 12.4457C3.2281 12.4437 3.16851 12.4174 3.12476 12.3722C3.08102 12.3271 3.05655 12.2667 3.05655 12.2038C3.05655 12.1409 3.08102 12.0805 3.12476 12.0353C3.16851 11.9901 3.2281 11.9638 3.29092 11.9618C3.59823 11.9616 3.8929 11.8394 4.11013 11.6218C4.32737 11.4043 4.4494 11.1094 4.4494 10.8019C4.4494 10.4944 4.32737 10.1994 4.11013 9.98192C3.8929 9.76441 3.59823 9.64213 3.29092 9.64195C3.2268 9.64195 3.16531 9.61646 3.11997 9.57109C3.07463 9.52572 3.04915 9.46417 3.04915 9.40001C3.04915 9.33585 3.07463 9.27432 3.11997 9.22895C3.16531 9.18358 3.2268 9.15807 3.29092 9.15807C3.68494 9.15817 4.06582 9.29993 4.36417 9.55748C4.66251 9.81503 4.85847 10.1712 4.91634 10.5612H8.89519C9.04744 10.5615 9.19823 10.5316 9.33887 10.4732C9.4795 10.4149 9.60719 10.3292 9.71456 10.2212C9.74933 10.1863 9.78188 10.1493 9.81201 10.1104V8.23947H8.89519C8.41847 8.2393 7.95314 8.09372 7.56123 7.82214C7.16932 7.55056 6.86946 7.16587 6.70162 6.71939C6.65488 6.73833 6.60417 6.75587 6.55462 6.7706C6.40475 6.81447 6.24944 6.83692 6.09329 6.83726C5.65748 6.83707 5.23958 6.66374 4.93142 6.35538C4.62326 6.04702 4.45005 5.62885 4.44987 5.19276C4.45182 5.1299 4.47815 5.07027 4.52328 5.0265C4.5684 4.98273 4.62879 4.95824 4.69164 4.95824C4.75449 4.95824 4.81487 4.98273 4.86 5.0265C4.90512 5.07027 4.93145 5.1299 4.93341 5.19276C4.93341 5.50027 5.05544 5.79521 5.27267 6.01272C5.48991 6.23024 5.78457 6.35251 6.09189 6.35269C6.2026 6.3526 6.31276 6.33687 6.41907 6.30593C6.52141 6.27578 6.61903 6.23147 6.7091 6.17427C6.73399 6.15635 6.76232 6.14375 6.7923 6.13731C6.85472 6.1228 6.92033 6.13372 6.97472 6.16762C7.02911 6.20152 7.06782 6.25564 7.08233 6.3181C7.17828 6.72676 7.40942 7.09099 7.73824 7.35168C8.06706 7.61237 8.47427 7.75423 8.89378 7.75423H9.81061V1.48186C8.284 1.5613 6.80032 2.01509 5.49019 2.80326C4.18007 3.59144 3.08367 4.68983 2.29754 6.00173C1.51141 7.31364 1.05965 8.79884 0.982038 10.3265C0.904425 11.8542 1.20334 13.3776 1.85246 14.7625H3.28835C3.73718 14.7637 4.17835 14.6461 4.56719 14.4218C4.61393 14.3956 4.65857 14.3673 4.70227 14.3378C4.70905 14.3332 4.71559 14.3285 4.72237 14.3245C5.04383 14.1067 5.31181 13.8189 5.50622 13.4826C5.52199 13.4549 5.54307 13.4307 5.56825 13.4112C5.59344 13.3917 5.62222 13.3774 5.65296 13.3691C5.68369 13.3607 5.71577 13.3586 5.74734 13.3627C5.77891 13.3669 5.80934 13.3772 5.8369 13.3932C5.86445 13.4091 5.88858 13.4304 5.90789 13.4557C5.9272 13.4811 5.94132 13.51 5.94942 13.5408C5.95752 13.5716 5.95946 13.6037 5.95511 13.6353C5.95076 13.6668 5.94022 13.6972 5.92408 13.7247C5.72331 14.0711 5.4566 14.3748 5.13907 14.6185C5.33732 15.078 5.66572 15.4693 6.0837 15.7441C6.50168 16.0189 6.99094 16.1652 7.49108 16.165C7.5552 16.165 7.6167 16.1905 7.66204 16.2358C7.70738 16.2812 7.73285 16.3428 7.73285 16.4069C7.73285 16.4711 7.70738 16.5326 7.66204 16.578C7.6167 16.6234 7.5552 16.6488 7.49108 16.6488C6.91036 16.6486 6.3418 16.4824 5.85238 16.1696C5.36296 15.8568 4.97308 15.4106 4.72868 14.8834C4.2859 15.1226 3.79056 15.2476 3.28742 15.2471H2.09552C2.13642 15.3231 2.17872 15.3982 2.22172 15.473C3.04382 16.8942 4.22633 18.0731 5.64971 18.8904C5.75928 18.955 5.83901 19.0601 5.87161 19.1831C5.90421 19.3061 5.88706 19.437 5.82388 19.5474C5.76069 19.6578 5.65657 19.7389 5.53406 19.773C5.41156 19.8071 5.28056 19.7916 5.16945 19.7297C3.76792 18.925 2.57546 17.8014 1.68859 16.4498C0.801726 15.0982 0.245384 13.5566 0.0646083 11.9499C-0.116167 10.3431 0.0837041 8.71635 0.648041 7.20126C1.21238 5.68618 2.12532 4.32534 3.31295 3.22896C4.50059 2.13258 5.92954 1.33146 7.48411 0.890447C9.03869 0.449433 10.6752 0.380926 12.2611 0.690473C13.8471 1.00002 15.3379 1.67891 16.6129 2.6722C17.8879 3.66549 18.9113 4.94528 19.6001 6.40791L21.1589 4.84805L21.1657 4.85062ZM11.4748 20.1556H7.23891L5.86145 21.5339H10.0974L11.4748 20.1556ZM7.72315 19.671H11.9591L13.1182 18.5111L11.0006 16.3921L7.72385 19.671H7.72315Z" fill="black"/>
</g>
</svg>
