<svg width="22" height="23" viewBox="0 0 22 23" fill="none" xmlns="http://www.w3.org/2000/svg">
<g id="id_17">
<path id="Path 1164" d="M8.30765 15.6017H3.74265C3.62527 15.5962 3.51452 15.5457 3.4334 15.4607C3.35228 15.3757 3.30702 15.2627 3.30702 15.1452C3.30702 15.0277 3.35228 14.9147 3.4334 14.8297C3.51452 14.7447 3.62527 14.6942 3.74265 14.6887H13.6296C14.5579 14.6887 15.4481 14.3199 16.1045 13.6636C16.7609 13.0072 17.1296 12.117 17.1296 11.1887V6.23269C17.1296 5.30444 16.7609 4.4142 16.1045 3.75782C15.4481 3.10144 14.5579 2.7327 13.6296 2.7327C13.3228 2.73298 13.0174 2.77264 12.7206 2.8507C12.4348 2.92378 12.1606 3.03619 11.9056 3.1847C11.8366 3.23004 11.7566 3.25592 11.6741 3.25961C11.5916 3.26329 11.5096 3.24465 11.4368 3.20564C11.364 3.16663 11.3031 3.1087 11.2605 3.03796C11.2179 2.96722 11.1951 2.88628 11.1946 2.80369V0.959695C11.1918 0.897949 11.2014 0.836259 11.2231 0.778356C11.2447 0.720453 11.2779 0.667541 11.3205 0.622822C11.3632 0.578103 11.4145 0.542506 11.4713 0.518185C11.5282 0.493863 11.5893 0.481323 11.6511 0.481323C11.713 0.481323 11.7741 0.493863 11.831 0.518185C11.8878 0.542506 11.9391 0.578103 11.9818 0.622822C12.0244 0.667541 12.0576 0.720453 12.0792 0.778356C12.1009 0.836259 12.1105 0.897949 12.1076 0.959695V2.09369C12.2296 2.04669 12.3576 2.00869 12.4886 1.97169C13.1423 1.79546 13.8278 1.77221 14.4919 1.90377C15.1559 2.03533 15.7808 2.31814 16.3179 2.73027C16.855 3.1424 17.2899 3.67275 17.5888 4.28016C17.8878 4.88757 18.0427 5.5557 18.0416 6.23269V11.1807C18.0426 11.7596 17.9291 12.333 17.7077 12.8679C17.4863 13.4028 17.1614 13.8887 16.7516 14.2977C16.6152 14.4334 16.4706 14.5606 16.3186 14.6787H18.2676C18.5867 14.6787 18.9026 14.7415 19.1974 14.8636C19.4921 14.9857 19.76 15.1647 19.9856 15.3903C20.2112 15.6159 20.3901 15.8837 20.5122 16.1785C20.6343 16.4732 20.6971 16.7892 20.6971 17.1082C20.6971 17.4272 20.6343 17.7432 20.5122 18.0379C20.3901 18.3327 20.2112 18.6005 19.9856 18.8261C19.76 19.0517 19.4921 19.2307 19.1974 19.3528C18.9026 19.4749 18.5867 19.5377 18.2676 19.5377H13.5546C13.9015 19.9688 14.091 20.5054 14.0916 21.0587V22.0477C14.0916 22.1676 14.044 22.2825 13.9593 22.3673C13.8745 22.4521 13.7595 22.4997 13.6396 22.4997H11.6626C11.5428 22.4997 11.4278 22.4521 11.343 22.3673C11.2583 22.2825 11.2106 22.1676 11.2106 22.0477V21.5157H8.36665C7.90862 21.5159 7.45986 21.3866 7.0722 21.1427C6.68454 20.8987 6.3738 20.5501 6.17585 20.137C5.9779 19.724 5.90082 19.2634 5.95352 18.8084C6.00621 18.3534 6.18653 17.9226 6.47365 17.5657H3.75665C3.11231 17.5657 2.49435 17.3097 2.03873 16.8541C1.58311 16.3985 1.32715 15.7805 1.32715 15.1362C1.32715 14.4919 1.58311 13.8739 2.03873 13.4183C2.49435 12.9627 3.11231 12.7067 3.75665 12.7067H7.05665C7.63624 12.7054 8.19158 12.4739 8.60057 12.0632C9.00956 11.6526 9.23871 11.0963 9.23765 10.5167V0.959695C9.24314 0.84232 9.29364 0.731571 9.37865 0.650449C9.46366 0.569327 9.57664 0.524067 9.69415 0.524067C9.81165 0.524067 9.92464 0.569327 10.0097 0.650449C10.0947 0.731571 10.1452 0.84232 10.1506 0.959695V10.5167C10.151 10.9225 10.0714 11.3243 9.91632 11.6993C9.76122 12.0742 9.5337 12.4149 9.24678 12.7018C8.95986 12.9887 8.61918 13.2163 8.24422 13.3714C7.86927 13.5265 7.46741 13.6061 7.06165 13.6057H3.76165C3.35706 13.6057 2.96904 13.7664 2.68296 14.0525C2.39687 14.3386 2.23615 14.7266 2.23615 15.1312C2.23615 15.5358 2.39687 15.9238 2.68296 16.2099C2.96904 16.496 3.35706 16.6567 3.76165 16.6567H18.2816C18.399 16.6622 18.5098 16.7127 18.5909 16.7977C18.672 16.8827 18.7173 16.9957 18.7173 17.1132C18.7173 17.2307 18.672 17.3437 18.5909 17.4287C18.5098 17.5137 18.399 17.5642 18.2816 17.5697H8.38065C7.97606 17.5697 7.58804 17.7304 7.30196 18.0165C7.01587 18.3026 6.85515 18.6906 6.85515 19.0952C6.85515 19.4998 7.01587 19.8878 7.30196 20.1739C7.58804 20.46 7.97606 20.6207 8.38065 20.6207H11.6806C11.8019 20.6207 11.9181 20.6688 12.0038 20.7545C12.0895 20.8403 12.1376 20.9565 12.1376 21.0777V21.6147H13.2066V21.0777C13.2061 20.6734 13.0453 20.2858 12.7594 19.9999C12.4735 19.7141 12.0859 19.5532 11.6816 19.5527H8.38165C8.26427 19.5472 8.15352 19.4967 8.0724 19.4117C7.99128 19.3267 7.94602 19.2137 7.94602 19.0962C7.94602 18.9787 7.99128 18.8657 8.0724 18.7807C8.15352 18.6957 8.26427 18.6452 8.38165 18.6397H18.2876C18.6922 18.6397 19.0803 18.479 19.3663 18.1929C19.6524 17.9068 19.8131 17.5188 19.8131 17.1142C19.8131 16.7096 19.6524 16.3216 19.3663 16.0355C19.0803 15.7494 18.6922 15.5887 18.2876 15.5887H8.33365L8.30765 15.6017Z" fill="#001A34"/>
</g>
</svg>
