<svg width="22" height="23" viewBox="0 0 22 23" fill="none" xmlns="http://www.w3.org/2000/svg">
<g id="id_24">
<g id="Union">
<path fill-rule="evenodd" clip-rule="evenodd" d="M11.2703 5.17593C11.2703 3.69799 12.4803 2.49988 13.973 2.49988C15.4656 2.49988 16.6757 3.69799 16.6757 5.17593C16.6757 6.65388 15.4656 7.85199 13.973 7.85199C12.4803 7.85199 11.2703 6.65388 11.2703 5.17593ZM13.973 3.5703C13.0774 3.5703 12.3514 4.28917 12.3514 5.17593C12.3514 6.0627 13.0774 6.78157 13.973 6.78157C14.8686 6.78157 15.5946 6.0627 15.5946 5.17593C15.5946 4.28917 14.8686 3.5703 13.973 3.5703Z" fill="#001A34"/>
<path fill-rule="evenodd" clip-rule="evenodd" d="M3.7027 6.78157C2.21004 6.78157 1 7.97968 1 9.45763C1 10.9356 2.21004 12.1337 3.7027 12.1337C5.19536 12.1337 6.40541 10.9356 6.40541 9.45763C6.40541 7.97968 5.19536 6.78157 3.7027 6.78157ZM2.08108 9.45763C2.08108 8.57086 2.80711 7.85199 3.7027 7.85199C4.5983 7.85199 5.32432 8.57086 5.32432 9.45763C5.32432 10.3444 4.5983 11.0633 3.7027 11.0633C2.80711 11.0633 2.08108 10.3444 2.08108 9.45763Z" fill="#001A34"/>
<path fill-rule="evenodd" clip-rule="evenodd" d="M18.2973 6.78157C16.8046 6.78157 15.5946 7.97968 15.5946 9.45763C15.5946 10.9356 16.8046 12.1337 18.2973 12.1337C19.79 12.1337 21 10.9356 21 9.45763C21 7.97968 19.79 6.78157 18.2973 6.78157ZM16.6757 9.45763C16.6757 8.57086 17.4017 7.85199 18.2973 7.85199C19.1929 7.85199 19.9189 8.57086 19.9189 9.45763C19.9189 10.3444 19.1929 11.0633 18.2973 11.0633C17.4017 11.0633 16.6757 10.3444 16.6757 9.45763Z" fill="#001A34"/>
<path fill-rule="evenodd" clip-rule="evenodd" d="M8.02703 2.49988C6.53437 2.49988 5.32432 3.69799 5.32432 5.17593C5.32432 6.65388 6.53437 7.85199 8.02703 7.85199C9.51969 7.85199 10.7297 6.65388 10.7297 5.17593C10.7297 3.69799 9.51969 2.49988 8.02703 2.49988ZM6.40541 5.17593C6.40541 4.28917 7.13143 3.5703 8.02703 3.5703C8.92262 3.5703 9.64865 4.28917 9.64865 5.17593C9.64865 6.0627 8.92262 6.78157 8.02703 6.78157C7.13143 6.78157 6.40541 6.0627 6.40541 5.17593Z" fill="#001A34"/>
<path d="M11 13.2041C11.1493 13.2041 11.2703 13.3239 11.2703 13.4717V15.8802H13.7027C13.852 15.8802 13.973 16 13.973 16.1478C13.973 16.2956 13.852 16.4154 13.7027 16.4154H11.2703V18.8238C11.2703 18.9716 11.1493 19.0914 11 19.0914C10.8507 19.0914 10.7297 18.9716 10.7297 18.8238V16.4154H8.2973C8.14803 16.4154 8.02703 16.2956 8.02703 16.1478C8.02703 16 8.14803 15.8802 8.2973 15.8802H10.7297V13.4717C10.7297 13.3239 10.8507 13.2041 11 13.2041Z" fill="#001A34"/>
<path fill-rule="evenodd" clip-rule="evenodd" d="M8.14853 10.0325C9.66262 8.19322 12.5003 8.19322 14.0144 10.0325L18.4217 15.3864C20.4364 17.8338 18.6776 21.4999 15.4888 21.4999H6.67416C3.48535 21.4999 1.72654 17.8338 3.74122 15.3864L8.14853 10.0325ZM13.1764 10.7088C12.0949 9.39502 10.068 9.39502 8.98651 10.7088L4.57921 16.0627C3.14014 17.8108 4.39644 20.4295 6.67416 20.4295H15.4888C17.7665 20.4295 19.0228 17.8108 17.5837 16.0627L13.1764 10.7088Z" fill="#001A34"/>
</g>
</g>
</svg>
