<svg width="22" height="23" viewBox="0 0 22 23" fill="none" xmlns="http://www.w3.org/2000/svg">
<g id="id_29" clip-path="url(#clip0_1341_19094)">
<g id="Group">
<g id="Group_2">
<path id="Vector" d="M10.7629 18.1338C7.54756 18.1338 4.94141 15.5277 4.94141 12.3123C4.94141 11.0938 5.92294 10.0785 7.17525 10.0785C8.42756 10.0785 9.4091 11.06 9.4091 12.3123C9.4091 13.0569 10.0183 13.6662 10.7629 13.6662C11.9814 13.6662 12.9968 14.6477 12.9968 15.9C12.9968 17.1523 11.9814 18.1338 10.7629 18.1338ZM7.17525 10.5523C6.19371 10.5523 5.41525 11.3646 5.41525 12.3123C5.41525 15.2569 7.81833 17.66 10.7629 17.66C11.7445 17.66 12.5229 16.8477 12.5229 15.9C12.5229 14.9523 11.7106 14.14 10.7629 14.14C9.78141 14.14 8.9691 13.3277 8.9691 12.3123C8.93525 11.3308 8.15679 10.5523 7.17525 10.5523Z" fill="black"/>
</g>
<g id="Group_3">
<path id="Vector_2" d="M12.1512 8.89384C10.9327 8.89384 9.95117 7.9123 9.95117 6.69384C9.95117 5.47537 10.9327 4.49384 12.1512 4.49384C13.3696 4.49384 14.3512 5.47537 14.3512 6.69384C14.3512 7.9123 13.3358 8.89384 12.1512 8.89384ZM12.1512 4.96768C11.2035 4.96768 10.425 5.74614 10.425 6.69384C10.425 7.64153 11.2035 8.41999 12.1512 8.41999C13.0989 8.41999 13.8773 7.64153 13.8773 6.69384C13.8773 5.74614 13.0989 4.96768 12.1512 4.96768Z" fill="black"/>
</g>
<g id="Group_4">
<path id="Vector_3" d="M16.8215 11.2631C16.6861 11.2631 16.5846 11.2292 16.483 11.1277C16.4492 11.0939 16.4153 11.0262 16.3815 10.9923C16.3477 10.9246 16.3477 10.8908 16.3477 10.8231C16.3477 10.6877 16.3815 10.5862 16.483 10.4846C16.5169 10.4508 16.5169 10.4508 16.5507 10.4169C16.5846 10.3831 16.6184 10.3831 16.6184 10.3831C16.6523 10.3831 16.6861 10.3492 16.6861 10.3492C16.7538 10.3492 16.8215 10.3492 16.8553 10.3492C16.8892 10.3492 16.923 10.3492 16.9569 10.3831C16.9907 10.3831 17.0246 10.4169 17.0246 10.4169C17.0584 10.4508 17.0584 10.4508 17.0923 10.4846C17.1938 10.5862 17.2277 10.6877 17.2277 10.8231C17.2277 10.8908 17.2277 10.9585 17.1938 10.9923C17.16 11.06 17.1261 11.0939 17.0923 11.1277C17.0584 11.1616 16.9907 11.1954 16.9569 11.2292C16.9569 11.2631 16.8892 11.2631 16.8215 11.2631Z" fill="black"/>
</g>
<g id="Group_5">
<path id="Vector_4" d="M16.1451 15.6292C16.0097 15.6292 15.9082 15.5954 15.8405 15.4938C15.8066 15.46 15.7728 15.3923 15.7389 15.3585C15.7051 15.2908 15.7051 15.2569 15.7051 15.1892C15.7051 15.0538 15.7389 14.9523 15.8405 14.8508C15.942 14.7492 16.1112 14.6815 16.2466 14.7154C16.2805 14.7154 16.3143 14.7154 16.3482 14.7492C16.382 14.7492 16.4158 14.7831 16.4158 14.7831C16.4497 14.7831 16.4497 14.8169 16.4835 14.8508C16.5174 14.8846 16.5174 14.8846 16.5512 14.9185C16.5851 14.9523 16.5851 14.9861 16.5851 14.9861C16.5851 15.02 16.5851 15.0538 16.5851 15.0538C16.5851 15.0877 16.5851 15.1215 16.5851 15.1554C16.5851 15.2231 16.5851 15.2569 16.5512 15.3246C16.5174 15.3923 16.4835 15.4261 16.4497 15.46C16.382 15.5615 16.2805 15.6292 16.1451 15.6292Z" fill="black"/>
</g>
<g id="Group_6">
<path id="Vector_5" d="M6.43121 7.40462C6.36352 7.40462 6.29583 7.40462 6.26198 7.37077C6.19429 7.33692 6.16044 7.30308 6.1266 7.26923C6.02506 7.16769 5.99121 7.06616 5.99121 6.93077C5.99121 6.79539 6.02506 6.69385 6.1266 6.59231C6.16044 6.55846 6.16044 6.55846 6.19429 6.52462C6.22813 6.49077 6.26198 6.49077 6.26198 6.49077C6.29583 6.49077 6.32967 6.45692 6.36352 6.45692C6.4989 6.42308 6.66813 6.49077 6.76967 6.59231C6.83736 6.69385 6.90506 6.79539 6.90506 6.93077C6.90506 7.06616 6.87121 7.16769 6.76967 7.26923C6.73583 7.30308 6.66813 7.33692 6.63429 7.37077C6.5666 7.40462 6.4989 7.40462 6.43121 7.40462Z" fill="black"/>
</g>
<g id="Group_7">
<path id="Vector_6" d="M11 22.5C4.94154 22.5 0 17.5585 0 11.5C0 5.44154 4.94154 0.5 11 0.5C17.0585 0.5 22 5.44154 22 11.5C22 13.5646 21.4246 15.5615 20.3415 17.3215C20.2062 17.5246 19.9354 17.5923 19.6985 17.4569C19.4954 17.3215 19.4277 17.0508 19.5631 16.8138C20.5446 15.2231 21.0862 13.3615 21.0862 11.5C21.0862 5.94923 16.5508 1.41385 11 1.41385C5.44923 1.41385 0.913846 5.94923 0.913846 11.5C0.913846 17.0508 5.44923 21.5862 11 21.5862C12.9969 21.5862 14.9262 21.0108 16.5846 19.8938C16.7877 19.7585 17.0923 19.8262 17.2277 20.0292C17.3631 20.2323 17.2954 20.5369 17.0923 20.6723C15.2985 21.8569 13.1662 22.5 11 22.5Z" fill="black"/>
</g>
</g>
</g>
<defs>
<clipPath id="clip0_1341_19094">
<rect width="22" height="22" fill="white" transform="translate(0 0.5)"/>
</clipPath>
</defs>
</svg>
