<svg width="22" height="23" viewBox="0 0 22 23" fill="none" xmlns="http://www.w3.org/2000/svg">
<g id="id_23">
<path id="Vector" fill-rule="evenodd" clip-rule="evenodd" d="M6.99465 14.2818C7.83733 14.6298 8.73961 14.8111 9.65141 14.8157C9.66527 14.8171 9.67912 14.8177 9.69298 14.8177H15.9735C16.1116 14.8177 16.244 14.8725 16.3416 14.9701C16.4393 15.0677 16.4942 15.2 16.4942 15.338C16.4942 15.4759 16.4393 15.6083 16.3416 15.7058C16.244 15.8034 16.1116 15.8582 15.9735 15.8582H8.37276C8.05478 15.8582 7.73992 15.9207 7.44614 16.0423C7.15236 16.1639 6.88541 16.3421 6.66057 16.5668C6.43572 16.7915 6.25738 17.0582 6.1357 17.3518C6.01403 17.6453 5.95145 17.96 5.95147 18.2777C5.95159 18.8588 6.18252 19.4161 6.59364 19.8271C7.00476 20.2382 7.5624 20.4693 8.14396 20.4697L10.993 20.4666C10.9992 20.4666 11.0059 20.4666 11.013 20.4666C11.4922 20.4668 11.9518 20.6571 12.2907 20.9957C12.6295 21.3344 12.8199 21.7936 12.82 22.2725C12.82 22.3329 12.844 22.3908 12.8867 22.4335C12.9295 22.4762 12.9875 22.5002 13.0479 22.5002C13.1083 22.5002 13.1662 22.4762 13.2089 22.4335C13.2516 22.3908 13.2757 22.3329 13.2757 22.2725C13.2757 21.6727 13.0372 21.0975 12.6128 20.6734C12.1884 20.2492 11.6128 20.0109 11.0125 20.0109C11.0055 20.0109 10.9989 20.0109 10.9916 20.0109L8.60179 20.014C8.50329 20.014 8.40573 19.9945 8.31476 19.9568C8.22378 19.9191 8.14112 19.8638 8.07155 19.7941C8.05571 19.7783 8.04126 19.7618 8.02762 19.7455C7.91472 19.6109 7.85278 19.4409 7.85284 19.2652C7.85284 19.1273 7.90776 18.995 8.00538 18.8974C8.103 18.7999 8.23536 18.7451 8.37341 18.7451H15.9744C16.8793 18.7451 17.7472 18.3859 18.3871 17.7465C19.0269 17.1071 19.3864 16.2399 19.3864 15.3357C19.3864 14.4314 19.0269 13.5642 18.3871 12.9248C17.7472 12.2855 16.8793 11.9262 15.9744 11.9262H9.69362C9.01577 11.9271 8.348 11.7625 7.74821 11.4469C7.14843 11.1314 6.63482 10.6743 6.25193 10.1153C5.86904 9.5564 5.62838 8.91252 5.55101 8.23961C5.47363 7.56669 5.5618 6.88508 5.80785 6.25393C6.0539 5.62279 6.45043 5.0612 6.96296 4.61791C7.47548 4.17462 8.08858 3.86304 8.74896 3.71021C9.40933 3.55738 10.097 3.56792 10.7524 3.74092C11.4077 3.91392 12.0109 4.24415 12.5096 4.70294L12.5561 4.74689C12.5576 4.74888 12.5595 4.75059 12.5616 4.75195L12.579 4.76713C12.8627 5.01009 13.2295 5.13387 13.6025 5.11254C13.9755 5.0912 14.3257 4.92641 14.5798 4.65269C14.8339 4.37897 14.9721 4.01759 14.9655 3.6443C14.9588 3.27101 14.8077 2.91479 14.5439 2.65034L14.5072 2.61627C13.7523 1.912 12.8519 1.38197 11.8695 1.06365C10.887 0.745322 9.84663 0.646453 8.82179 0.774042C7.79694 0.901632 6.81269 1.25257 5.93848 1.80203C5.06427 2.3515 4.32152 3.08611 3.76265 3.95394C3.20377 4.82177 2.84237 5.80164 2.70411 6.82434C2.56585 7.84704 2.65405 8.88762 2.96246 9.87252C3.27087 10.8574 3.79195 11.7626 4.48893 12.5242C5.1859 13.2857 6.04171 13.8851 6.99594 14.2798L6.99465 14.2818ZM12.0107 9.40914C12.5963 9.99412 13.3422 10.3925 14.1543 10.5539C14.9664 10.7152 15.8083 10.6324 16.5732 10.3158C17.3382 9.99916 17.9921 9.46302 18.4522 8.77512C18.9122 8.08722 19.1579 7.27844 19.158 6.45105C19.158 6.42115 19.1521 6.39155 19.1406 6.36393C19.1292 6.33631 19.1124 6.31122 19.0912 6.29009C19.07 6.26896 19.045 6.25221 19.0173 6.24078C18.9897 6.22936 18.96 6.2235 18.9301 6.22353H11.013C10.9831 6.22353 10.9535 6.22941 10.9259 6.24085C10.8982 6.25229 10.8732 6.26906 10.8521 6.29019C10.8309 6.31132 10.8142 6.33639 10.8028 6.364C10.7913 6.3916 10.7854 6.42118 10.7855 6.45105C10.7847 7.00055 10.8927 7.54479 11.1032 8.05245C11.3137 8.5601 11.6226 9.02116 12.012 9.40914H12.0107ZM14.9709 10.1786C14.0209 10.1788 13.1066 9.81678 12.4145 9.16643C11.7224 8.51608 11.3047 7.62636 11.2466 6.6788H18.6943C18.636 7.6263 18.2182 8.51592 17.5262 9.16624C16.8341 9.81657 15.9199 10.1786 14.9699 10.1786H14.9709ZM7.3051 17.2111C7.44531 17.0707 7.61195 16.9594 7.79537 16.8835C7.97879 16.8077 8.17534 16.7688 8.37384 16.7692H15.9742C16.354 16.7692 16.7182 16.6184 16.9868 16.3501C17.2554 16.0817 17.4063 15.7177 17.4063 15.3382C17.4063 14.9587 17.2554 14.5947 16.9868 14.3263C16.7182 14.0579 16.354 13.9072 15.9742 13.9072H9.69362C9.6802 13.9072 9.66783 13.9072 9.65441 13.9092C8.65434 13.9029 7.67099 13.6529 6.78958 13.1806C5.90817 12.7084 5.15545 12.0284 4.59678 11.1995C4.03811 10.3706 3.69038 9.41797 3.58379 8.42431C3.47719 7.43066 3.61496 6.42602 3.98512 5.49765C4.35528 4.56928 4.94662 3.74524 5.70784 3.09708C6.46906 2.44892 7.37707 1.99624 8.35311 1.77835C9.32914 1.56046 10.3437 1.58395 11.3086 1.84678C12.2735 2.10961 13.1596 2.60385 13.89 3.28655C13.8926 3.28994 13.8956 3.29309 13.8988 3.29599C13.9968 3.39346 14.0532 3.52504 14.0562 3.66318C14.0593 3.80131 14.0088 3.93529 13.9152 4.03702C13.8216 4.13875 13.6924 4.20036 13.5544 4.20893C13.4164 4.2175 13.2804 4.17238 13.175 4.083C12.5726 3.51522 11.8403 3.10339 11.042 2.88347C10.2437 2.66355 9.40367 2.64222 8.59523 2.82134C7.7868 3.00047 7.03458 3.3746 6.40415 3.91108C5.77372 4.44757 5.28427 5.13009 4.97855 5.89908C4.67284 6.66807 4.56012 7.50014 4.65027 8.32266C4.74043 9.14519 5.03075 9.93317 5.49579 10.6178C5.96083 11.3024 6.58651 11.8629 7.3182 12.2503C8.0499 12.6377 8.86534 12.8403 9.69341 12.8403H15.9739C16.633 12.8465 17.2631 13.1125 17.727 13.5803C18.1908 14.0482 18.4511 14.6802 18.4511 15.3388C18.4511 15.9975 18.1908 16.6295 17.727 17.0973C17.2631 17.5652 16.633 17.8312 15.9739 17.8374H8.37362C8.05967 17.8373 7.75443 17.9403 7.5048 18.1306C7.25516 18.3209 7.07502 18.5878 6.99207 18.8904C6.86876 18.6118 6.83258 18.3024 6.88841 18.0029C6.94424 17.7034 7.08945 17.4277 7.30488 17.2122L7.3051 17.2111Z" fill="black"/>
</g>
</svg>
