<svg width="22" height="23" viewBox="0 0 22 23" fill="none" xmlns="http://www.w3.org/2000/svg">
<g id="id_21">
<path id="Path 1165" d="M2.9481 6.02206C2.88635 6.02495 2.82466 6.01528 2.76676 5.99365C2.70886 5.97201 2.65594 5.93885 2.61123 5.89618C2.56651 5.8535 2.53091 5.8022 2.50659 5.74537C2.48227 5.68854 2.46973 5.62737 2.46973 5.56556C2.46973 5.50375 2.48227 5.44257 2.50659 5.38575C2.53091 5.32892 2.56651 5.27762 2.61123 5.23494C2.65594 5.19227 2.70886 5.15911 2.76676 5.13747C2.82466 5.11583 2.88635 5.10617 2.9481 5.10906H10.6701L13.7161 2.06306H9.9961V4.24306C9.99899 4.30481 9.98932 4.3665 9.96769 4.4244C9.94605 4.4823 9.91289 4.53521 9.87022 4.57993C9.82754 4.62465 9.77624 4.66025 9.71941 4.68457C9.66258 4.70889 9.60141 4.72143 9.5396 4.72143C9.47779 4.72143 9.41661 4.70889 9.35979 4.68457C9.30296 4.66025 9.25166 4.62465 9.20898 4.57993C9.16631 4.53521 9.13315 4.4823 9.11151 4.4244C9.08987 4.3665 9.08021 4.30481 9.0831 4.24306V2.06206H6.9011C6.83935 2.06495 6.77766 2.05528 6.71976 2.03365C6.66186 2.01201 6.60894 1.97885 6.56423 1.93618C6.51951 1.8935 6.48391 1.8422 6.45959 1.78537C6.43527 1.72854 6.42273 1.66737 6.42273 1.60556C6.42273 1.54375 6.43527 1.48258 6.45959 1.42575C6.48391 1.36892 6.51951 1.31762 6.56423 1.27494C6.60894 1.23227 6.66186 1.19911 6.71976 1.17747C6.77766 1.15583 6.83935 1.14617 6.9011 1.14906H14.8111C14.8849 1.14948 14.9575 1.16729 15.0231 1.20106C15.0231 1.20106 15.0231 1.20106 15.0321 1.20106C15.0321 1.20106 15.0461 1.21006 15.0511 1.21506C15.0742 1.2342 15.0962 1.25457 15.1171 1.27606C15.1171 1.27606 15.1171 1.27606 15.1171 1.28506C15.118 1.288 15.118 1.29112 15.1171 1.29406C15.1171 1.29406 15.1171 1.29406 15.1171 1.30306C15.1171 1.30306 15.1171 1.30306 15.1171 1.31206C15.1201 1.31506 15.1231 1.31806 15.1261 1.32106C15.1291 1.32406 15.1321 1.32706 15.1351 1.33006C15.1398 1.33473 15.1444 1.33939 15.1491 1.34406C15.1491 1.34406 15.1491 1.34406 15.1491 1.35306C15.1491 1.35306 15.1491 1.35306 15.1491 1.36206C15.1491 1.36206 15.1491 1.36206 15.1491 1.37106C15.1491 1.37106 15.1491 1.37106 15.1491 1.38006C15.1633 1.40798 15.1727 1.43805 15.1771 1.46906L19.4101 17.2691C19.4413 17.3852 19.425 17.509 19.3649 17.6132C19.3048 17.7174 19.2058 17.7934 19.0896 17.8246C18.9734 17.8557 18.8496 17.8395 18.7455 17.7794C18.6413 17.7193 18.5653 17.6202 18.5341 17.5041L17.8561 14.9761H13.8521L15.5281 21.2241C15.5435 21.2816 15.5475 21.3416 15.5397 21.4006C15.532 21.4597 15.5127 21.5166 15.4829 21.5682C15.4531 21.6198 15.4135 21.665 15.3663 21.7013C15.319 21.7375 15.2651 21.7641 15.2076 21.7796C15.1501 21.795 15.0901 21.7989 15.031 21.7912C14.972 21.7834 14.9151 21.7641 14.8635 21.7344C14.8119 21.7046 14.7667 21.665 14.7304 21.6177C14.6941 21.5705 14.6675 21.5166 14.6521 21.4591L13.9741 18.9691H6.0321V21.3801C6.03499 21.4418 6.02532 21.5035 6.00369 21.5614C5.98205 21.6193 5.94889 21.6722 5.90622 21.7169C5.86354 21.7617 5.81224 21.7973 5.75541 21.8216C5.69858 21.8459 5.63741 21.8584 5.5756 21.8584C5.51379 21.8584 5.45261 21.8459 5.39579 21.8216C5.33896 21.7973 5.28766 21.7617 5.24498 21.7169C5.20231 21.6722 5.16915 21.6193 5.14751 21.5614C5.12587 21.5035 5.11621 21.4418 5.1191 21.3801V6.01306H2.9381L2.9481 6.02206ZM11.3661 5.70206L13.7391 14.5691H17.8121L14.5771 2.49106L11.3661 5.70206ZM9.9961 14.5691H12.8011L10.5141 6.02206H10.0011V14.5691H9.9961ZM12.9201 15.0261H9.9961V17.4371C9.99899 17.4988 9.98932 17.5605 9.96769 17.6184C9.94605 17.6763 9.91289 17.7292 9.87022 17.7739C9.82754 17.8187 9.77624 17.8542 9.71941 17.8786C9.66258 17.9029 9.60141 17.9154 9.5396 17.9154C9.47779 17.9154 9.41661 17.9029 9.35979 17.8786C9.30296 17.8542 9.25166 17.8187 9.20898 17.7739C9.16631 17.7292 9.13315 17.6763 9.11151 17.6184C9.08987 17.5605 9.08021 17.4988 9.0831 17.4371V6.02706H6.0361V18.5271H13.8561L12.9191 15.0271L12.9201 15.0261Z" fill="#001A34"/>
</g>
</svg>
