<svg width="22" height="23" viewBox="0 0 22 23" fill="none" xmlns="http://www.w3.org/2000/svg">
<g id="id_28">
<path id="Vector" d="M10.3829 9.65797L10.3829 10.9958C10.3829 11.2894 10.4995 11.5709 10.7071 11.7785C10.9147 11.9861 11.1962 12.1027 11.4898 12.1027C11.7834 12.1027 12.0649 11.9861 12.2725 11.7785C12.4801 11.5709 12.5967 11.2894 12.5967 10.9958L12.5967 9.65797C12.5967 9.3644 12.4801 9.08287 12.2725 8.87529C12.0649 8.66771 11.7834 8.55109 11.4898 8.55109C11.1962 8.55109 10.9147 8.66771 10.7071 8.87529C10.4995 9.08287 10.3829 9.3644 10.3829 9.65797ZM15.0667 18.9996C15.0571 18.9949 15.0478 18.9895 15.039 18.9835C14.7287 18.8012 14.467 18.5468 14.2761 18.2418C14.0852 17.9367 13.9707 17.5902 13.9424 17.2315C13.5692 17.1769 13.2281 16.9901 12.9812 16.7051C12.7342 16.4202 12.5979 16.056 12.5969 15.6789L12.5969 14.3411C12.5969 13.925 12.7622 13.526 13.0564 13.2318C13.3506 12.9376 13.7496 12.7723 14.1656 12.7723C14.5817 12.7723 14.9807 12.9376 15.2749 13.2318C15.5691 13.526 15.7344 13.925 15.7344 14.3411L15.7344 15.6789C15.7334 16.0534 15.5989 16.4152 15.3551 16.6994C15.1114 16.9836 14.7742 17.1716 14.4043 17.2297C14.4315 17.5081 14.5242 17.7761 14.6748 18.0119C14.8254 18.2476 15.0296 18.4444 15.2708 18.5861C15.2806 18.591 15.29 18.5966 15.299 18.6028C15.8052 18.9003 16.1741 19.3849 16.3261 19.9521C16.4782 20.5193 16.4011 21.1234 16.1115 21.6342C16.1064 21.6448 16.1007 21.6551 16.0943 21.665C15.9982 21.8289 15.8816 21.9798 15.7473 22.114C15.609 22.2526 15.4528 22.3721 15.2829 22.4693C15.2567 22.4844 15.2278 22.4942 15.1978 22.4981C15.1678 22.502 15.1374 22.4999 15.1082 22.4921C15.079 22.4842 15.0517 22.4707 15.0277 22.4522C15.0037 22.4338 14.9837 22.4108 14.9686 22.3846C14.9535 22.3584 14.9437 22.3295 14.9398 22.2995C14.9359 22.2696 14.938 22.2391 14.9458 22.2099C14.9537 22.1807 14.9672 22.1534 14.9857 22.1294C15.0041 22.1055 15.0271 22.0854 15.0533 22.0703C15.3234 21.9143 15.5475 21.6897 15.7029 21.4193C15.9368 21.0136 16.0011 20.5318 15.8817 20.0789C15.7623 19.6261 15.4689 19.2386 15.0653 19.0009L15.0667 18.9996ZM13.0582 14.3404L13.0582 15.6782C13.0582 15.9718 13.1748 16.2534 13.3824 16.461C13.59 16.6686 13.8716 16.7852 14.1652 16.7852C14.4588 16.7852 14.7404 16.6686 14.948 16.461C15.1556 16.2534 15.2722 15.9718 15.2722 15.6782L15.2722 14.3404C15.2722 14.0468 15.1556 13.7652 14.948 13.5576C14.7404 13.35 14.4588 13.2334 14.1652 13.2334C13.8716 13.2334 13.59 13.35 13.3824 13.5576C13.1748 13.7652 13.0582 14.0468 13.0582 14.3404ZM11.7192 19.3665C11.7183 19.4275 11.6931 19.4856 11.6493 19.528C11.6055 19.5705 11.5467 19.5938 11.4857 19.5929C11.4247 19.5919 11.3666 19.5668 11.3241 19.523C11.2816 19.4792 11.2583 19.4203 11.2593 19.3593C11.2649 19.0407 11.1854 18.7263 11.029 18.4486C10.8732 18.1727 10.6462 17.9439 10.3715 17.786C10.0358 17.5934 9.75619 17.3165 9.56033 16.9826C9.55374 16.9728 9.54792 16.9625 9.54292 16.9518C9.25336 16.441 9.17627 15.8368 9.32829 15.2697C9.4803 14.7025 9.84924 14.2179 10.3555 13.9204C10.3645 13.9142 10.3739 13.9086 10.3836 13.9036C10.6526 13.7463 10.875 13.5203 11.0281 13.2489C11.1499 13.0329 11.2254 12.794 11.2499 12.5473C10.935 12.4977 10.6425 12.3539 10.411 12.1348C10.1795 11.9157 10.0198 11.6316 9.9531 11.3199C9.61889 11.2589 9.28868 11.1777 8.96427 11.0768C8.96048 11.0755 8.956 11.0744 8.95198 11.073C8.74935 11.0095 8.5503 10.939 8.35481 10.8615L8.35236 10.8602C8.32468 10.8492 8.29656 10.8378 8.26889 10.8269L8.2555 10.8211C8.23809 10.814 8.22023 10.8064 8.20283 10.7988C8.19524 10.7957 8.18744 10.7923 8.17918 10.7892C8.16378 10.7827 8.14838 10.7756 8.13231 10.7693L8.09259 10.7519C8.07965 10.7461 8.06693 10.7403 8.05421 10.7352C8.04149 10.73 8.02653 10.7229 8.01314 10.7167C7.99975 10.7104 7.99195 10.7071 7.98168 10.7026C7.97141 10.6981 7.95467 10.6903 7.94128 10.6841C7.9386 10.6827 7.93549 10.6814 7.93281 10.6803C7.92522 10.6772 7.91807 10.6731 7.91048 10.67C7.89129 10.6611 7.87255 10.6519 7.85336 10.643C7.84622 10.6399 7.83931 10.6365 7.83216 10.6328C7.8123 10.6232 7.79311 10.6142 7.77369 10.6046L7.75963 10.5975C7.73843 10.5872 7.71723 10.5763 7.69626 10.566L7.68867 10.5622C7.66501 10.5499 7.64113 10.5386 7.61747 10.5263L7.61301 10.5238C7.58935 10.5116 7.56503 10.4988 7.54116 10.4866C7.01046 10.2073 6.51083 9.87265 6.05065 9.48814C5.5228 9.04728 5.05014 8.54427 4.64294 7.99004C3.57289 6.53493 2.99711 4.77531 3.00001 2.96911C3.00088 2.25404 3.09084 1.54188 3.26781 0.849058C3.28271 0.790518 3.30899 0.735487 3.34516 0.687107C3.38133 0.638725 3.42667 0.597935 3.4786 0.56708C3.53053 0.536222 3.58804 0.515903 3.64783 0.507271C3.70761 0.498636 3.76851 0.501863 3.82705 0.516766C3.88559 0.531668 3.94062 0.557947 3.989 0.594118C4.03738 0.630287 4.07816 0.675642 4.10901 0.727573C4.13987 0.779503 4.1602 0.837 4.16884 0.896786C4.17747 0.956572 4.17425 1.01747 4.15934 1.07601C3.80135 2.46333 3.84455 3.92377 4.28393 5.2875C4.72331 6.65123 5.54082 7.86221 6.64137 8.7796C6.94415 9.03216 7.26601 9.26091 7.60408 9.46381L7.60855 9.4665C7.62529 9.47676 7.6418 9.48636 7.65854 9.49596C7.66814 9.50176 7.67773 9.50755 7.68732 9.51269C7.69692 9.51782 7.71098 9.52676 7.72325 9.53323C7.73553 9.5397 7.74245 9.54416 7.75205 9.54997C7.76164 9.55577 7.77325 9.56156 7.78351 9.56781L7.82456 9.59013C7.83104 9.59393 7.8373 9.59728 7.84377 9.60107C7.85984 9.61 7.87522 9.61848 7.89129 9.62673L7.90536 9.63454C7.92455 9.6448 7.94374 9.65507 7.96249 9.66533L7.97141 9.67047C7.9906 9.68074 8.00979 9.691 8.02965 9.7006L8.03479 9.70305C8.41631 9.89885 8.81388 10.0617 9.22313 10.1898L9.23474 10.1936C9.4579 10.2629 9.68515 10.3224 9.9165 10.3721L9.9165 9.65797C9.91643 9.29202 10.0449 8.93768 10.2796 8.65686C9.44896 8.47994 8.66712 8.12334 7.98897 7.61211C7.31082 7.10088 6.75279 6.44741 6.35406 5.69757C5.95533 4.94773 5.72556 4.1197 5.6809 3.27161C5.63623 2.42352 5.77774 1.57593 6.0955 0.788349C6.11824 0.732168 6.15182 0.681026 6.19433 0.637827C6.23684 0.594625 6.28746 0.560213 6.34326 0.536569C6.39907 0.512924 6.45898 0.500513 6.51958 0.500025C6.58019 0.499534 6.6403 0.510982 6.69648 0.533724C6.75266 0.556465 6.80381 0.590044 6.84701 0.632555C6.89021 0.675064 6.92461 0.725677 6.94826 0.781484C6.9719 0.83729 6.98433 0.897198 6.98481 0.957805C6.9853 1.01841 6.97386 1.07852 6.95112 1.1347C6.83389 1.42409 6.74495 1.72416 6.68555 2.0307C6.54852 2.73844 6.56967 3.46772 6.7475 4.16632C6.92533 4.86492 7.25543 5.51556 7.71417 6.07164C8.17291 6.62772 8.74893 7.07548 9.40099 7.38287C10.0531 7.69026 10.765 7.84965 11.4859 7.84965C12.2068 7.84965 12.9187 7.69026 13.5708 7.38287C14.2229 7.07548 14.7989 6.62772 15.2576 6.07164C15.7164 5.51556 16.0465 4.86492 16.2243 4.16632C16.4021 3.46772 16.4233 2.73844 16.2863 2.0307C16.2269 1.72416 16.1379 1.42409 16.0207 1.1347C15.9748 1.02124 15.9758 0.894189 16.0235 0.781484C16.0713 0.668779 16.1619 0.579652 16.2753 0.533723C16.3888 0.487794 16.5158 0.488817 16.6285 0.536569C16.7412 0.584321 16.8304 0.674888 16.8763 0.788349C17.0161 1.13366 17.122 1.49174 17.1925 1.85753C17.2635 2.22358 17.2993 2.59557 17.2996 2.96844C17.2993 4.30092 16.8416 5.5929 16.0029 6.62836C15.1643 7.66382 13.9955 8.37997 12.6922 8.65708C12.9267 8.93796 13.0553 9.29227 13.0553 9.6582L13.0553 10.3723C13.2887 10.3229 13.5179 10.2634 13.7429 10.1938C13.7518 10.19 13.7614 10.1866 13.771 10.1835C15.3034 9.69797 16.6412 8.73693 17.5906 7.43978C18.54 6.14263 19.0515 4.57679 19.051 2.96933C19.0515 2.64969 19.0322 2.33033 18.9932 2.01308C18.9538 1.69716 18.8941 1.38409 18.8147 1.07579C18.7998 1.01725 18.7965 0.956352 18.8052 0.896566C18.8138 0.83678 18.8342 0.779271 18.865 0.727342C18.8959 0.675411 18.9366 0.630067 18.985 0.593898C19.0334 0.557727 19.0884 0.531448 19.147 0.516546C19.2055 0.501643 19.2664 0.498418 19.3262 0.507053C19.386 0.515685 19.4435 0.536004 19.4954 0.566861C19.5473 0.597717 19.5927 0.638492 19.6289 0.686874C19.665 0.735254 19.6913 0.790284 19.7062 0.848825C20.2474 2.95189 19.9626 5.18235 18.9105 7.08201C17.8583 8.98168 16.1186 10.4063 14.0488 11.0632C14.0386 11.0663 14.0283 11.069 14.018 11.0715C13.6909 11.1735 13.3578 11.2554 13.0207 11.317C12.9536 11.6314 12.7919 11.9177 12.5573 12.1376C12.3228 12.3575 12.0266 12.5004 11.7085 12.547C11.6798 12.9058 11.5651 13.2523 11.3741 13.5573C11.1831 13.8622 10.9214 14.1167 10.6112 14.2991C10.6024 14.3051 10.5931 14.3104 10.5835 14.3152C10.1799 14.5528 9.8865 14.9403 9.76709 15.3932C9.64769 15.8461 9.71198 16.3278 9.94596 16.7336C10.0239 16.8684 10.1189 16.9925 10.2287 17.1029C10.3382 17.2124 10.4615 17.3071 10.5956 17.3846C10.9421 17.5845 11.2286 17.8736 11.4254 18.2218C11.6222 18.5701 11.722 18.9647 11.7145 19.3647L11.7192 19.3665ZM9.94461 2.96888C9.94476 3.32597 10.0687 3.67198 10.2954 3.94794C10.522 4.22389 10.8373 4.41274 11.1876 4.4823C11.5378 4.55185 11.9014 4.49782 12.2162 4.3294C12.5311 4.16099 12.7779 3.88861 12.9145 3.55867C13.0511 3.22873 13.069 2.86164 12.9653 2.51993C12.8616 2.17823 12.6426 1.88304 12.3457 1.68468C12.0488 1.48632 11.6923 1.39704 11.3369 1.43205C10.9815 1.46707 10.6493 1.62422 10.3967 1.87672C10.2534 2.02018 10.1398 2.19052 10.0623 2.37797C9.98489 2.56541 9.9443 2.76607 9.94461 2.96888ZM9.74377 4.71446C9.34032 4.31061 9.08934 3.77938 9.03359 3.21126C8.97783 2.64313 9.12077 2.07325 9.43802 1.59866C9.75526 1.12408 10.2272 0.77416 10.7735 0.608488C11.3198 0.442814 11.9066 0.471632 12.434 0.690048C12.9614 0.908462 13.3968 1.30296 13.666 1.80635C13.9353 2.30974 14.0216 2.89089 13.9105 3.45082C13.7993 4.01075 13.4975 4.51482 13.0564 4.87719C12.6153 5.23956 12.0622 5.4378 11.4914 5.43818C11.1669 5.43866 10.8456 5.37499 10.5459 5.25082C10.2461 5.12666 9.97394 4.94445 9.74489 4.71468L9.74377 4.71446Z" fill="black"/>
</g>
</svg>
