<svg width="22" height="23" viewBox="0 0 22 23" fill="none" xmlns="http://www.w3.org/2000/svg">
<g id="id_22">
<g id="Group 822">
<path id="Path 1116" d="M4.70028 7.0957L6.58628 8.9597L6.61228 8.9857C7.39456 9.76483 7.83859 10.8207 7.84828 11.9247V11.9597V21.5917H12.2103V15.8287C12.2097 15.7667 12.2219 15.7053 12.2459 15.6482C12.27 15.5911 12.3055 15.5396 12.3503 15.4967L12.7083 15.1387L18.8163 9.0307C18.8591 8.98787 18.9172 8.96381 18.9778 8.96381C19.0384 8.96381 19.0964 8.98787 19.1393 9.0307C19.1821 9.07354 19.2062 9.13163 19.2062 9.1922C19.2062 9.25278 19.1821 9.31087 19.1393 9.3537L13.1223 15.3707V22.0427C13.1223 22.1631 13.0744 22.2786 12.9893 22.3637C12.9042 22.4489 12.7887 22.4967 12.6683 22.4967H7.39228C7.27187 22.4967 7.15639 22.4489 7.07125 22.3637C6.98611 22.2786 6.93828 22.1631 6.93828 22.0427V11.9557V11.9247C6.93483 11.5031 6.84888 11.0863 6.68528 10.6977C6.5169 10.2966 6.27239 9.93184 5.96528 9.6237L5.94328 9.6017L4.05228 7.7337L4.03928 7.7187L4.03028 7.7117C3.24653 6.91819 2.80842 5.84691 2.81154 4.73159C2.81466 3.61628 3.25877 2.54747 4.04695 1.75836C4.83514 0.969247 5.90343 0.52389 7.01874 0.519459C8.13405 0.515028 9.20585 0.951882 10.0003 1.7347L10.0263 1.7607L10.0523 1.7347C10.6457 1.13697 11.4048 0.730884 12.2313 0.568909C13.0579 0.406934 13.9141 0.496507 14.6893 0.826058C15.4644 1.15561 16.123 1.71 16.5798 2.41762C17.0367 3.12525 17.271 3.95361 17.2523 4.7957C17.25 4.91611 17.2 5.03069 17.1133 5.11424C17.0266 5.19779 16.9102 5.24346 16.7898 5.2412C16.6694 5.23895 16.5548 5.18896 16.4712 5.10222C16.3877 5.01548 16.342 4.89911 16.3443 4.7787C16.3578 4.11908 16.1738 3.47049 15.8157 2.91631C15.4577 2.36213 14.9421 1.92771 14.3353 1.66889C13.7284 1.41007 13.058 1.3387 12.4102 1.46394C11.7624 1.58919 11.1669 1.90532 10.7003 2.3717C10.6353 2.4367 10.5823 2.4937 10.5383 2.5417C10.4943 2.5897 10.4383 2.6597 10.3943 2.7167C10.3807 2.73763 10.3646 2.75677 10.3463 2.7737C10.314 2.80524 10.2773 2.83186 10.2373 2.8527C10.2373 2.8527 10.2373 2.8527 10.2283 2.8527C10.2283 2.8527 10.2283 2.8527 10.2193 2.8527C10.1654 2.87512 10.1077 2.887 10.0493 2.8877H10.0273C9.96894 2.88658 9.91131 2.87471 9.85728 2.8527C9.85728 2.8527 9.85728 2.8527 9.84828 2.8527H9.83928C9.83928 2.8527 9.83928 2.8527 9.83028 2.8527C9.78667 2.83167 9.74681 2.80363 9.71228 2.7697C9.69397 2.75277 9.67785 2.73363 9.66428 2.7127C9.62028 2.6557 9.57228 2.5987 9.52028 2.5377C9.46828 2.4767 9.42028 2.4377 9.35828 2.3677C8.73648 1.74511 7.89282 1.39502 7.0129 1.39446C6.13298 1.3939 5.28887 1.7429 4.66628 2.3647C4.04368 2.9865 3.6936 3.83016 3.69303 4.71008C3.69247 5.59 4.04148 6.43411 4.66328 7.0567L4.68528 7.0787L4.70028 7.0957ZM9.60028 13.3187C9.55745 13.3615 9.49935 13.3856 9.43878 13.3856C9.3782 13.3856 9.32011 13.3615 9.27728 13.3187C9.23445 13.2759 9.21038 13.2178 9.21038 13.1572C9.21038 13.0966 9.23445 13.0385 9.27728 12.9957L16.4253 5.8477C16.4681 5.80487 16.5262 5.78081 16.5868 5.78081C16.6474 5.78081 16.7054 5.80487 16.7483 5.8477C16.7911 5.89054 16.8152 5.94863 16.8152 6.0092C16.8152 6.06978 16.7911 6.12787 16.7483 6.1707L9.60028 13.3187ZM18.0003 7.0707C18.0431 7.02787 18.1012 7.00381 18.1618 7.00381C18.2224 7.00381 18.2804 7.02787 18.3233 7.0707C18.3661 7.11354 18.3902 7.17163 18.3902 7.2322C18.3902 7.29278 18.3661 7.35087 18.3233 7.3937L10.9943 14.7187C10.9731 14.7399 10.9479 14.7567 10.9202 14.7682C10.8925 14.7797 10.8628 14.7856 10.8328 14.7856C10.8028 14.7856 10.7731 14.7797 10.7454 14.7682C10.7177 14.7567 10.6925 14.7399 10.6713 14.7187C10.6501 14.6975 10.6332 14.6723 10.6218 14.6446C10.6103 14.6169 10.6044 14.5872 10.6044 14.5572C10.6044 14.5272 10.6103 14.4975 10.6218 14.4698C10.6332 14.4421 10.6501 14.4169 10.6713 14.3957L18.0003 7.0707ZM14.6233 4.8517C14.6445 4.8305 14.6697 4.81367 14.6974 4.80219C14.7251 4.79072 14.7548 4.78481 14.7848 4.78481C14.8148 4.78481 14.8445 4.79072 14.8722 4.80219C14.8999 4.81367 14.9251 4.8305 14.9463 4.8517C14.9675 4.87291 14.9843 4.89809 14.9958 4.9258C15.0073 4.95351 15.0132 4.98321 15.0132 5.0132C15.0132 5.0432 15.0073 5.0729 14.9958 5.10061C14.9843 5.12832 14.9675 5.1535 14.9463 5.1747L8.77628 11.3447C8.73345 11.3875 8.67535 11.4116 8.61478 11.4116C8.5542 11.4116 8.49611 11.3875 8.45328 11.3447C8.41045 11.3019 8.38638 11.2438 8.38638 11.1832C8.38638 11.1226 8.41045 11.0645 8.45328 11.0217L14.6233 4.8517ZM9.16028 8.1617C9.11745 8.20454 9.05935 8.2286 8.99878 8.2286C8.9382 8.2286 8.88011 8.20454 8.83728 8.1617C8.79445 8.11887 8.77038 8.06078 8.77038 8.0002C8.77038 7.93963 8.79445 7.88154 8.83728 7.8387L11.4373 5.2387C11.4585 5.2175 11.4837 5.20067 11.5114 5.18919C11.5391 5.17772 11.5688 5.17181 11.5988 5.17181C11.6288 5.17181 11.6585 5.17772 11.6862 5.18919C11.7139 5.20067 11.7391 5.2175 11.7603 5.2387C11.7815 5.25991 11.7983 5.28509 11.8098 5.3128C11.8213 5.34051 11.8272 5.37021 11.8272 5.4002C11.8272 5.4302 11.8213 5.4599 11.8098 5.48761C11.7983 5.51532 11.7815 5.5405 11.7603 5.5617L9.16028 8.1617ZM18.4303 12.2307C18.4731 12.1879 18.5312 12.1638 18.5918 12.1638C18.6218 12.1638 18.6515 12.1697 18.6792 12.1812C18.7069 12.1927 18.7321 12.2095 18.7533 12.2307C18.7745 12.2519 18.7913 12.2771 18.8028 12.3048C18.8143 12.3325 18.8202 12.3622 18.8202 12.3922C18.8202 12.4222 18.8143 12.4519 18.8028 12.4796C18.7913 12.5073 18.7745 12.5325 18.7533 12.5537L16.1533 15.1537C16.1104 15.1965 16.0524 15.2206 15.9918 15.2206C15.9312 15.2206 15.8731 15.1965 15.8303 15.1537C15.7874 15.1109 15.7634 15.0528 15.7634 14.9922C15.7634 14.9316 15.7874 14.8735 15.8303 14.8307L18.4303 12.2307ZM5.96928 9.6417C5.98628 9.6587 6.00028 9.6727 5.96928 9.6417V9.6417ZM6.60628 8.9957C6.63228 9.0177 6.65028 9.0397 6.60628 8.9957V8.9957Z" fill="#001A34"/>
</g>
</g>
</svg>
