<svg width="22" height="23" viewBox="0 0 22 23" fill="none" xmlns="http://www.w3.org/2000/svg">
<g id="id_26">
<path id="Vector" d="M10.8413 8.98997C11.4126 8.98976 11.9662 9.18974 12.4079 9.55586C12.8496 9.92197 13.1521 10.4316 13.2637 10.9978C13.3753 11.564 13.2891 12.1518 13.0199 12.661C12.7507 13.1702 12.3151 13.5693 11.7874 13.7903C11.2596 14.0113 10.6724 14.0406 10.1257 13.8731C9.579 13.7055 9.10676 13.3516 8.78937 12.8715C8.47198 12.3915 8.32916 11.8151 8.38516 11.2406C8.44116 10.6661 8.69251 10.1289 9.09648 9.72072C9.32535 9.48877 9.5973 9.30477 9.89673 9.17937C10.1962 9.05397 10.5172 8.98961 10.8413 8.98997ZM20.2018 17.7748C20.4045 17.7748 20.6009 17.7038 20.7575 17.5739C20.9142 17.444 21.0215 17.2632 21.0611 17.0623C21.1006 16.8615 21.07 16.6529 20.9745 16.4723C20.879 16.2916 20.7244 16.1501 20.5372 16.0717C20.35 15.9933 20.1416 15.9829 19.9477 16.0423C19.7538 16.1018 19.5862 16.2274 19.4736 16.3976C19.361 16.5679 19.3103 16.7724 19.3301 16.9762C19.35 17.1801 19.4392 17.3707 19.5825 17.5155C19.6637 17.5978 19.7603 17.6631 19.8666 17.7075C19.9729 17.752 20.0869 17.7748 20.202 17.7746L20.2018 17.7748ZM21.4727 18.1757C21.1934 18.4581 20.8299 18.6398 20.4384 18.6927C20.0468 18.7457 19.6488 18.6669 19.306 18.4686C17.6228 20.5462 15.2458 21.9298 12.623 22.3587C10.0002 22.7876 7.31281 22.2323 5.0672 20.7972C2.8216 19.3621 1.1729 17.1465 0.431888 14.5679C-0.309128 11.9893 -0.0912516 9.22591 1.04436 6.79841C2.17996 4.37092 4.15487 2.44699 6.59696 1.38931C9.03905 0.331635 11.7796 0.213239 14.3021 1.05639C16.8246 1.89955 18.9549 3.64604 20.2914 5.96671C21.6279 8.28739 22.0783 11.022 21.5578 13.6551C21.4465 14.2189 21.2915 14.773 21.0943 15.3123C21.3343 15.4511 21.5394 15.644 21.6938 15.876C21.8481 16.1079 21.9475 16.3727 21.9841 16.6498C22.0208 16.9268 21.9938 17.2087 21.9052 17.4735C21.8166 17.7383 21.6688 17.9789 21.4733 18.1766L21.4727 18.1757ZM18.9394 18.1867L18.9285 18.1757C18.6486 17.8925 18.4688 17.5239 18.4173 17.127C18.3658 16.7301 18.4453 16.3271 18.6434 15.9806C18.8416 15.634 19.1474 15.3631 19.5133 15.21C19.8793 15.0569 20.285 15.0302 20.6675 15.1338C20.8533 14.6227 20.9994 14.0977 21.1045 13.5636C21.6091 11.0272 21.178 8.39193 19.8926 6.15463C18.6072 3.91733 16.5564 2.23264 14.1266 1.41814C11.6969 0.603643 9.0563 0.71565 6.70267 1.73307C4.34904 2.7505 2.44506 4.60303 1.34972 6.94133C0.254381 9.27963 0.0433913 11.9421 0.75652 14.4268C1.46965 16.9115 3.05763 19.0466 5.22103 20.4297C7.38443 21.8127 9.97374 22.348 12.5008 21.9348C15.0278 21.5215 17.3178 20.1881 18.9392 18.186L18.9394 18.1867ZM10.6544 6.62772C10.7535 6.62749 10.8494 6.59257 10.9258 6.52892C11.0023 6.46527 11.0546 6.37682 11.0738 6.27862C11.0929 6.18042 11.0778 6.07853 11.031 5.99031C10.9842 5.9021 10.9086 5.83302 10.8171 5.79481C10.7255 5.75659 10.6237 5.75161 10.5289 5.78073C10.4341 5.80985 10.3523 5.87126 10.2974 5.9545C10.2424 6.03775 10.2175 6.1377 10.2272 6.23731C10.237 6.33692 10.2806 6.43007 10.3506 6.50086C10.3906 6.54123 10.4382 6.57322 10.4905 6.59499C10.5428 6.61676 10.5988 6.62788 10.6554 6.62772H10.6544ZM11.6113 7.16082C11.449 7.32493 11.248 7.44461 11.0273 7.50854C10.8065 7.57248 10.5732 7.57854 10.3495 7.52625C10.1258 7.47397 9.91893 7.365 9.74835 7.20962C9.57778 7.05423 9.44912 6.85755 9.37451 6.63806C8.18137 6.99792 7.15886 7.7848 6.49822 8.85145C5.83758 9.9181 5.58404 11.1915 5.78516 12.4333C5.98628 13.6752 6.62824 14.8004 7.59089 15.5986C8.55353 16.3967 9.7709 16.813 11.0153 16.7697C12.2597 16.7263 13.4459 16.2263 14.3519 15.3631C15.2579 14.4998 15.8217 13.3326 15.9377 12.0797C16.0537 10.8268 15.7142 9.57409 14.9824 8.55594C14.2507 7.53778 13.1769 6.82394 11.9621 6.54795C11.9006 6.77979 11.7795 6.99111 11.6113 7.1606V7.16082ZM9.30136 6.17548C9.30605 5.82409 9.44441 5.48802 9.68772 5.23695C9.93102 4.98588 10.2606 4.83907 10.6082 4.82701C10.9557 4.81496 11.2944 4.93858 11.5542 5.1722C11.814 5.40582 11.9748 5.7315 12.0034 6.08174C13.3341 6.36929 14.5148 7.13872 15.3231 8.24507C16.1313 9.35143 16.5114 10.7184 16.3916 12.0883C16.2717 13.4581 15.6603 14.7364 14.6725 15.6823C13.6847 16.6282 12.3888 17.1764 11.0288 17.2236C9.66883 17.2707 8.33874 16.8137 7.28912 15.9384C6.2395 15.0632 5.5428 13.8302 5.33033 12.4718C5.11786 11.1135 5.40427 9.7235 6.1356 8.56375C6.86692 7.404 7.99264 6.55454 9.3007 6.17548H9.30136ZM5.16627 18.3733C5.43055 18.3731 5.68658 18.2803 5.89076 18.1108C6.09494 17.9412 6.23464 17.7053 6.28605 17.4433C6.33745 17.1813 6.29742 16.9094 6.17272 16.674C6.04802 16.4385 5.84637 16.254 5.60216 16.1519C5.35795 16.0498 5.08623 16.0364 4.83337 16.114C4.5805 16.1916 4.3621 16.3555 4.21534 16.5776C4.06859 16.7998 4.00256 17.0664 4.02853 17.3322C4.05451 17.598 4.17093 17.8465 4.35785 18.0353C4.46411 18.1426 4.59024 18.2277 4.72907 18.2857C4.86791 18.3437 5.0167 18.3735 5.16692 18.3733H5.16627ZM6.62701 18.695C6.23716 19.0741 5.7158 19.2834 5.17487 19.2782C4.63394 19.273 4.11666 19.0535 3.73406 18.667C3.35146 18.2805 3.13409 17.7579 3.12867 17.2112C3.12324 16.6645 3.33014 16.1375 3.70499 15.7434C3.71235 15.7361 3.71995 15.7282 3.72731 15.7208C2.70649 13.9701 2.35243 11.9033 2.73153 9.90776C3.11063 7.91218 4.19684 6.12483 5.78658 4.8807C7.37632 3.63657 9.36053 3.02109 11.3672 3.14959C13.3738 3.27808 15.2652 4.14176 16.6868 5.57873C18.1084 7.01569 18.9627 8.92729 19.0895 10.9553C19.2164 12.9832 18.6071 14.9884 17.3758 16.5948C16.1445 18.2012 14.3758 19.2987 12.4011 19.6815C10.4265 20.0644 8.38142 19.7062 6.64932 18.6743C6.64219 18.682 6.63459 18.6892 6.62701 18.6968V18.695ZM4.09429 15.4319C4.48968 15.1895 4.95411 15.0881 5.41328 15.144C5.87245 15.1999 6.29983 15.41 6.6269 15.7404C6.95397 16.0709 7.16182 16.5027 7.21727 16.9667C7.27272 17.4308 7.17252 17.9002 6.9327 18.2998C8.5708 19.2589 10.4982 19.583 12.3553 19.2118C14.2125 18.8406 15.8726 17.7995 17.0261 16.2825C18.1797 14.7654 18.7479 12.8762 18.6248 10.967C18.5017 9.0578 17.6956 7.25906 16.3569 5.9062C15.0183 4.55335 13.2385 3.73875 11.3494 3.61431C9.46031 3.48988 7.59094 4.0641 6.08987 5.22991C4.58881 6.39572 3.55855 8.07352 3.19126 9.95039C2.82397 11.8273 3.14468 13.7751 4.09364 15.4306L4.09429 15.4319ZM11.9311 10.3807C11.6786 10.1255 11.3463 9.96665 10.9909 9.93125C10.6355 9.89585 10.279 9.98608 9.98208 10.1865C9.68513 10.387 9.46606 10.6853 9.36232 11.0306C9.25858 11.376 9.2766 11.747 9.41316 12.0804C9.54973 12.4139 9.79642 12.6893 10.1113 12.8595C10.4262 13.0297 10.7898 13.0844 11.1401 13.0141C11.4903 12.9439 11.8056 12.7531 12.0323 12.4742C12.259 12.1953 12.3831 11.8456 12.3833 11.4847C12.3838 11.2797 12.3441 11.0767 12.2666 10.8873C12.1891 10.6978 12.0753 10.5257 11.9317 10.3809L11.9311 10.3807Z" fill="black"/>
</g>
</svg>
