<svg width="22" height="23" viewBox="0 0 22 23" fill="none" xmlns="http://www.w3.org/2000/svg">
<g id="id_25">
<path id="Vector" d="M18.8485 21.4523C18.7253 20.8921 18.4124 20.3902 17.9615 20.0295C17.5106 19.6688 16.9486 19.4709 16.3685 19.4685H5.63307C5.05293 19.4709 4.49098 19.6688 4.04005 20.0295C3.58913 20.3902 3.27621 20.8921 3.15302 21.4523H18.8501H18.8485ZM7.43127 11.3685C7.43127 11.4378 7.40337 11.5044 7.35374 11.5534C7.30412 11.6024 7.23682 11.63 7.16664 11.63C7.09645 11.63 7.02916 11.6024 6.97953 11.5534C6.9299 11.5044 6.902 11.4378 6.902 11.3685C6.90214 10.2945 7.33398 9.26453 8.10252 8.50511C8.87106 7.74568 9.91338 7.319 11.0003 7.31886C11.0704 7.31886 11.1377 7.3464 11.1874 7.39544C11.237 7.44448 11.2649 7.51098 11.2649 7.58033C11.2649 7.64968 11.237 7.71621 11.1874 7.76525C11.1377 7.81429 11.0704 7.84182 11.0003 7.84182C10.0537 7.84182 9.14593 8.21338 8.47661 8.87476C7.80729 9.53614 7.43127 10.4332 7.43127 11.3685ZM4.6761 18.5504C4.45411 18.218 4.33603 17.8284 4.33656 17.4302V11.369C4.33656 10.5043 4.50892 9.64799 4.84382 8.84907C5.17872 8.05015 5.66956 7.32423 6.28837 6.71276C6.90718 6.10129 7.64182 5.61624 8.45033 5.28531C9.25884 4.95439 10.1254 4.78406 11.0005 4.78406C11.8756 4.78406 12.7422 4.95439 13.5507 5.28531C14.3592 5.61624 15.0939 6.10129 15.7127 6.71276C16.3315 7.32423 16.8223 8.05015 17.1572 8.84907C17.4921 9.64799 17.6645 10.5043 17.6645 11.369C17.6645 11.3843 17.6637 11.3995 17.6622 11.4147V17.3847C17.6637 17.3999 17.6645 17.4153 17.6645 17.4304C17.6652 17.8286 17.5471 18.2182 17.3249 18.5504C18.0824 18.7597 18.75 19.2075 19.2264 19.8258C19.7029 20.4441 19.9621 21.1991 19.9648 21.9763C19.9648 22.115 19.9091 22.2481 19.8099 22.3463C19.7106 22.4445 19.576 22.4998 19.4356 22.5H2.56651C2.42596 22.4999 2.29118 22.4447 2.19179 22.3465C2.09241 22.2483 2.03656 22.1152 2.03649 21.9763C2.03907 21.1991 2.29824 20.4441 2.77465 19.8257C3.25106 19.2074 3.91868 18.7596 4.6761 18.5504ZM5.39581 17.4302C5.39578 17.5605 5.42174 17.6895 5.47218 17.8099C5.52263 17.9303 5.59657 18.0397 5.68982 18.1318C5.78306 18.2239 5.89376 18.297 6.01559 18.3469C6.13742 18.3967 6.26799 18.4224 6.39986 18.4223H10.471V14.9232H9.4667C9.32613 14.9232 9.19132 14.868 9.09192 14.7698C8.99253 14.6716 8.93668 14.5384 8.93668 14.3995C8.93668 14.2606 8.99253 14.1274 9.09192 14.0291C9.19132 13.9309 9.32613 13.8757 9.4667 13.8757H12.5348C12.6754 13.8757 12.8102 13.9309 12.9096 14.0291C13.009 14.1274 13.0648 14.2606 13.0648 14.3995C13.0648 14.5384 13.009 14.6716 12.9096 14.7698C12.8102 14.868 12.6754 14.9232 12.5348 14.9232H11.529V18.4223H15.6001C15.732 18.4224 15.8626 18.3967 15.9844 18.3469C16.1062 18.297 16.2169 18.2239 16.3102 18.1318C16.4034 18.0397 16.4774 17.9303 16.5278 17.8099C16.5783 17.6895 16.6042 17.5605 16.6042 17.4302C16.6041 17.4149 16.6049 17.3996 16.6065 17.3844V11.4157C16.6049 11.4005 16.6042 11.3853 16.6042 11.37C16.6042 9.9012 16.0137 8.49257 14.9627 7.45398C13.9116 6.41538 12.486 5.83193 10.9996 5.83193C9.51319 5.83193 8.08764 6.41538 7.03658 7.45398C5.98552 8.49257 5.39506 9.9012 5.39506 11.37V17.4312L5.39581 17.4302ZM1.7987 11.1075C1.86888 11.1075 1.93618 11.135 1.9858 11.1841C2.03543 11.2331 2.06333 11.2997 2.06333 11.369C2.06333 11.4384 2.03543 11.5049 1.9858 11.5539C1.93618 11.6029 1.86888 11.6305 1.7987 11.6305H0.264635C0.194451 11.6305 0.127154 11.6029 0.0775271 11.5539C0.0279001 11.5049 0 11.4384 0 11.369C0 11.2997 0.0279001 11.2331 0.0775271 11.1841C0.127154 11.135 0.194451 11.1075 0.264635 11.1075H1.7987ZM10.952 2.53454C10.8901 2.52465 10.8338 2.49336 10.7932 2.44624C10.7525 2.39913 10.7301 2.33925 10.73 2.27733C10.73 2.26036 10.7317 2.24344 10.7351 2.22681V0.761465C10.7351 0.727126 10.742 0.693143 10.7553 0.661418C10.7686 0.629693 10.7881 0.600858 10.8126 0.576577C10.8372 0.552295 10.8664 0.533033 10.8985 0.519892C10.9306 0.506751 10.965 0.5 10.9998 0.5C11.0345 0.5 11.0689 0.506751 11.101 0.519892C11.1331 0.533033 11.1623 0.552295 11.1869 0.576577C11.2114 0.600858 11.2309 0.629693 11.2442 0.661418C11.2575 0.693143 11.2644 0.727126 11.2644 0.761465V2.22681C11.2678 2.24344 11.2696 2.26036 11.2695 2.27733C11.2688 2.31593 11.2597 2.35394 11.2426 2.38869C11.2256 2.42344 11.2012 2.45409 11.171 2.47856C11.1407 2.50303 11.1055 2.52074 11.0677 2.53041C11.0299 2.54007 10.9904 2.54147 10.952 2.53454ZM16.1399 2.05149C16.1567 2.02099 16.1796 1.99412 16.2071 1.97247C16.2346 1.95082 16.2662 1.93482 16.3 1.92541C16.3339 1.916 16.3693 1.91337 16.4042 1.91767C16.4391 1.92197 16.4727 1.93314 16.5032 1.95048C16.5337 1.96783 16.5603 1.99101 16.5816 2.01867C16.6029 2.04634 16.6183 2.07791 16.6271 2.11156C16.6358 2.14522 16.6377 2.18026 16.6325 2.21463C16.6273 2.249 16.6153 2.28199 16.597 2.31169L15.83 3.62545C15.8134 3.65627 15.7906 3.68346 15.7631 3.70542C15.7356 3.72739 15.7039 3.74366 15.6699 3.75329C15.6359 3.76291 15.6003 3.7657 15.5653 3.76146C15.5302 3.75722 15.4963 3.74607 15.4656 3.72865C15.435 3.71122 15.4082 3.68788 15.3869 3.66003C15.3655 3.63217 15.3501 3.60033 15.3414 3.56646C15.3328 3.53258 15.3311 3.49736 15.3365 3.46283C15.3419 3.42831 15.3543 3.39518 15.3729 3.36547L16.1399 2.05149ZM20.166 5.8381C20.2267 5.80342 20.2988 5.79399 20.3665 5.81185C20.4342 5.82971 20.492 5.87343 20.527 5.93336C20.5621 5.9933 20.5717 6.06455 20.5536 6.13145C20.5355 6.19835 20.4913 6.25542 20.4307 6.29009L19.1011 7.04802C19.0405 7.08216 18.9687 7.0912 18.9014 7.07322C18.8341 7.05524 18.7767 7.01169 18.7418 6.95205C18.7068 6.8924 18.6972 6.8215 18.7149 6.75486C18.7327 6.68821 18.7764 6.63123 18.8365 6.59631L20.166 5.8381ZM20.2013 11.6305C20.1311 11.6305 20.0638 11.6029 20.0142 11.5539C19.9646 11.5049 19.9367 11.4384 19.9367 11.369C19.9367 11.2997 19.9646 11.2331 20.0142 11.1841C20.0638 11.135 20.1311 11.1075 20.2013 11.1075H21.7354C21.8055 11.1075 21.8729 11.135 21.9225 11.1841C21.9721 11.2331 22 11.2997 22 11.369C22 11.4384 21.9721 11.5049 21.9225 11.5539C21.8729 11.6029 21.8055 11.6305 21.7354 11.6305H20.2013ZM5.40324 2.31221C5.38559 2.28254 5.37404 2.24971 5.36928 2.21562C5.36453 2.18152 5.36666 2.14682 5.37552 2.11354C5.38439 2.08025 5.39984 2.04903 5.42097 2.02166C5.44209 1.9943 5.46847 1.97133 5.49862 1.95409C5.52876 1.93685 5.56205 1.92569 5.59659 1.92122C5.63112 1.91674 5.66621 1.91905 5.69983 1.92803C5.73346 1.93701 5.76498 1.95246 5.79253 1.97352C5.82008 1.99458 5.84313 2.02081 5.86038 2.05071L6.62741 3.36448C6.66254 3.42442 6.67212 3.49568 6.65407 3.5626C6.63601 3.62953 6.59181 3.68663 6.53116 3.72134C6.4705 3.75605 6.39839 3.76551 6.33066 3.74767C6.26293 3.72984 6.20515 3.68613 6.17002 3.62619L5.40324 2.31221ZM1.56961 6.29059C1.50948 6.25567 1.46577 6.19868 1.44802 6.13204C1.43026 6.06539 1.43992 5.99449 1.47486 5.93484C1.5098 5.8752 1.5672 5.83165 1.63453 5.81367C1.70186 5.79569 1.77366 5.80474 1.83425 5.83887L3.16375 6.5968C3.19401 6.61384 3.22057 6.63662 3.24187 6.66385C3.26318 6.69107 3.27882 6.72222 3.28791 6.75544C3.297 6.78867 3.29937 6.82334 3.29484 6.85746C3.29031 6.89159 3.27899 6.92448 3.26154 6.95427C3.24409 6.98406 3.22085 7.01016 3.19316 7.03103C3.16546 7.05191 3.13386 7.06714 3.10018 7.0759C3.06649 7.08466 3.03141 7.08677 2.9969 7.08207C2.9624 7.07737 2.92915 7.06596 2.89912 7.04852L1.56961 6.29059Z" fill="black"/>
</g>
</svg>
