<svg width="22" height="23" viewBox="0 0 22 23" fill="none" xmlns="http://www.w3.org/2000/svg">
<g id="id_27">
<path id="Vector" d="M1.0967 16.292L1.09866 16.2898L5.92029 11.5111V6.75543H5.40171C5.26601 6.75543 5.13587 6.70089 5.03992 6.6038C4.94396 6.50671 4.89004 6.37503 4.89004 6.23773C4.89004 6.10042 4.94396 5.96873 5.03992 5.87164C5.13587 5.77455 5.26601 5.72 5.40171 5.72H6.43297C6.56865 5.72007 6.69876 5.77464 6.79471 5.87171C6.89065 5.96879 6.94458 6.10044 6.94465 6.23773V11.726C6.94462 11.8013 6.92832 11.8757 6.89693 11.9441C6.86554 12.0124 6.81979 12.0729 6.76287 12.1215L3.30885 15.5447H8.39889V3.88625C8.39317 3.81191 8.40346 3.7372 8.42904 3.66727C8.45462 3.59734 8.49488 3.53386 8.54706 3.48121L11.344 0.651254C11.4399 0.554396 11.57 0.5 11.7055 0.5C11.8411 0.5 11.9711 0.554396 12.067 0.651254L21.271 9.96394C21.7378 10.4362 22 11.0768 22 11.7447C22 12.4126 21.7378 13.0532 21.271 13.5255C20.8042 13.9978 20.1711 14.2631 19.511 14.2631C18.8509 14.2631 18.2178 13.9978 17.751 13.5255L11.3852 7.08451V11.5768L16.2167 16.2993C16.2204 16.3028 16.2281 16.3107 16.2402 16.3222C16.2479 16.3292 16.2553 16.3367 16.2622 16.3445C16.2239 16.305 16.2486 16.3307 16.2622 16.3445C16.7502 16.8371 17.0865 17.4624 17.2302 18.1445C17.374 18.8267 17.319 19.5364 17.072 20.1876C16.825 20.8387 16.3965 21.4034 15.8386 21.813C15.2806 22.2227 14.6172 22.4597 13.9288 22.4954C13.9078 22.498 13.8867 22.4992 13.8656 22.4989H13.8238C13.7697 22.5004 13.7159 22.5004 13.6628 22.4989H3.64418C3.59018 22.5002 3.53629 22.5002 3.48245 22.4989H3.44046C3.41934 22.4988 3.39825 22.4976 3.37725 22.4954C2.46553 22.4476 1.60677 22.0474 0.978291 21.3774C0.34981 20.7074 -0.000398892 19.8188 3.40965e-07 18.8951H0.00223106C0.00126533 18.4215 0.0928072 17.9523 0.271605 17.5146C0.450403 17.0769 0.712931 16.6792 1.0441 16.3445C1.05052 16.338 1.08015 16.3077 1.0441 16.3445C1.04706 16.3422 1.0547 16.3345 1.0705 16.3195C1.08631 16.3045 1.09248 16.2973 1.09742 16.293L1.0967 16.292ZM2.78505 16.0629L1.81357 17.0259C1.81063 17.0293 1.8073 17.0324 1.80369 17.0351L1.79926 17.0393L1.76938 17.0688C1.77926 17.0593 1.81335 17.0264 1.76519 17.0746C1.52846 17.313 1.34061 17.5965 1.21246 17.9086C1.0843 18.2207 1.01837 18.5554 1.01841 18.8933H1.02064C1.02007 19.5516 1.26901 20.185 1.71621 20.6631C2.1634 21.1412 2.7748 21.4276 3.42442 21.4632H13.8794C14.3697 21.4359 14.8417 21.2655 15.2385 20.9727C15.6352 20.6798 15.9396 20.2771 16.1151 19.813C16.2905 19.3489 16.3295 18.8434 16.2272 18.3574C16.1249 17.8714 15.8857 17.4258 15.5386 17.0743C15.4877 17.0226 15.5245 17.0593 15.5386 17.0743L15.5223 17.0586L15.5068 17.0436L14.5046 16.0641H2.78357L2.78505 16.0629ZM13.9767 15.5452L10.5441 12.191C10.4865 12.1425 10.4402 12.0818 10.4084 12.0132C10.3766 11.9446 10.3601 11.8697 10.3601 11.794V6.04958L8.90539 4.57762V15.5454L13.9767 15.5452ZM19.1858 9.3188L18.1486 10.3682C18.1249 10.3922 18.0967 10.4113 18.0657 10.4243C18.0347 10.4373 18.0015 10.4439 17.9679 10.4439C17.9344 10.4439 17.9012 10.4373 17.8702 10.4243C17.8392 10.4113 17.811 10.3922 17.7873 10.3682C17.7636 10.3442 17.7448 10.3157 17.7319 10.2844C17.7191 10.253 17.7125 10.2194 17.7125 10.1855C17.7125 10.1515 17.7191 10.1179 17.7319 10.0865C17.7448 10.0552 17.7636 10.0267 17.7873 10.0027L18.8245 8.95325L18.0276 8.14694L16.9904 9.19637C16.9425 9.24484 16.8775 9.27207 16.8098 9.27207C16.742 9.27207 16.677 9.24484 16.6291 9.19637C16.5812 9.14789 16.5543 9.08215 16.5543 9.01359C16.5543 8.94504 16.5812 8.87929 16.6291 8.83081L17.6663 7.78138L16.8694 6.97507L15.8322 8.0245C15.7843 8.07298 15.7193 8.10021 15.6516 8.10021C15.5838 8.10021 15.5189 8.07298 15.471 8.0245C15.4231 7.97603 15.3961 7.91028 15.3961 7.84173C15.3961 7.77317 15.4231 7.70743 15.471 7.65895L16.5081 6.60952L14.0293 4.10163H9.88205L18.4733 12.7944C18.7484 13.0727 19.1215 13.2291 19.5105 13.2291C19.8995 13.2291 20.2726 13.0727 20.5477 12.7944C20.8228 12.5161 20.9773 12.1386 20.9773 11.745C20.9773 11.3514 20.8228 10.9739 20.5477 10.6956L19.1872 9.31904L19.1858 9.3188ZM9.89094 3.58292H13.5169L11.7036 1.74816L9.89046 3.58292H9.89094ZM16.2609 16.3442C16.2725 16.3557 16.2688 16.3517 16.2619 16.3437L16.2609 16.3442ZM15.5391 17.0746C15.5458 17.0803 15.5485 17.0818 15.5401 17.0741L15.5391 17.0746ZM1.04334 16.3442C1.04186 16.3457 1.04186 16.3465 1.04334 16.3442V16.3442Z" fill="black"/>
</g>
</svg>
