<svg width="22" height="23" viewBox="0 0 22 23" fill="none" xmlns="http://www.w3.org/2000/svg">
<g id="id_20" clip-path="url(#clip0_1341_19049)">
<path id="Vector" d="M9.13816 17.8631C9.30739 18.1677 9.54431 18.4046 9.81508 18.5738C10.0858 18.7769 10.4243 18.8785 10.7289 18.9123C11.0674 18.9462 11.4058 18.9123 11.7105 18.8108C12.0151 18.7092 12.3197 18.5062 12.5566 18.2692C12.692 18.1338 12.7935 17.9985 12.8951 17.8292V17.7954C12.8951 17.7954 12.8951 17.7954 12.8951 17.7615L13.6058 16.5092C13.6397 16.4415 13.7074 16.3738 13.7751 16.3062C13.8428 16.2723 13.9443 16.2385 14.012 16.2385H14.892C14.9935 16.2385 15.1289 16.2046 15.2305 16.1708C15.332 16.1369 15.4335 16.0692 15.5012 15.9677C15.5689 15.9 15.6366 15.7985 15.7043 15.6969C15.7382 15.5954 15.772 15.4938 15.772 15.3585C15.772 15.2569 15.7382 15.1215 15.7043 15.02C15.6705 14.9185 15.6028 14.8169 15.5012 14.7492C15.4335 14.6815 15.332 14.6138 15.2305 14.5462C15.1289 14.5123 15.0274 14.4785 14.892 14.4785H11.0335C10.9997 14.4785 10.9658 14.4785 10.932 14.4785H7.27662C7.17508 14.4785 7.03969 14.5123 6.93816 14.5462C6.83662 14.58 6.73508 14.6477 6.66739 14.7492C6.59969 14.8169 6.532 14.9185 6.46431 15.02C6.39662 15.1215 6.39662 15.2231 6.39662 15.3585C6.39662 15.46 6.43046 15.5954 6.46431 15.6969C6.49816 15.7985 6.56585 15.9 6.66739 15.9677C6.73508 16.0354 6.83662 16.1031 6.93816 16.1708C7.03969 16.2046 7.14123 16.2385 7.27662 16.2385H7.98739C8.05508 16.2385 8.15662 16.2723 8.22431 16.3062C8.292 16.34 8.35969 16.4077 8.39354 16.5092L9.13816 17.8631ZM3.41816 21.5862H18.6151C18.8858 21.5862 19.1566 21.4846 19.3597 21.2815C19.5628 21.0785 19.6643 20.8077 19.6643 20.5031V2.49692C19.6643 2.22615 19.5628 1.92154 19.3597 1.71846C19.1566 1.51538 18.8858 1.41385 18.6151 1.41385H3.41816C3.11354 1.41385 2.84277 1.51538 2.63969 1.71846C2.43662 1.92154 2.33508 2.19231 2.33508 2.49692V20.5031C2.33508 20.7738 2.43662 21.0785 2.63969 21.2815C2.84277 21.4846 3.11354 21.5862 3.41816 21.5862ZM18.5812 22.5H3.41816C2.91046 22.5 2.40277 22.2969 2.03046 21.9246C1.65815 21.5523 1.45508 21.0446 1.45508 20.5031V2.49692C1.45508 1.95538 1.65815 1.44769 2.03046 1.07538C2.36892 0.703077 2.87662 0.5 3.41816 0.5H18.6151C19.1228 0.5 19.6305 0.703077 20.0028 1.07538C20.3751 1.44769 20.5782 1.95538 20.5782 2.49692V20.5031C20.5782 21.0446 20.3751 21.5523 20.0028 21.9246C19.6305 22.2969 19.1228 22.5 18.5812 22.5ZM7.10739 12.2785C7.03969 12.2785 6.972 12.2785 6.93816 12.2446C6.87046 12.2108 6.83662 12.1769 6.80277 12.1431C6.76892 12.1092 6.73508 12.0415 6.70123 12.0077C6.66739 11.94 6.66739 11.9062 6.66739 11.8385C6.66739 11.7708 6.66739 11.7031 6.70123 11.6692C6.73508 11.6015 6.76892 11.5677 6.80277 11.5338C6.83662 11.5 6.90431 11.4662 6.93816 11.4323C7.00585 11.3985 7.03969 11.3985 7.10739 11.3985H10.5597V9.97692H5.78739C5.652 9.97692 5.48277 10.0108 5.34739 10.0785H5.31354C5.17816 10.1462 5.07662 10.2477 5.00892 10.3831C4.94123 10.4846 4.83969 10.5523 4.73816 10.5862C4.63662 10.62 4.50123 10.5862 4.39969 10.5523C4.29816 10.4846 4.23046 10.3831 4.19662 10.2815C4.16277 10.18 4.19662 10.0446 4.23046 9.94308C4.36585 9.67231 4.60277 9.46923 4.83969 9.3C4.83969 9.3 4.87354 9.3 4.87354 9.26615C5.14431 9.09692 5.44892 9.02923 5.75354 9.02923H10.5258V7.64154H6.43046C6.36277 7.64154 6.29508 7.64154 6.19354 7.67538C6.12585 7.70923 6.05816 7.70923 5.99046 7.77692C5.92277 7.81077 5.88892 7.81077 5.82123 7.84462C5.75354 7.84462 5.71969 7.84462 5.652 7.84462C5.58431 7.84462 5.55046 7.81077 5.48277 7.77692C5.48277 7.70923 5.41508 7.67538 5.41508 7.60769C5.38123 7.54 5.38123 7.50615 5.34739 7.43846C5.34739 7.37077 5.34739 7.30308 5.34739 7.26923C5.34739 7.20154 5.38123 7.16769 5.41508 7.1C5.44892 7.06615 5.48277 6.99846 5.55046 6.99846C5.68585 6.93077 5.82123 6.86308 5.99046 6.82923C6.12585 6.79538 6.29508 6.76154 6.43046 6.76154H10.5258V5.37385H8.35969C8.22431 5.37385 8.12277 5.34 8.05508 5.23846C7.98739 5.13692 7.91969 5.03538 7.91969 4.9C7.91969 4.76462 7.95354 4.66308 8.05508 4.56154C8.12277 4.46 8.25816 4.42615 8.35969 4.42615H10.5258V3.58C10.5258 3.44462 10.5597 3.34308 10.6612 3.24154C10.7289 3.14 10.8643 3.10615 10.9658 3.10615C11.1012 3.10615 11.2028 3.14 11.2705 3.24154C11.3382 3.34308 11.4058 3.44462 11.4058 3.58V4.42615H13.572C13.7074 4.42615 13.8089 4.46 13.8766 4.56154C13.9443 4.66308 14.012 4.76462 14.012 4.9C14.012 5.03538 13.9782 5.13692 13.8766 5.23846C13.8089 5.34 13.6735 5.37385 13.572 5.37385H11.4058V6.76154H15.5689C15.8735 6.76154 16.1782 6.82923 16.4489 6.99846C16.5166 7.03231 16.5505 7.06615 16.5843 7.1C16.6182 7.13385 16.652 7.20154 16.652 7.26923C16.652 7.33692 16.6858 7.37077 16.652 7.43846C16.652 7.50615 16.6182 7.54 16.5843 7.60769C16.5505 7.67538 16.5166 7.70923 16.4828 7.74308C16.4489 7.77692 16.3812 7.81077 16.3135 7.81077C16.2458 7.81077 16.212 7.84462 16.1443 7.81077C16.0766 7.81077 16.0428 7.77692 15.9751 7.74308C15.9074 7.70923 15.8397 7.67538 15.772 7.64154C15.7043 7.60769 15.6366 7.60769 15.5351 7.60769H11.4397V8.99539H16.212C16.5166 8.99539 16.8212 9.06308 17.092 9.23231C17.092 9.23231 17.1258 9.23231 17.1258 9.26615C17.3628 9.43538 17.5997 9.63846 17.7351 9.90923C17.8028 10.0108 17.8028 10.1462 17.7689 10.2477C17.7351 10.3492 17.6674 10.4508 17.5658 10.5185C17.4643 10.5862 17.3289 10.5862 17.2274 10.5523C17.1258 10.5185 17.0243 10.4508 16.9566 10.3492C16.8889 10.2138 16.7874 10.1123 16.652 10.0446H16.6182C16.4828 9.97692 16.3474 9.94308 16.1782 9.94308H11.4397V11.3308H14.892C14.9597 11.3308 15.0274 11.3308 15.0612 11.3646C15.1289 11.3985 15.1628 11.4323 15.1966 11.4662C15.2305 11.5 15.2643 11.5677 15.2982 11.6015C15.332 11.6692 15.332 11.7031 15.332 11.7708C15.332 11.8385 15.332 11.9062 15.2982 11.94C15.2643 12.0077 15.2305 12.0415 15.1966 12.0754C15.1628 12.1092 15.0951 12.1431 15.0612 12.1769C14.9935 12.2108 14.9597 12.2108 14.892 12.2108H11.4397V13.5985H14.892C15.3658 13.5985 15.8058 13.8015 16.1443 14.1062C16.4828 14.4446 16.652 14.8846 16.652 15.3585C16.652 15.8323 16.4828 16.2723 16.1443 16.6108C15.8058 16.9492 15.3658 17.1185 14.892 17.1185H14.2489L13.6397 18.1677C13.3689 18.6415 12.9966 19.0477 12.5228 19.3185C12.0489 19.5892 11.5412 19.7585 10.9997 19.7585C10.4582 19.7585 9.91662 19.6231 9.44277 19.3523C8.96892 19.0815 8.59662 18.6754 8.32585 18.2015L7.71662 17.1185H7.24277C6.76892 17.1185 6.32892 16.9154 5.99046 16.6108C5.652 16.2723 5.48277 15.8323 5.48277 15.3585C5.48277 14.8846 5.652 14.4446 5.99046 14.1062C6.32892 13.7677 6.76892 13.5985 7.24277 13.5985H10.5258V12.2108L7.10739 12.2785ZM10.5597 16.4415C10.5597 16.6446 10.492 16.8477 10.3566 17.0169C10.2212 17.1862 10.052 17.2877 9.84892 17.3215C9.64585 17.3554 9.44277 17.3215 9.27354 17.22C9.10431 17.1185 8.96892 16.9831 8.86739 16.78C8.79969 16.5769 8.76585 16.3738 8.83354 16.1708C8.90123 15.9677 9.00277 15.7985 9.172 15.6969C9.34123 15.5954 9.54431 15.5277 9.74739 15.5615C9.95046 15.5954 10.1535 15.6631 10.2889 15.8323C10.3566 15.9 10.4243 16.0015 10.492 16.1031C10.5597 16.2046 10.5597 16.34 10.5597 16.4415ZM9.98431 16.7462C10.052 16.6785 10.0858 16.5769 10.1197 16.4754C10.1197 16.3738 10.1197 16.2723 10.052 16.2046C9.98431 16.1369 9.91662 16.0692 9.81508 16.0354C9.71354 16.0015 9.612 16.0015 9.54431 16.0354C9.44277 16.0692 9.37508 16.1369 9.34123 16.2385C9.30739 16.34 9.27354 16.4415 9.30739 16.5092C9.34123 16.6108 9.37508 16.6785 9.44277 16.7462C9.51046 16.8138 9.612 16.8477 9.71354 16.8477C9.78123 16.8477 9.81508 16.8477 9.88277 16.8138C9.91662 16.8138 9.95046 16.78 9.98431 16.7462ZM11.4397 16.4415C11.4397 16.2385 11.5074 16.0354 11.6428 15.8662C11.7782 15.6969 11.9474 15.5954 12.1505 15.5615C12.3535 15.5277 12.5566 15.5615 12.7258 15.6631C12.8951 15.7646 13.0305 15.9 13.132 16.1031C13.1997 16.3062 13.2335 16.5092 13.1658 16.7123C13.0982 16.9154 12.9966 17.0846 12.8274 17.1862C12.6582 17.2877 12.4551 17.3554 12.252 17.3215C12.0489 17.2877 11.8458 17.22 11.7105 17.0508C11.6428 16.9831 11.5751 16.8815 11.5074 16.78C11.4397 16.6785 11.4397 16.5431 11.4397 16.4415ZM12.0151 16.1369C11.9474 16.2046 11.9135 16.3062 11.8797 16.4077C11.8797 16.5092 11.8797 16.6108 11.9474 16.6785C12.0151 16.7462 12.0828 16.8138 12.1843 16.8477C12.2858 16.8815 12.3874 16.8815 12.4551 16.8477C12.5566 16.8138 12.6243 16.7462 12.6582 16.6446C12.692 16.5431 12.7258 16.4415 12.692 16.3738C12.6582 16.2723 12.6243 16.2046 12.5566 16.1369C12.4889 16.0692 12.3874 16.0354 12.2858 16.0354C12.2182 16.0354 12.1843 16.0354 12.1166 16.0692C12.0828 16.0692 12.0489 16.1031 12.0151 16.1369Z" fill="black"/>
</g>
<defs>
<clipPath id="clip0_1341_19049">
<rect width="22" height="22" fill="white" transform="translate(0 0.5)"/>
</clipPath>
</defs>
</svg>
