<svg width="22" height="23" viewBox="0 0 22 23" fill="none" xmlns="http://www.w3.org/2000/svg">
<g id="id_34">
<g id="_105553324901120">
<path id="Path 7781" d="M15.1309 2.526C15.0822 2.49503 15.0472 2.44662 15.0331 2.39067C15.0189 2.33473 15.0267 2.2755 15.0548 2.22512C15.083 2.17474 15.1293 2.13703 15.1844 2.11971C15.2394 2.1024 15.299 2.1068 15.3509 2.132L16.8639 3.006C16.9126 3.03697 16.9476 3.08538 16.9617 3.14132C16.9758 3.19727 16.9681 3.2565 16.9399 3.30688C16.9118 3.35726 16.8655 3.39497 16.8104 3.41229C16.7554 3.4296 16.6958 3.4252 16.6439 3.4L16.0789 3.074L13.9909 6.7C14.3491 6.92844 14.6802 7.19683 14.9779 7.5C15.2221 7.74846 15.4461 8.01597 15.6479 8.3L19.4309 6.111L19.2199 5.746C19.1901 5.69478 19.1706 5.6382 19.1627 5.57947C19.1548 5.52075 19.1585 5.46104 19.1736 5.40374C19.1887 5.34645 19.215 5.2927 19.2509 5.24556C19.2868 5.19842 19.3317 5.15881 19.3829 5.129C19.4341 5.09919 19.4907 5.07976 19.5494 5.07182C19.6081 5.06388 19.6678 5.06758 19.7251 5.08272C19.7824 5.09785 19.8362 5.12412 19.8833 5.16003C19.9305 5.19594 19.9701 5.24078 19.9999 5.292L20.8719 6.809C20.9038 6.86003 20.9251 6.91695 20.9345 6.97638C20.944 7.0358 20.9414 7.09652 20.9269 7.15493C20.9125 7.21334 20.8864 7.26824 20.8503 7.31637C20.8142 7.36451 20.7687 7.40489 20.7167 7.43513C20.6647 7.46537 20.6071 7.48484 20.5474 7.49239C20.4877 7.49993 20.4271 7.4954 20.3692 7.47907C20.3113 7.46273 20.2573 7.43492 20.2103 7.39729C20.1633 7.35965 20.1244 7.31297 20.0959 7.26L19.8819 6.9L16.0999 9.085C16.4333 9.78535 16.6192 10.5468 16.6459 11.322H20.8299V10.669C20.8299 10.608 20.8541 10.5495 20.8972 10.5064C20.9404 10.4632 20.9989 10.439 21.0599 10.439C21.1209 10.439 21.1794 10.4632 21.2225 10.5064C21.2657 10.5495 21.2899 10.608 21.2899 10.669V11.524V11.543V12.4C21.2899 12.461 21.2657 12.5195 21.2225 12.5626C21.1794 12.6058 21.1209 12.63 21.0599 12.63C20.9989 12.63 20.9404 12.6058 20.8972 12.5626C20.8541 12.5195 20.8299 12.461 20.8299 12.4V11.747H16.6449C16.6194 12.5195 16.4335 13.2783 16.0989 13.975L19.8819 16.164L20.0929 15.799C20.1232 15.7475 20.1633 15.7024 20.211 15.6663C20.2587 15.6303 20.313 15.604 20.3708 15.589C20.4287 15.5739 20.4889 15.5704 20.5481 15.5787C20.6073 15.5869 20.6643 15.6067 20.7159 15.637C20.7674 15.6673 20.8125 15.7074 20.8485 15.7551C20.8846 15.8028 20.9109 15.8571 20.9259 15.9149C20.941 15.9728 20.9445 16.033 20.9362 16.0923C20.928 16.1515 20.9082 16.2085 20.8779 16.26L20.0059 17.777C19.9448 17.8811 19.8448 17.9566 19.7279 17.987C19.6111 18.0174 19.487 18.0001 19.3829 17.939C19.2788 17.8779 19.2032 17.7779 19.1729 17.6611C19.1425 17.5442 19.1598 17.4201 19.2209 17.316L19.4319 16.951L15.6479 14.76C15.4513 15.0454 15.2301 15.3131 14.9869 15.56C14.6867 15.8604 14.3559 16.1285 13.9999 16.36L16.0879 19.99L16.6529 19.664C16.7048 19.6388 16.7644 19.6344 16.8194 19.6517C16.8745 19.669 16.9208 19.7067 16.9489 19.7571C16.9771 19.8075 16.9848 19.8667 16.9707 19.9227C16.9566 19.9786 16.9216 20.027 16.8729 20.058L16.1259 20.49L15.3789 20.922C15.327 20.9472 15.2674 20.9516 15.2124 20.9343C15.1573 20.917 15.111 20.8793 15.0828 20.8289C15.0547 20.7785 15.0469 20.7193 15.0611 20.6633C15.0752 20.6074 15.1102 20.559 15.1589 20.528L15.7239 20.202L13.6359 16.572C12.9544 16.9334 12.2052 17.1493 11.4359 17.206V21.585H11.8569C11.971 21.5926 12.078 21.6433 12.1562 21.7269C12.2344 21.8104 12.2779 21.9206 12.2779 22.035C12.2779 22.1494 12.2344 22.2596 12.1562 22.3431C12.078 22.4267 11.971 22.4774 11.8569 22.485H10.0999C9.98572 22.4774 9.87872 22.4267 9.80055 22.3431C9.72239 22.2596 9.6789 22.1494 9.6789 22.035C9.6789 21.9206 9.72239 21.8104 9.80055 21.7269C9.87872 21.6433 9.98572 21.5926 10.0999 21.585H10.5209V17.2C9.75072 17.1415 9.00132 16.9225 8.32088 16.557L6.23288 20.187L6.79788 20.513C6.84657 20.544 6.88157 20.5924 6.89571 20.6483C6.90985 20.7043 6.90205 20.7635 6.87392 20.8139C6.84579 20.8643 6.79946 20.902 6.74441 20.9193C6.68937 20.9366 6.62979 20.9322 6.57788 20.907L5.06488 20.033C5.01619 20.002 4.98119 19.9536 4.96705 19.8977C4.95292 19.8417 4.96071 19.7825 4.98884 19.7321C5.01697 19.6817 5.06331 19.644 5.11835 19.6267C5.1734 19.6094 5.23298 19.6138 5.28488 19.639L5.84988 19.965L7.93788 16.335C7.57965 16.1066 7.24853 15.8382 6.95088 15.535C6.70666 15.2865 6.48262 15.019 6.28088 14.735L2.49988 16.93L2.71088 17.295C2.74277 17.346 2.76407 17.403 2.77353 17.4624C2.78299 17.5218 2.7804 17.5825 2.76593 17.6409C2.75145 17.6993 2.72539 17.7542 2.68928 17.8024C2.65317 17.8505 2.60775 17.8909 2.55572 17.9211C2.5037 17.9514 2.44613 17.9708 2.38643 17.9784C2.32673 17.9859 2.26612 17.9814 2.20821 17.9651C2.15029 17.9487 2.09626 17.9209 2.0493 17.8833C2.00235 17.8457 1.96344 17.799 1.93488 17.746L1.49388 16.987L1.05288 16.228C1.021 16.177 0.999692 16.1201 0.990236 16.0606C0.98078 16.0012 0.983366 15.9405 0.99784 15.8821C1.01231 15.8237 1.03838 15.7688 1.07449 15.7206C1.1106 15.6725 1.15602 15.6321 1.20804 15.6019C1.26007 15.5716 1.31764 15.5522 1.37734 15.5446C1.43704 15.5371 1.49764 15.5416 1.55556 15.5579C1.61347 15.5743 1.66751 15.6021 1.71446 15.6397C1.76142 15.6773 1.80033 15.724 1.82888 15.777L2.03988 16.142L5.82288 13.953C5.48944 13.2527 5.30359 12.4912 5.27688 11.716H1.08988V12.369C1.08988 12.3992 1.08393 12.4291 1.07238 12.457C1.06082 12.4849 1.04387 12.5103 1.02252 12.5316C1.00116 12.553 0.975805 12.5699 0.9479 12.5815C0.919995 12.5931 0.890087 12.599 0.859883 12.599C0.829679 12.599 0.79977 12.5931 0.771866 12.5815C0.743961 12.5699 0.718606 12.553 0.697248 12.5316C0.675891 12.5103 0.658949 12.4849 0.647391 12.457C0.635832 12.4291 0.629883 12.3992 0.629883 12.369V10.611C0.629883 10.5808 0.635832 10.5509 0.647391 10.523C0.658949 10.4951 0.675891 10.4697 0.697248 10.4484C0.718606 10.427 0.743961 10.4101 0.771866 10.3985C0.79977 10.3869 0.829679 10.381 0.859883 10.381C0.890087 10.381 0.919995 10.3869 0.9479 10.3985C0.975805 10.4101 1.00116 10.427 1.02252 10.4484C1.04387 10.4697 1.06082 10.4951 1.07238 10.523C1.08393 10.5509 1.08988 10.5808 1.08988 10.611V11.264H5.27488C5.30159 10.4888 5.48744 9.72735 5.82088 9.027L2.03788 6.838L1.82688 7.2C1.79661 7.25154 1.75649 7.29662 1.7088 7.33266C1.66111 7.36869 1.60678 7.39498 1.54893 7.41003C1.49108 7.42507 1.43084 7.42857 1.37163 7.42033C1.31243 7.41209 1.25543 7.39227 1.20388 7.362C1.15234 7.33173 1.10726 7.2916 1.07123 7.24391C1.03519 7.19622 1.0089 7.1419 0.993855 7.08405C0.963474 6.96722 0.98075 6.8431 1.04188 6.739L1.91388 5.222C1.94415 5.17046 1.98428 5.12538 2.03197 5.08934C2.07966 5.05331 2.13398 5.02702 2.19183 5.01197C2.24968 4.99693 2.30993 4.99343 2.36913 5.00167C2.42834 5.00991 2.48534 5.02973 2.53688 5.06C2.58843 5.09027 2.6335 5.1304 2.66954 5.17809C2.70558 5.22578 2.73187 5.2801 2.74691 5.33795C2.76195 5.3958 2.76545 5.45605 2.75721 5.51525C2.74897 5.57446 2.72915 5.63146 2.69888 5.683L2.48788 6.048L6.27188 8.24C6.46851 7.9546 6.68968 7.68692 6.93288 7.44C7.23305 7.13961 7.56386 6.87148 7.91988 6.64L5.83088 3.016L5.26588 3.342C5.21398 3.3672 5.1544 3.3716 5.09935 3.35429C5.04431 3.33697 4.99797 3.29926 4.96984 3.24888C4.94171 3.1985 4.93392 3.13927 4.94805 3.08333C4.96219 3.02738 4.99719 2.97897 5.04588 2.948L5.79288 2.516L5.80288 2.506C5.80483 2.50611 5.80676 2.50559 5.80838 2.5045C5.81001 2.50342 5.81124 2.50184 5.81188 2.5L6.55888 2.068C6.61079 2.0428 6.67037 2.0384 6.72541 2.05571C6.78046 2.07303 6.82679 2.11074 6.85492 2.16112C6.88305 2.2115 6.89085 2.27073 6.87671 2.32667C6.86257 2.38262 6.82757 2.43103 6.77888 2.462L6.21388 2.788L8.29988 6.415C8.98089 6.05235 9.73032 5.83637 10.4999 5.781V1.4H10.0789C9.96472 1.39238 9.85772 1.34166 9.77955 1.25811C9.70139 1.17456 9.6579 1.06442 9.6579 0.95C9.6579 0.835583 9.70139 0.725444 9.77955 0.64189C9.85772 0.558336 9.96472 0.507615 10.0789 0.5H11.8219C11.936 0.507615 12.043 0.558336 12.1212 0.64189C12.1994 0.725444 12.2429 0.835583 12.2429 0.95C12.2429 1.06442 12.1994 1.17456 12.1212 1.25811C12.043 1.34166 11.936 1.39238 11.8219 1.4H11.4009V5.781C12.1696 5.84095 12.9181 6.05666 13.6009 6.415L15.6999 2.785L15.1349 2.459L15.1309 2.526ZM10.9449 8.086C11.3992 8.08323 11.8494 8.17153 12.269 8.34569C12.6886 8.51985 13.0691 8.77634 13.3879 9.1C13.7097 9.42198 13.9647 9.80433 14.1383 10.2251C14.312 10.6459 14.4009 11.0968 14.3999 11.552C14.4027 12.2368 14.2018 12.907 13.8227 13.4773C13.4435 14.0475 12.9034 14.4922 12.2708 14.7546C11.6383 15.0171 10.942 15.0855 10.2705 14.9511C9.59905 14.8167 8.9827 14.4856 8.49988 14C8.17793 13.6786 7.92255 13.2969 7.74838 12.8766C7.57421 12.4564 7.48467 12.0059 7.48488 11.551C7.4862 10.6335 7.85069 9.75393 8.49868 9.10445C9.14666 8.45496 10.0254 8.08844 10.9429 8.085L10.9449 8.086ZM13.1769 9.315C12.8845 9.02112 12.5366 8.78827 12.1534 8.62999C11.7702 8.47171 11.3594 8.39116 10.9449 8.393C10.3202 8.39524 9.71022 8.58221 9.19161 8.93037C8.67299 9.27853 8.26895 9.77233 8.03034 10.3496C7.79173 10.9269 7.72922 11.5618 7.85067 12.1746C7.97213 12.7873 8.27212 13.3504 8.71288 13.793C9.00529 14.0869 9.35318 14.3197 9.73635 14.478C10.1195 14.6363 10.5303 14.7168 10.9449 14.715C11.5695 14.7128 12.1795 14.5258 12.6982 14.1776C13.2168 13.8295 13.6208 13.3357 13.8594 12.7584C14.098 12.1811 14.1605 11.5462 14.0391 10.9334C13.9176 10.3207 13.6177 9.75761 13.1769 9.315ZM14.3459 8.144C13.5595 7.35765 12.5248 6.86829 11.4181 6.75927C10.3114 6.65026 9.20107 6.92835 8.27638 7.54617C7.3517 8.16398 6.66983 9.08329 6.34695 10.1475C6.02407 11.2116 6.08015 12.3549 6.50564 13.3823C6.93114 14.4098 7.69971 15.2579 8.68043 15.7823C9.66114 16.3066 10.7933 16.4747 11.8841 16.2579C12.9748 16.0411 13.9566 15.4528 14.6623 14.5932C15.3679 13.7337 15.7537 12.6561 15.7539 11.544C15.7559 10.9123 15.6325 10.2865 15.3908 9.70282C15.1491 9.11917 14.7939 8.58932 14.3459 8.144Z" fill="#001A34"/>
</g>
</g>
</svg>
