<svg width="22" height="23" viewBox="0 0 22 23" fill="none" xmlns="http://www.w3.org/2000/svg">
<g id="id_31" clip-path="url(#clip0_1341_19116)">
<g id="Group">
<g id="Group_2">
<path id="Vector" d="M21.4584 1.07539C20.3076 -0.0415331 17.7691 0.500005 14.4522 2.56462C13.3691 2.15847 12.2184 1.92154 10.9999 1.92154C9.67991 1.92154 8.35991 2.19231 7.1753 2.73385C6.93837 2.83539 6.83684 3.10616 6.93837 3.34308C7.03991 3.58 7.31068 3.68154 7.54761 3.58001C8.63068 3.10616 9.8153 2.86924 11.0338 2.86924C14.7568 2.86924 17.9384 5.20462 19.1568 8.52154C17.8707 10.4508 16.1445 12.5831 14.1138 14.6477C12.083 16.6785 9.98453 18.4046 8.02145 19.7246C4.73838 18.5062 2.36914 15.3246 2.36914 11.6015C2.36914 10.5185 2.57222 9.46924 2.94453 8.4877C3.04607 8.25077 2.91068 7.98 2.67376 7.91231C2.43684 7.81077 2.16607 7.94616 2.09838 8.18308C1.62453 9.16462 1.42145 10.3154 1.42145 11.5C1.42145 12.7185 1.65838 13.8692 2.06453 14.9523C-8.62703e-05 18.2692 -0.541625 20.8077 0.575298 21.9246C0.947606 22.3308 1.48914 22.5 2.16607 22.5C3.18145 22.5 4.5353 22.0938 6.09222 21.2477C6.56607 21.0108 7.03991 20.74 7.51376 20.4354C8.59684 20.8415 9.74761 21.0785 10.9661 21.0785C16.2461 21.0785 20.5445 16.78 20.5445 11.5C20.5445 10.2815 20.3076 9.13077 19.9015 8.0477C21.9322 4.86616 22.5753 2.22616 21.4584 1.07539ZM5.92299 20.8754C3.51991 22.1277 1.69222 22.3985 0.91376 21.62C-8.61897e-05 20.7062 0.507606 18.4046 2.30145 15.46C3.24914 17.5585 4.9753 19.2846 7.07376 20.2323C6.66761 20.4692 6.2953 20.6723 5.92299 20.8754ZM10.9999 20.1985C10.1199 20.1985 9.30761 20.0631 8.4953 19.8262C10.4245 18.54 12.4215 16.8477 14.3845 14.8846C16.3815 12.8877 18.0399 10.8908 19.3261 8.99539C19.563 9.77385 19.6984 10.62 19.6984 11.5C19.6984 16.3062 15.8061 20.1985 10.9999 20.1985ZM14.9599 2.7677C17.9384 0.973851 20.2061 0.466159 21.1199 1.38001C22.0676 2.3277 21.4245 4.66308 19.7322 7.50616C18.7845 5.4077 17.0584 3.71539 14.9599 2.7677Z" fill="black"/>
</g>
<g id="Group_3">
<path id="Vector_2" d="M9.17204 13.5646C8.05511 13.5646 7.10742 12.6508 7.10742 11.5C7.10742 10.3831 8.02127 9.43539 9.17204 9.43539C10.3228 9.43539 11.2367 10.3492 11.2367 11.5C11.2367 12.6508 10.3228 13.5646 9.17204 13.5646ZM9.17204 9.90924C8.29204 9.90924 7.58127 10.62 7.58127 11.5C7.58127 12.38 8.29204 13.0908 9.17204 13.0908C10.052 13.0908 10.7628 12.38 10.7628 11.5C10.7967 10.62 10.052 9.90924 9.17204 9.90924Z" fill="black"/>
</g>
<g id="Group_4">
<path id="Vector_3" d="M10.9322 7.1677C10.7969 7.1677 10.6953 7.06617 10.6953 6.93078V5.10309C10.6953 4.9677 10.7969 4.86617 10.9322 4.86617C11.0676 4.86617 11.1692 4.9677 11.1692 5.10309V6.93078C11.1692 7.06617 11.0676 7.1677 10.9322 7.1677Z" fill="black"/>
</g>
<g id="Group_5">
<path id="Vector_4" d="M7.10753 5.34C7.10753 5.57693 6.90445 5.78 6.66753 5.78H5.04291V7.40462C5.04291 7.64154 4.83984 7.84462 4.60291 7.84462C4.36599 7.84462 4.16291 7.64154 4.16291 7.40462V5.78H2.50445C2.26753 5.78 2.06445 5.57693 2.06445 5.34C2.06445 5.10308 2.26753 4.9 2.50445 4.9H4.12907V3.27539C4.12907 3.03847 4.33215 2.83539 4.56907 2.83539C4.80599 2.83539 5.00907 3.03847 5.00907 3.27539V4.9H6.63368C6.90445 4.86616 7.10753 5.10308 7.10753 5.34Z" fill="black"/>
</g>
</g>
</g>
<defs>
<clipPath id="clip0_1341_19116">
<rect width="22" height="22" fill="white" transform="translate(0 0.5)"/>
</clipPath>
</defs>
</svg>
