<svg width="22" height="23" viewBox="0 0 22 23" fill="none" xmlns="http://www.w3.org/2000/svg">
<g id="id_32" clip-path="url(#clip0_1341_19129)">
<path id="Vector" d="M12.3542 16.9154C12.3542 17.0508 12.2526 17.1523 12.1173 17.1523H11.2373V18.0661C11.2373 18.2015 11.1357 18.2692 11.0003 18.2692C10.8649 18.2692 10.7634 18.1677 10.7634 18.0661V17.1523H9.88341C9.74802 17.1523 9.64648 17.0508 9.64648 16.9154C9.64648 16.78 9.74802 16.7123 9.88341 16.7123H10.7634V15.8323C10.7634 15.6969 10.8649 15.6292 11.0003 15.6292C11.1357 15.6292 11.2373 15.7308 11.2373 15.8323V16.7123H12.1173C12.2526 16.6785 12.3542 16.78 12.3542 16.9154Z" fill="black"/>
<path id="Vector_2" d="M20.4092 2.19231C19.3261 1.10923 17.8707 0.5 16.3138 0.5C15.5015 0.5 14.6892 0.736923 14.0123 1.14308C13.3015 1.54923 12.7261 2.15846 12.3538 2.90308C11.9815 3.61385 11.8123 4.42615 11.8461 5.27231C11.9138 6.08462 12.1846 6.86308 12.6584 7.54C13.0307 8.08154 13.5723 8.55538 14.1477 8.86C13.64 9.16462 13.1661 9.57077 12.8277 10.0785C12.32 10.7892 12.0492 11.6354 12.0831 12.5154V14.2415C11.7446 14.1062 11.3723 14.0385 11 14.0385C10.6277 14.0385 10.2215 14.1062 9.88305 14.2415V12.5154C9.88305 11.6354 9.64613 10.7892 9.13844 10.0785C8.79998 9.57077 8.32613 9.16462 7.81844 8.86C8.66459 8.38615 9.37536 7.64154 9.74767 6.72769C10.1538 5.81385 10.2215 4.79846 9.98459 3.85077C9.74767 2.90308 9.17228 2.05692 8.39382 1.44769C7.61536 0.838462 6.66767 0.5 5.68613 0.5C4.12921 0.5 2.67382 1.10923 1.59075 2.19231C0.507668 3.27538 -0.101562 4.76462 -0.101562 6.28769V10.9585C-0.101562 11.9738 0.304591 12.9215 1.01536 13.6323C1.72613 14.3431 2.67382 14.7492 3.68921 14.7492C4.70459 14.7492 5.65228 14.3431 6.36305 13.6323C7.07382 12.9215 7.47998 11.9738 7.47998 10.9585V9.19846C7.98767 9.46923 8.46151 9.87539 8.79998 10.3492C9.23998 10.9923 9.4769 11.7369 9.4769 12.5154V14.4785C8.66459 14.9862 8.1569 15.8662 8.1569 16.8815C8.1569 17.8969 8.66459 18.7769 9.4769 19.3185V22.2631C9.4769 22.3308 9.51075 22.3646 9.54459 22.4323C9.57844 22.4662 9.64613 22.5 9.71382 22.5C9.78152 22.5 9.81536 22.4662 9.88305 22.4323C9.95075 22.3985 9.95074 22.3308 9.95074 22.2631V19.5554C10.2892 19.6908 10.6615 19.7585 11.0677 19.7585C11.4738 19.7585 11.8123 19.6908 12.1507 19.5554V22.2631C12.1507 22.3308 12.1846 22.3646 12.2184 22.4323C12.2523 22.5 12.32 22.5 12.3877 22.5C12.4554 22.5 12.5231 22.4662 12.5569 22.4323C12.5907 22.3985 12.6246 22.3308 12.6246 22.2631V19.3185C13.4369 18.8108 13.9446 17.8969 13.9446 16.8815C13.9446 15.8662 13.4031 14.9862 12.6246 14.4785V12.5154C12.6246 11.7369 12.8615 10.9923 13.3015 10.3492C13.64 9.87539 14.08 9.46923 14.6215 9.19846V10.9585C14.6215 11.4662 14.7231 11.94 14.8923 12.4138C15.0954 12.8877 15.3661 13.2938 15.7046 13.6323C16.0431 13.9708 16.4831 14.2754 16.9231 14.4446C17.3969 14.6477 17.8707 14.7154 18.3784 14.7154C18.8861 14.7154 19.36 14.6138 19.8338 14.4446C20.3077 14.2415 20.7138 13.9708 21.0523 13.6323C21.3907 13.2938 21.6954 12.8538 21.8646 12.4138C22.0677 11.94 22.1692 11.4662 22.1692 10.9585V6.28769C22.1015 4.76462 21.4923 3.27538 20.4092 2.19231ZM7.17536 8.14923C7.20921 7.98 7.24305 7.81077 7.24305 7.60769C7.24305 7.37077 7.20921 7.1 7.14151 6.86308C7.07382 6.62615 6.97228 6.38923 6.8369 6.15231C6.80305 6.11846 6.76921 6.08462 6.70151 6.08462C6.63382 6.08462 6.59998 6.08462 6.53228 6.11846C6.49844 6.15231 6.46459 6.18615 6.43075 6.25385C6.43075 6.32154 6.43075 6.35538 6.43075 6.42308C6.59998 6.72769 6.70151 7.1 6.73536 7.43846C6.76921 7.81077 6.70151 8.14923 6.56613 8.48769C6.53228 8.52154 6.53228 8.58923 6.49844 8.65692C6.29536 9.09692 5.99075 9.43538 5.58459 9.70615C5.17844 9.97692 4.73844 10.0785 4.26459 10.0785C4.1969 10.0785 4.12921 10.1123 4.09536 10.1462C4.06151 10.18 4.02767 10.2477 4.02767 10.3154C4.02767 10.3831 4.06151 10.4508 4.09536 10.4846C4.12921 10.5185 4.1969 10.5523 4.26459 10.5523C4.6369 10.5523 5.00921 10.4846 5.38151 10.3154C5.71998 10.18 6.05844 9.94308 6.32921 9.70615C6.3969 9.63846 6.43075 9.60462 6.49844 9.53692V10.9923C6.49844 11.7369 6.19382 12.4815 5.65228 13.0231C5.11075 13.5646 4.39998 13.8692 3.62151 13.8692C2.84305 13.8692 2.13228 13.5646 1.59075 13.0231C1.04921 12.4815 0.744591 11.7708 0.744591 10.9923V6.28769C0.744591 5.00154 1.25228 3.74923 2.16613 2.83538C3.14767 1.95538 4.39998 1.41385 5.68613 1.41385C6.49844 1.41385 7.2769 1.68462 7.88613 2.19231C8.52921 2.7 8.93536 3.37692 9.13844 4.18923C9.30767 4.96769 9.20613 5.78 8.86767 6.52462C8.49536 7.23538 7.91998 7.81077 7.17536 8.14923ZM13.4369 16.9154C13.4369 17.66 13.0984 18.3369 12.5569 18.8108C12.4215 18.9123 12.2523 19.0138 12.0831 19.1154C11.7446 19.2846 11.3723 19.3862 11 19.3862C10.6277 19.3862 10.2215 19.2846 9.88305 19.1154C9.71382 19.0477 9.57844 18.9462 9.44305 18.8108C8.90151 18.3708 8.56305 17.6938 8.56305 16.9492C8.56305 16.2046 8.90151 15.5277 9.44305 15.0877C9.57844 14.9862 9.74767 14.8846 9.88305 14.7831C10.2215 14.6138 10.5938 14.5123 11 14.5123C11.4061 14.5123 11.7784 14.6138 12.0831 14.7831C12.2523 14.8508 12.3877 14.9523 12.5569 15.0877C13.0984 15.46 13.4369 16.1369 13.4369 16.9154ZM21.1877 10.9585C21.1877 11.3308 21.12 11.7031 20.9846 12.0415C20.8492 12.38 20.6461 12.7185 20.3754 12.9892C20.1046 13.26 19.8 13.4631 19.4277 13.5985C19.0892 13.7338 18.7169 13.8015 18.3446 13.8015C17.9723 13.8015 17.6 13.7338 17.2615 13.5985C16.9231 13.4631 16.5846 13.2262 16.3138 12.9892C16.0431 12.7185 15.84 12.4138 15.7046 12.0415C15.5692 11.7031 15.5015 11.3308 15.5015 10.9585V9.50308C15.5354 9.57077 15.6031 9.60462 15.6707 9.67231C15.9415 9.94308 16.2461 10.1462 16.6184 10.2815C16.9569 10.4169 17.3292 10.5185 17.7354 10.5185C17.8031 10.5185 17.8707 10.4846 17.9046 10.4508C17.9384 10.4169 17.9723 10.3492 17.9723 10.2815C17.9723 10.2138 17.9384 10.18 17.9046 10.1123C17.8707 10.0785 17.8031 10.0446 17.7354 10.0446C17.2615 10.0446 16.8215 9.90923 16.4154 9.67231C16.0092 9.40154 15.7046 9.06308 15.5354 8.62308C15.5354 8.55538 15.5015 8.52154 15.4677 8.45385C15.3323 8.11539 15.2984 7.74308 15.3323 7.40462C15.3661 7.03231 15.4677 6.69385 15.6369 6.38923C15.6369 6.35538 15.6707 6.32154 15.6707 6.32154C15.6707 6.28769 15.6707 6.25385 15.6707 6.22C15.6707 6.18615 15.6369 6.15231 15.6369 6.15231C15.6031 6.11846 15.6031 6.11846 15.5692 6.08462C15.5354 6.08462 15.5015 6.05077 15.5015 6.05077C15.4677 6.05077 15.4338 6.05077 15.4 6.05077C15.3661 6.05077 15.3323 6.08462 15.3323 6.08462C15.2984 6.08462 15.2984 6.11846 15.2646 6.15231C15.1292 6.35538 15.0277 6.59231 14.96 6.82923C14.8584 7.23538 14.8246 7.67538 14.8923 8.11539C14.1815 7.77692 13.5723 7.20154 13.2338 6.45692C12.8954 5.74615 12.7938 4.9 12.9631 4.12154C13.1323 3.34308 13.5723 2.63231 14.2154 2.12462C14.8246 1.61692 15.6031 1.34615 16.4154 1.34615C17.7015 1.34615 18.9538 1.85385 19.8677 2.76769C20.7815 3.68154 21.2892 4.9 21.2892 6.22V10.9585H21.1877Z" fill="black"/>
</g>
<defs>
<clipPath id="clip0_1341_19129">
<rect width="22" height="22" fill="white" transform="translate(0 0.5)"/>
</clipPath>
</defs>
</svg>
