<svg width="22" height="23" viewBox="0 0 22 23" fill="none" xmlns="http://www.w3.org/2000/svg">
<g id="id_33" clip-path="url(#clip0_1341_19135)">
<g id="path4365_00000130629047269129949440000002611473079132109752_">
<path id="Vector" d="M20.477 12.1431C20.477 11.06 20.0031 10.0785 19.1908 9.36769C19.0893 7.43846 17.4985 5.91538 15.5354 5.91538C14.8924 5.91538 14.4524 6.15231 14.0462 6.45692L15.3662 3.85077C15.7047 3.17384 15.6708 2.42923 15.2647 1.78615C14.8924 1.14307 14.2154 0.770767 13.4708 0.770767C12.7939 0.770767 12.1847 1.10923 11.7108 1.71846C11.5416 1.92154 11.3047 2.05692 11.0339 2.05692C10.7631 2.05692 10.5262 1.92154 10.357 1.71846C9.88313 1.10923 9.2739 0.770767 8.59697 0.770767C7.85236 0.770767 7.17544 1.14307 6.80313 1.78615C6.39697 2.42923 6.36313 3.20769 6.70159 3.85077L8.02159 6.45692C7.64928 6.15231 7.17544 5.91538 6.53236 5.91538C4.56928 5.91538 2.97851 7.43846 2.87697 9.36769C2.06467 10.0785 1.59082 11.06 1.59082 12.1431C1.59082 13.2938 2.13236 14.3431 3.01236 15.0538C2.91082 15.3923 2.87697 15.6969 2.87697 16.0354C2.87697 18.0662 4.53544 19.6908 6.53236 19.6908C7.17544 19.6908 7.64928 19.4538 8.02159 19.1492V21.2138C8.02159 21.8231 8.52928 22.3308 9.13851 22.3308H12.9293C13.5385 22.3308 14.0462 21.8231 14.0462 21.2138V18.7431C14.6554 19.2508 15.2985 19.6908 16.1785 19.6908C17.837 19.6908 19.1908 18.3369 19.1908 16.6785C19.1908 16.1708 19.0554 15.6631 18.8185 15.2231C19.8339 14.5462 20.477 13.3954 20.477 12.1431ZM13.1324 7.37077C12.6247 7.94615 12.0831 8.45384 11.0001 8.45384C9.91697 8.45384 9.37544 7.94615 8.86774 7.37077V6.55846H13.1324V7.37077ZM7.4462 3.41077C7.24313 3.03846 7.27697 2.56461 7.5139 2.22615C7.75082 1.85384 8.12313 1.65077 8.56313 1.65077C9.07082 1.65077 9.44313 2.02307 9.61236 2.26C9.95082 2.7 10.4585 2.93692 11.0001 2.93692C11.5416 2.93692 12.0493 2.7 12.3877 2.26C12.557 2.02307 12.9293 1.65077 13.437 1.65077C13.877 1.65077 14.2493 1.88769 14.4862 2.22615C14.7231 2.59846 14.7231 3.03846 14.5539 3.41077L13.2001 6.11846H8.80005L7.4462 3.41077ZM13.1324 21.2138C13.1324 21.3492 13.0308 21.4508 12.8954 21.4508H9.10467C8.96928 21.4508 8.86774 21.3492 8.86774 21.2138V19.4538H13.1324V21.2138ZM13.1324 19.0138H8.86774V18.2015C9.37544 17.6262 9.91697 17.1185 11.0001 17.1185C11.9139 17.1185 12.557 17.4908 13.1324 17.9646V19.0138ZM17.9724 14.6477C17.837 14.7154 17.7693 14.8169 17.7354 14.9523C17.7016 15.0877 17.7354 15.2231 17.8031 15.3246C18.1077 15.6969 18.277 16.1708 18.277 16.6446C18.277 17.8292 17.3293 18.7769 16.1447 18.7769C15.4339 18.7769 14.8924 18.3031 14.2493 17.7277C13.437 17.0169 12.5231 16.1708 10.9662 16.1708C9.37544 16.1708 8.63082 17.0508 8.02159 17.7615C7.48005 18.3708 7.14159 18.7769 6.46467 18.7769C4.94159 18.7769 3.68928 17.5246 3.68928 16.0015C3.68928 15.6631 3.75697 15.3585 3.89236 15.02C3.96005 14.8169 3.89236 14.58 3.72313 14.4785C2.91082 13.9708 2.43697 13.0908 2.43697 12.1431C2.43697 11.2631 2.84313 10.4846 3.5539 9.94307C3.65544 9.87538 3.72313 9.74 3.72313 9.57077V9.53692C3.72313 8.01384 4.97544 6.79538 6.49851 6.79538C7.17544 6.79538 7.5139 7.16769 8.05544 7.77692C8.66467 8.48769 9.40928 9.36769 11.0001 9.36769C12.5908 9.36769 13.3354 8.48769 13.9447 7.77692C14.4862 7.16769 14.8247 6.79538 15.5016 6.79538C17.0247 6.79538 18.277 8.01384 18.277 9.53692V9.57077C18.277 9.70615 18.3447 9.84154 18.4462 9.94307C19.157 10.4846 19.5631 11.2969 19.5631 12.1431C19.5631 13.1923 18.9539 14.2077 17.9724 14.6477Z" fill="black"/>
<path id="Vector_2" d="M7.14123 11.7369C6.32893 11.7369 5.7197 11.06 5.68585 11.0261C5.61816 10.9246 5.61816 10.7892 5.7197 10.7215C5.82123 10.6538 5.95662 10.6538 6.02431 10.7215C6.02431 10.7215 6.532 11.2969 7.14123 11.2969C7.75046 11.2969 8.25816 10.7215 8.25816 10.7215C8.32585 10.62 8.49508 10.62 8.56277 10.6877C8.66431 10.7554 8.66431 10.9246 8.59662 10.9923C8.56277 11.0261 7.9197 11.7369 7.14123 11.7369Z" fill="black"/>
<path id="Vector_3" d="M14.8587 11.7369C14.0464 11.7369 13.4372 11.06 13.4033 11.0262C13.3356 10.9246 13.3356 10.7892 13.4033 10.7215C13.5048 10.6538 13.6402 10.6538 13.7079 10.7215C13.7079 10.7215 14.2156 11.2969 14.8248 11.2969C15.4341 11.2969 15.9418 10.7215 15.9418 10.7215C16.0095 10.62 16.1787 10.62 16.2464 10.7215C16.3479 10.7892 16.3479 10.9246 16.2464 11.0262C16.2802 11.0262 15.671 11.7369 14.8587 11.7369Z" fill="black"/>
<path id="Vector_4" d="M10.9996 13.6662C10.1873 13.6662 9.57809 12.9892 9.54425 12.9554C9.47656 12.8538 9.47656 12.7185 9.57809 12.6508C9.67963 12.5831 9.81502 12.5831 9.88271 12.6508C9.88271 12.6508 10.3904 13.2262 10.9996 13.2262C11.6089 13.2262 12.1166 12.6508 12.1166 12.6508C12.1842 12.5492 12.3535 12.5492 12.4212 12.6169C12.5227 12.6846 12.5227 12.8538 12.455 12.9215C12.4212 12.9554 11.8119 13.6662 10.9996 13.6662Z" fill="black"/>
<path id="Vector_5" d="M7.14123 15.5954C6.32893 15.5954 5.7197 14.9185 5.68585 14.8846C5.61816 14.7831 5.61816 14.6477 5.7197 14.58C5.82123 14.5123 5.95662 14.5123 6.02431 14.58C6.02431 14.58 6.532 15.1554 7.14123 15.1554C7.75046 15.1554 8.25816 14.58 8.25816 14.58C8.32585 14.4785 8.49508 14.4785 8.56277 14.5462C8.66431 14.6138 8.66431 14.7831 8.59662 14.8508C8.56277 14.8846 7.9197 15.5954 7.14123 15.5954Z" fill="black"/>
<path id="Vector_6" d="M14.8587 15.5954C14.0464 15.5954 13.4372 14.9185 13.4033 14.8846C13.3356 14.7831 13.3356 14.6477 13.4033 14.58C13.5048 14.5123 13.6402 14.5123 13.7079 14.58C13.7079 14.58 14.2156 15.1554 14.8248 15.1554C15.4341 15.1554 15.9418 14.58 15.9418 14.58C16.0095 14.4785 16.1787 14.4785 16.2464 14.58C16.3479 14.6477 16.3479 14.7831 16.2464 14.8846C16.2802 14.8846 15.671 15.5954 14.8587 15.5954Z" fill="black"/>
</g>
</g>
<defs>
<clipPath id="clip0_1341_19135">
<rect width="22" height="22" fill="white" transform="translate(0 0.5)"/>
</clipPath>
</defs>
</svg>
