<svg width="22" height="23" viewBox="0 0 22 23" fill="none" xmlns="http://www.w3.org/2000/svg">
<g id="id_39">
<path id="Vector" d="M13.3105 13.2735V16.1212C14.9243 15.7308 16.3666 14.8087 17.414 13.4978C18.4615 12.187 19.0556 10.5606 19.1043 8.87063C19.1043 6.89426 18.3341 4.99885 16.9632 3.60135C15.5922 2.20385 13.7328 1.41874 11.794 1.41874C9.85513 1.41874 7.99573 2.20385 6.62478 3.60135C5.25383 4.99885 4.48362 6.89426 4.48362 8.87063C4.48352 8.89707 4.48121 8.92346 4.47672 8.94951V13.3711C4.48121 13.3971 4.48351 13.4235 4.48362 13.4499V16.3223H6.08877C6.15752 16.3223 6.22696 16.3243 6.29636 16.3273H11.5737C12.006 16.3275 12.4375 16.2899 12.8635 16.2149V13.2715C11.8337 13.218 10.8565 12.7908 10.1086 12.0672C9.36067 11.3436 8.89119 10.3712 8.78499 9.32565H6.62352C6.50503 9.32559 6.39146 9.2776 6.30768 9.19219C6.22389 9.10679 6.17675 8.99096 6.1767 8.87018C6.1767 7.35138 6.7686 5.89478 7.82215 4.82082C8.87571 3.74686 10.3047 3.14352 11.7946 3.14352C13.2846 3.14352 14.7135 3.74686 15.7671 4.82082C16.8206 5.89478 17.4125 7.35138 17.4125 8.87018C17.4125 10 16.987 11.0867 16.2238 11.9061C15.4607 12.7254 14.418 13.2148 13.3112 13.2733L13.3105 13.2735ZM16.9415 14.6672C15.9162 15.6193 14.6645 16.2815 13.3105 16.5881V16.6828L16.4773 19.9109C16.5179 19.9538 16.5404 20.0113 16.5399 20.0709C16.5394 20.1305 16.5159 20.1876 16.4745 20.2297C16.4331 20.2719 16.3772 20.2958 16.3187 20.2963C16.2601 20.2968 16.2038 20.2738 16.1617 20.2323L12.9314 16.9395C12.9101 16.9184 12.8931 16.8932 12.8816 16.8653C12.8701 16.8374 12.8642 16.8074 12.8643 16.7771V16.6758C12.438 16.7462 12.0067 16.7815 11.5748 16.7813H8.00949C8.43104 16.9936 8.81562 17.2749 9.14798 17.614L13.1829 21.7271C13.2649 21.8128 13.3104 21.928 13.3096 22.0477C13.3089 22.1674 13.2619 22.282 13.1788 22.3667C13.0958 22.4513 12.9834 22.4992 12.8659 22.5C12.7485 22.5008 12.6355 22.4544 12.5514 22.3708L8.5164 18.2575C8.19859 17.9315 7.82045 17.673 7.40386 17.4971C6.98727 17.3211 6.54058 17.2313 6.08966 17.2328H4.03833C3.91984 17.2327 3.80621 17.1847 3.72243 17.0993C3.63865 17.0139 3.59156 16.8981 3.59151 16.7773V13.9039H1.44408V13.9019C1.36619 13.9017 1.2897 13.8806 1.22228 13.8409C1.15486 13.8011 1.09884 13.744 1.05983 13.6753C1.02083 13.6065 1.00021 13.5286 1 13.4492C0.999796 13.3698 1.02003 13.2917 1.05868 13.2228L3.59193 8.74956C3.6087 7.49219 3.90344 6.25488 4.45415 5.12966C5.00486 4.00445 5.79736 3.02029 6.77275 2.25045C7.74815 1.48061 8.8813 0.944903 10.0879 0.683168C11.2944 0.421433 12.5434 0.440419 13.7418 0.738714C14.9402 1.03701 16.0571 1.60693 17.0096 2.40608C17.962 3.20523 18.7254 4.21302 19.243 5.35448C19.7605 6.49593 20.0189 7.74166 19.9989 8.99898C19.9789 10.2563 19.681 11.4928 19.1273 12.6166C19.1237 12.6243 19.1192 12.6324 19.1149 12.6401L17.0747 16.2421L18.5745 17.7709C18.6564 17.8566 18.702 17.9718 18.7012 18.0915C18.7004 18.2112 18.6534 18.3258 18.5704 18.4105C18.4873 18.4951 18.375 18.543 18.2575 18.5438C18.1401 18.5446 18.0271 18.4982 17.943 18.4146L16.202 16.6402C16.1275 16.5642 16.0817 16.4638 16.0729 16.3567C16.0641 16.2496 16.0927 16.1427 16.1537 16.0551L16.9413 14.6647L16.9415 14.6672ZM4.03059 12.9949V9.78882L2.21464 12.9949H4.03059ZM15.5134 11.3442C15.8325 11.0197 16.0857 10.6341 16.2582 10.2096C16.4307 9.78503 16.5192 9.32993 16.5187 8.87041C16.5188 7.6324 16.0513 6.44187 15.2131 5.54594C14.3749 4.65 13.2305 4.11746 12.0174 4.05886C10.8043 4.00026 9.61557 4.42008 8.69806 5.23121C7.78054 6.04233 7.20467 7.18246 7.08996 8.41494H9.20834C9.32683 8.415 9.44045 8.463 9.52423 8.5484C9.60802 8.63381 9.6551 8.74963 9.65516 8.87041C9.6555 9.79836 10.0171 10.6882 10.6606 11.3446C11.3041 12.0009 12.1769 12.37 13.0872 12.3709V12.3694C13.538 12.3699 13.9845 12.2797 14.4009 12.1038C14.8174 11.928 15.1957 11.67 15.514 11.3446L15.5134 11.3442Z" fill="black"/>
</g>
</svg>
