<svg width="22" height="23" viewBox="0 0 22 23" fill="none" xmlns="http://www.w3.org/2000/svg">
<g id="id_36" clip-path="url(#clip0_1341_19159)">
<g id="path3642">
<path id="Vector" d="M20.8834 13.0908C21.0865 12.9892 21.2557 12.8877 21.4249 12.7185C22.1019 12.0415 22.1019 10.9246 21.4249 10.2477L18.4465 7.26923L16.4157 5.23846C17.3296 4.86615 17.9388 3.98615 17.9388 2.97077C17.9388 1.61692 16.8219 0.5 15.468 0.5C14.1142 0.5 12.9973 1.61692 12.9973 2.97077C12.9973 3.71538 13.3019 4.35846 13.8096 4.79846C12.1511 5.40769 10.9326 6.89692 10.6957 8.65692L6.90495 7.60769L5.58495 5.30615C6.60033 5.00154 7.3111 4.05385 7.3111 2.97077C7.3111 1.44769 5.92341 0.263077 4.33264 0.567692C3.38495 0.736923 2.60649 1.54923 2.43726 2.53077C2.30187 3.44462 2.64033 4.25692 3.21572 4.79846C1.35418 5.47538 0.0341797 7.23538 0.0341797 9.33385V15.4262C0.0341797 15.6631 0.237257 15.8662 0.47418 15.8662H1.2188L0.135718 20.1646C-0.101205 21.1123 0.440334 22.06 1.38803 22.3308C1.52341 22.3646 1.69264 22.3985 1.82803 22.3985C2.13264 22.3985 2.43726 22.3308 2.70803 22.1615C3.11418 21.9246 3.41879 21.5523 3.52033 21.0785L4.02803 19.2169L4.53572 21.0785C4.6711 21.5185 4.94187 21.9246 5.34803 22.1615C5.75418 22.3985 6.22803 22.4662 6.70187 22.3308C7.64956 22.0938 8.1911 21.1123 7.95418 20.1646L6.66803 15.3246V11.1954L10.2557 12.1769C10.3911 12.2108 10.5603 12.2446 10.7296 12.2446H10.7634V15.3923C10.7634 15.6292 10.9665 15.8323 11.2034 15.8323H12.0496V21.8908C12.0496 22.1277 12.2526 22.3308 12.4896 22.3308H15.5357C15.7726 22.3308 15.9419 22.1615 15.9757 21.9246L16.8557 15.4262V15.3923L17.7357 11.4323L18.9542 12.6508C19.1234 12.82 19.2926 12.9215 19.4957 13.0231C19.0219 13.26 18.6834 13.8015 18.6834 14.3769V14.8169C18.6834 14.9523 18.785 15.0538 18.9203 15.0538C19.0557 15.0538 19.1573 14.9523 19.1573 14.8169V14.3769C19.1573 13.7677 19.6311 13.2938 20.2403 13.2938C20.8496 13.2938 21.3234 13.7677 21.3234 14.3769V22.1954C21.3234 22.3308 21.4249 22.4323 21.5603 22.4323C21.6957 22.4323 21.7973 22.3308 21.7973 22.1954V14.4446C21.6957 13.8692 21.3573 13.3615 20.8834 13.0908ZM15.5019 1.41385C16.348 1.41385 17.0588 2.12462 17.0588 2.97077C17.0588 3.81692 16.3819 4.52769 15.5019 4.52769C14.6219 4.52769 13.945 3.85077 13.945 2.97077C13.945 2.09077 14.6557 1.41385 15.5019 1.41385ZM3.38495 2.53077C3.52033 2.02308 3.92649 1.58308 4.46803 1.44769C5.65264 1.14308 6.70187 2.19231 6.36341 3.37692C6.22803 3.88462 5.82187 4.29077 5.28033 4.46C4.12956 4.76462 3.04649 3.71538 3.38495 2.53077ZM2.64033 20.8415C2.57264 21.0446 2.43726 21.2477 2.23418 21.3492C2.0311 21.4508 1.79418 21.4846 1.5911 21.4508C1.1511 21.3154 0.880334 20.8754 0.981872 20.4015L2.20033 15.8662H3.62187L3.7911 16.5431L2.64033 20.8415ZM7.04033 20.4015C7.17572 20.8415 6.90495 21.3154 6.4311 21.4508C6.22803 21.5185 5.9911 21.4846 5.78803 21.3492C5.58495 21.2477 5.44956 21.0446 5.38187 20.8415L4.63726 18.0323V17.9985L4.09572 15.8662H5.82187L7.04033 20.4015ZM11.4742 10.6877C11.4065 10.8908 11.2711 11.0938 11.068 11.1954C11.0342 11.2292 11.0003 11.2292 10.9665 11.2292C10.7973 11.2969 10.5942 11.2969 10.4249 11.2631L6.36341 10.1462L6.29572 10.1123L4.63726 9.63846C4.56956 9.60462 4.50187 9.57077 4.46803 9.50308L3.82495 8.52154C3.75726 8.42 3.62187 8.38615 3.52033 8.45385C3.41879 8.52154 3.38495 8.65692 3.45264 8.75846L4.09572 9.74C4.19726 9.90923 4.33264 10.0108 4.50187 10.0446L5.58495 10.3492C5.65264 10.3831 5.68649 10.4169 5.68649 10.5185V14.8846H0.948026V9.3C0.948026 7.23538 2.57264 5.54308 4.56956 5.40769L6.16033 8.18308C6.22803 8.28462 6.32956 8.38615 6.46495 8.42L10.8649 9.60461C10.8988 9.60461 10.9326 9.63846 10.9326 9.63846C10.9326 9.63846 10.9326 9.63846 10.9665 9.63846C11.1357 9.70615 11.3049 9.84154 11.3726 10.0108C11.508 10.2477 11.5419 10.4508 11.4742 10.6877ZM15.0957 21.4846H12.8957V15.8662H15.8403L15.0957 21.4846ZM19.5634 12.0754L18.3111 10.8231C18.3111 10.8231 18.3111 10.8231 18.3111 10.7892C18.3111 10.7892 18.3111 10.7892 18.3111 10.7554L15.7388 8.11538C15.6373 8.01385 15.5019 8.01385 15.4342 8.11538C15.3326 8.21692 15.3326 8.35231 15.4342 8.42L17.025 10.0446C17.0926 10.1123 17.0926 10.18 17.0926 10.2477L16.0434 14.8846H11.6434V11.8723C12.0157 11.6354 12.2865 11.2631 12.388 10.8569C12.5234 10.4169 12.4557 9.94308 12.2188 9.50308C12.0834 9.26615 11.8803 9.06308 11.6434 8.89385C11.8126 6.96461 13.4034 5.40769 15.3326 5.34L17.8034 7.81077L20.7819 10.7892C21.1203 11.1277 21.1203 11.6692 20.7819 12.0077C20.4434 12.4138 19.9019 12.4138 19.5634 12.0754Z" fill="black"/>
</g>
</g>
<defs>
<clipPath id="clip0_1341_19159">
<rect width="22" height="22" fill="white" transform="translate(0 0.5)"/>
</clipPath>
</defs>
</svg>
