<svg width="22" height="23" viewBox="0 0 22 23" fill="none" xmlns="http://www.w3.org/2000/svg">
<g id="id_30">
<path id="Vector" d="M11.6796 8.76168C12.6251 8.76194 13.5383 9.11782 14.2491 9.76304C14.9599 10.4083 15.4199 11.2988 15.5434 12.269C15.667 13.2391 15.4456 14.2226 14.9206 15.0363C14.3956 15.8501 13.6027 16.4387 12.6895 16.6924L14.5968 18.666C15.591 18.1348 16.4336 17.3433 17.0405 16.3705C17.6393 15.4078 17.9858 14.3004 18.0461 13.1571C18.1063 12.0138 17.8782 10.874 17.3841 9.84957C16.89 8.82513 16.1469 7.95133 15.2278 7.31397C14.3088 6.6766 13.2453 6.29761 12.1419 6.2142C12.1487 6.28125 12.1522 6.34863 12.1523 6.41605C12.152 6.83663 12.0175 7.24533 11.7697 7.57869C11.522 7.91205 11.1747 8.15142 10.782 8.25965V8.7612H11.6792L11.6796 8.76168ZM14.6761 21.5222C14.7859 21.5222 14.8933 21.4886 14.9847 21.4255C15.0761 21.3623 15.1474 21.2726 15.1896 21.1676C15.2317 21.0626 15.2429 20.947 15.2216 20.8355C15.2003 20.7239 15.1476 20.6214 15.07 20.5408L11.6796 17.0314L9.27746 19.5174C9.26254 19.5332 9.24659 19.548 9.22973 19.5616H9.22839L9.22036 19.5677L9.21836 19.5692L9.21144 19.5746L9.20877 19.5767L9.2023 19.5814L9.19895 19.5836C9.19682 19.585 9.19454 19.5864 9.19226 19.5876C9.19109 19.5881 9.19008 19.5888 9.18914 19.5897L9.18245 19.5937L9.17899 19.5959C9.17648 19.5973 9.17471 19.5985 9.17197 19.5999L9.16918 19.6013L9.16126 19.6053L9.15914 19.6067C9.15604 19.6085 9.15284 19.6101 9.14955 19.6115C9.08457 19.6449 9.01292 19.6621 8.94035 19.6618H4.82306C4.58765 19.6657 4.36317 19.7652 4.19802 19.9389C4.03287 20.1125 3.9403 20.3464 3.9403 20.5901C3.9403 20.8338 4.03287 21.0677 4.19802 21.2413C4.36317 21.415 4.58765 21.5145 4.82306 21.5184V21.5205H14.6763L14.6761 21.5222ZM15.7396 19.8483C15.9495 20.0656 16.0923 20.3424 16.1501 20.6438C16.2078 20.9451 16.1779 21.2575 16.064 21.5412C15.9501 21.8249 15.7574 22.0673 15.5103 22.2376C15.2632 22.4079 14.9729 22.4985 14.6761 22.4979H4.82284V22.5C4.33755 22.4944 3.87397 22.291 3.53271 21.9338C3.19146 21.5767 3 21.0947 3 20.5925C3 20.0902 3.19146 19.6082 3.53271 19.2511C3.87397 18.894 4.33755 18.6905 4.82284 18.6849H8.74441L10.5377 16.829H4.82351C4.69795 16.829 4.57753 16.7774 4.48874 16.6855C4.39995 16.5937 4.35012 16.469 4.35012 16.3391C4.35012 16.2091 4.39995 16.0845 4.48874 15.9926C4.57753 15.9007 4.69795 15.8491 4.82351 15.8491H11.6796C12.4623 15.8491 13.2129 15.5273 13.7663 14.9546C14.3197 14.3819 14.6306 13.6051 14.6306 12.7951C14.6306 11.9852 14.3197 11.2084 13.7663 10.6356C13.2129 10.0629 12.4623 9.74114 11.6796 9.74114H10.7828V13.5047C10.7827 13.6346 10.7327 13.7591 10.644 13.8509C10.5552 13.9427 10.4348 13.9943 10.3093 13.9944H5.86975C5.74419 13.9943 5.62379 13.9427 5.53498 13.8508C5.44617 13.759 5.39615 13.6344 5.39603 13.5044V3.58046C5.39615 3.45051 5.44617 3.32593 5.53498 3.23406C5.62379 3.14219 5.74419 3.09055 5.86975 3.09049H6.4832V0.744639C6.48317 0.712525 6.48919 0.680721 6.50105 0.651042C6.5129 0.621363 6.5303 0.594388 6.55223 0.571669C6.57416 0.54895 6.60029 0.530921 6.62895 0.518624C6.65762 0.506328 6.68825 0.5 6.71928 0.5H9.4599C9.49094 0.499969 9.52177 0.506281 9.55045 0.518567C9.57913 0.530852 9.60512 0.548872 9.62706 0.571597C9.649 0.594323 9.6664 0.621306 9.67825 0.650999C9.69009 0.680691 9.69615 0.712516 9.69609 0.744639V3.09049H10.3093C10.4349 3.09055 10.5552 3.1422 10.644 3.23408C10.7328 3.32595 10.7828 3.45053 10.7828 3.58046V4.57317C11.0969 4.66011 11.3831 4.83133 11.6127 5.06952C11.6589 5.11726 11.7025 5.1676 11.7433 5.22031C13.3541 5.23534 14.9152 5.79966 16.1848 6.82586C17.4543 7.85205 18.3614 9.28285 18.7657 10.8966C19.1699 12.5104 19.0487 14.2171 18.4208 15.7524C17.7929 17.2876 16.6933 18.5658 15.2924 19.3888L15.7391 19.8509L15.7396 19.8483ZM11.0879 5.95349C11.0873 5.95196 11.0863 5.9506 11.0851 5.94948C11.0458 5.88035 10.9985 5.81645 10.9442 5.75922C10.7831 5.5921 10.5666 5.49462 10.3386 5.48656C10.1107 5.47851 9.88835 5.56047 9.71661 5.71582C9.54487 5.87118 9.43663 6.08831 9.41384 6.32319C9.39106 6.55808 9.45535 6.79315 9.59383 6.98074C9.73231 7.16832 9.93458 7.29439 10.1596 7.33338C10.3845 7.37238 10.6154 7.32139 10.8053 7.19074C10.9953 7.06009 11.1302 6.85957 11.1826 6.62982C11.235 6.40007 11.2012 6.15829 11.0877 5.95349H11.0879ZM9.83705 11.2855H6.34269V13.0145H9.83705V11.2855ZM6.34269 10.7955H9.83705V8.25871C9.44474 8.15015 9.09799 7.9106 8.85069 7.57724C8.60339 7.24389 8.4693 6.83537 8.4693 6.4151C8.4693 5.99483 8.60339 5.58633 8.85069 5.25297C9.09799 4.91962 9.44474 4.68007 9.83705 4.57151V4.06925H6.34269V10.7951V10.7955ZM9.22293 3.09026V0.98997H6.95614V3.09072L9.22293 3.09026Z" fill="black"/>
</g>
</svg>
