<svg width="22" height="23" viewBox="0 0 22 23" fill="none" xmlns="http://www.w3.org/2000/svg">
<g id="id_37" clip-path="url(#clip0_1341_19165)">
<g id="g801">
<g id="path813">
<path id="Vector" d="M7.17533 12.5492C6.85943 12.5492 6.40815 12.459 6.09225 12.098C5.64097 11.6015 5.64097 10.7892 6.04712 9.66102C6.63379 8.12667 6.72405 6.54718 6.31789 5.01282L5.64097 2.53077C5.59584 2.39539 5.59584 2.21488 5.6861 2.07949C5.77636 1.94411 5.91174 1.85385 6.04712 1.80872L10.7405 0.500004C10.8758 0.454876 11.3271 0.409744 11.5528 1.1318L12.1846 3.34307C12.6358 4.92256 13.5384 6.27641 14.7569 7.17897C15.1179 7.44974 15.524 7.81077 15.4338 8.30718C15.3435 8.84872 14.7117 9.11949 13.764 9.48051C12.9969 9.79641 11.9138 10.2026 10.8307 10.9698C10.8307 10.9698 9.25123 12.0528 7.49123 12.5041C7.4461 12.5492 7.31071 12.5492 7.17533 12.5492ZM6.58866 2.62103L7.17533 4.78718C7.62661 6.45693 7.53636 8.26205 6.85943 9.97693C6.58866 10.699 6.54353 11.2856 6.72405 11.4662C6.85943 11.6467 7.22046 11.6015 7.26559 11.6015C8.79995 11.1503 10.2892 10.2026 10.3343 10.1574C11.5076 9.39026 12.6358 8.93898 13.4481 8.57795C13.8543 8.44256 14.3056 8.21692 14.4861 8.12667C14.441 8.08154 14.3507 7.99128 14.1702 7.8559C12.7712 6.81795 11.7784 5.2836 11.282 3.5236L10.6953 1.40257L6.58866 2.62103Z" fill="black"/>
</g>
<g id="path817">
<path id="Vector_2" d="M13.4483 22.4774H8.52934C8.39396 22.4774 7.94268 22.4323 7.94268 21.6651V19.3636C7.94268 17.739 7.44627 16.1595 6.49858 14.9862C6.22781 14.6251 5.95704 14.1738 6.13755 13.7226C6.36319 13.181 7.04011 13.1359 8.03293 13.0005C8.89037 12.9103 10.0186 12.7749 11.2822 12.3687C11.2822 12.3687 13.1324 11.7821 14.8924 11.7821C15.0729 11.7821 15.8401 11.9174 16.156 12.5492C16.4719 13.1359 16.2463 13.9482 15.5242 14.8959C14.5314 16.2046 14.035 17.739 14.035 19.2733V21.8456C14.035 22.2067 13.7642 22.4774 13.4483 22.4774ZM8.84524 21.62H13.1324V19.3636C13.1324 17.6036 13.7191 15.9338 14.8022 14.4446C15.2534 13.8128 15.4791 13.3164 15.3437 13.0456C15.2534 12.82 14.8924 12.7749 14.8473 12.7749C13.2227 12.7749 11.5529 13.3164 11.5078 13.3164C10.154 13.7677 8.98063 13.9031 8.07806 13.9933C7.67191 14.0385 7.13037 14.0836 6.94986 14.1738C6.99499 14.219 7.04011 14.3544 7.1755 14.5349C8.21345 15.8887 8.80011 17.6487 8.80011 19.499V21.62H8.84524Z" fill="black"/>
</g>
<g id="Group">
<g id="path821">
<path id="Vector_3" d="M5.32517 15.618C5.23491 15.618 5.18978 15.5728 5.14466 15.5277C4.28722 14.3544 3.83594 12.9554 3.83594 11.5113C3.83594 10.0672 4.28722 8.66822 5.14466 7.49489C5.23491 7.40463 5.3703 7.3595 5.46055 7.44975C5.55081 7.54001 5.59594 7.6754 5.50568 7.76566C4.69337 8.89386 4.28722 10.1574 4.28722 11.5564C4.28722 12.9103 4.69337 14.219 5.50568 15.3472C5.59594 15.4374 5.55081 15.5728 5.46055 15.6631C5.41542 15.618 5.3703 15.618 5.32517 15.618Z" fill="black"/>
</g>
<g id="path821_00000062171819675730883990000017292538270755988370_">
<path id="Vector_4" d="M4.46801 16.5205C4.37775 16.5205 4.33262 16.4754 4.28749 16.4303C3.24955 14.9861 2.70801 13.2713 2.70801 11.5113C2.70801 9.70615 3.24955 8.03641 4.28749 6.59231C4.37775 6.50205 4.51314 6.45692 4.60339 6.54718C4.69365 6.63743 4.73878 6.77282 4.64852 6.86308C3.6557 8.21693 3.15929 9.84154 3.15929 11.5564C3.15929 13.2713 3.70083 14.8508 4.64852 16.2497C4.73878 16.34 4.69365 16.4754 4.60339 16.5656C4.55826 16.5205 4.51314 16.5205 4.46801 16.5205Z" fill="black"/>
</g>
<g id="path821_00000144321569591969127640000014504616258238421405_">
<path id="Vector_5" d="M16.6975 15.618C16.6524 15.618 16.6072 15.618 16.5621 15.5728C16.4718 15.4826 16.4267 15.3472 16.517 15.2569C17.3293 14.1287 17.7354 12.8651 17.7354 11.4662C17.7354 10.0672 17.3293 8.8036 16.517 7.67539C16.4267 7.58514 16.4718 7.44976 16.5621 7.3595C16.6524 7.26925 16.7877 7.31436 16.878 7.40462C17.7354 8.57795 18.1867 9.97694 18.1867 11.421C18.1867 12.8651 17.7354 14.2641 16.878 15.4374C16.8329 15.5728 16.7426 15.618 16.6975 15.618Z" fill="black"/>
</g>
<g id="path821_00000033337177275200266140000002521289560432767113_">
<path id="Vector_6" d="M17.5549 16.5205C17.5098 16.5205 17.4646 16.5205 17.4195 16.4754C17.3293 16.3851 17.2841 16.2498 17.3744 16.1595C18.3672 14.8057 18.8636 13.181 18.8636 11.4662C18.8636 9.75129 18.3221 8.1718 17.3744 6.77283C17.2841 6.68257 17.3293 6.5472 17.4195 6.45694C17.5098 6.36668 17.6452 6.4118 17.7354 6.50206C18.7734 7.94616 19.3149 9.66104 19.3149 11.421C19.3149 13.181 18.7734 14.8959 17.7354 16.34C17.6903 16.4754 17.6 16.5205 17.5549 16.5205Z" fill="black"/>
</g>
</g>
</g>
</g>
<defs>
<clipPath id="clip0_1341_19165">
<rect width="22" height="22" fill="white" transform="translate(0 0.5)"/>
</clipPath>
</defs>
</svg>
