<svg width="22" height="23" viewBox="0 0 22 23" fill="none" xmlns="http://www.w3.org/2000/svg">
<g id="id_35" clip-path="url(#clip0_1341_19152)">
<g id="g618">
<g id="path630">
<path id="Vector" d="M16.3366 15.3923H16.0207C16.7427 14.3544 17.194 13.1359 17.194 11.7821V10.7892H18.3222C18.593 10.7892 18.7735 10.5636 18.7735 10.3379V7.67538C18.7735 7.44974 18.593 7.2241 18.3222 7.2241H17.4196C17.2391 4.69692 15.6145 2.48564 13.2227 1.62821V0.996416C13.2227 0.725647 12.9971 0.545134 12.7714 0.545134H9.25143C8.98066 0.545134 8.80015 0.725647 8.80015 0.996416V1.62821C6.40836 2.48564 4.78374 4.69692 4.60323 7.2241H3.70066C3.42989 7.2241 3.24938 7.40461 3.24938 7.67538V10.3379C3.24938 10.6087 3.42989 10.7892 3.70066 10.7892H4.82887V11.7821C4.82887 13.1359 5.28015 14.3995 6.0022 15.3923H5.68631C2.61759 15.3923 0.180664 17.8744 0.180664 20.898V22.2518C0.180664 22.3872 0.27092 22.4774 0.406305 22.4774H21.6617C21.7971 22.4774 21.8873 22.3872 21.8873 22.2518V20.898C21.8873 17.8744 19.4053 15.3923 16.3366 15.3923ZM16.5171 7.2241H13.2227V2.5759C15.073 3.38821 16.3817 5.1482 16.5171 7.2241ZM9.65759 1.40257H12.3202V7.2241H9.65759V1.40257ZM8.75502 2.5759V7.2241H5.46066C5.64118 5.1482 6.90477 3.38821 8.75502 2.5759ZM4.15195 9.84155V8.08154H17.8709V9.84155H4.15195ZM5.95707 22.0713H0.54169V20.9431C0.54169 18.1451 2.84323 15.8436 5.64118 15.8436H6.0022C6.0022 15.8887 5.95707 15.9338 5.95707 15.979V22.0713C5.95707 22.0261 5.95707 22.0261 5.95707 22.0713ZM5.23502 11.7369V10.7441H16.7878V11.7369C16.7878 14.941 14.2155 17.5133 11.0114 17.5133C9.25143 17.5133 7.67195 16.701 6.58887 15.4374C5.73143 14.4897 5.23502 13.181 5.23502 11.7369ZM6.85964 22.0713C6.85964 22.0261 6.85964 22.0261 6.85964 22.0713V16.3851C7.94272 17.378 9.43195 17.9646 11.0114 17.9646C12.5909 17.9646 14.0801 17.378 15.1632 16.3851V21.981V22.0262H6.85964V22.0713ZM21.436 22.0713H16.0207V22.0262V16.0241C16.0207 15.979 16.0207 15.8887 15.9755 15.8436H16.3366C19.1345 15.8436 21.436 18.1451 21.436 20.9431V22.0713Z" fill="black"/>
</g>
</g>
</g>
<defs>
<clipPath id="clip0_1341_19152">
<rect width="22" height="22" fill="white" transform="translate(0 0.5)"/>
</clipPath>
</defs>
</svg>
