<svg width="22" height="23" viewBox="0 0 22 23" fill="none" xmlns="http://www.w3.org/2000/svg">
<g id="id_38" clip-path="url(#clip0_1341_19183)">
<g id="Layer_2">
<g id="Group">
<path id="Vector" d="M17.6003 16.2385C20.5788 12.0754 20.545 9.36769 20.545 9.26615V8.72461C20.545 3.85076 16.2803 -0.0753893 11.2711 0.567688C7.10804 1.07538 4.06189 4.69692 4.06189 8.86V8.89384L1.52343 13.26C1.45573 13.3954 1.45573 13.5646 1.52343 13.7C1.59112 13.8354 1.76035 13.9369 1.92958 13.9369H4.06189V16.78C4.06189 17.0169 4.26496 17.22 4.50189 17.22H6.43112C6.93881 17.22 7.41266 17.3215 7.85266 17.4908C8.46189 17.7277 9.00342 18.1 9.44342 18.5738C10.4588 19.6569 12.2865 21.5861 13.0311 22.3308C13.2003 22.5 13.505 22.5338 13.6742 22.3308C13.8434 22.1615 13.8773 21.8569 13.6742 21.6877C12.9296 20.9092 11.1357 19.0138 10.0865 17.9308C9.61266 17.4231 9.07112 17.0169 8.46189 16.7461H11.2034C11.2034 16.7461 11.305 16.7461 11.4403 16.7461C12.2865 16.7461 15.2988 16.6108 17.5327 14.6477C17.2619 15.0538 16.9911 15.4938 16.6527 15.9338C16.5173 16.1031 16.5173 16.3738 16.6865 16.5092L18.7511 18.6754C18.9203 18.8446 19.225 18.8785 19.3942 18.6754C19.5634 18.5061 19.5973 18.2015 19.3942 18.0323L17.6003 16.2385ZM2.70804 13.0231L4.53573 9.90923V13.0231H2.70804ZM11.2373 16.34H6.5665C6.53266 16.34 6.49881 16.34 6.46496 16.34H5.00958V8.92769C5.00958 4.96769 8.08958 1.58307 12.0496 1.44769C16.1788 1.27846 19.6311 4.59538 19.6311 8.72461V9.26615C19.6311 9.26615 19.6311 10.3831 18.8527 12.2108C16.7542 16.6108 11.305 16.34 11.2373 16.34Z" fill="black"/>
<path id="Vector_2" d="M13.6743 12.4815C11.7789 12.4815 10.222 10.9246 10.222 9.02923C10.222 7.4723 11.4743 6.22 13.0312 6.22C14.2835 6.22 15.2989 7.23538 15.2989 8.48769C15.2989 8.62307 15.1974 8.72461 15.062 8.72461C14.9266 8.72461 14.8251 8.62307 14.8251 8.48769C14.8251 7.47231 14.0128 6.66 12.9974 6.66C11.7112 6.66 10.662 7.70923 10.662 8.99538C10.662 10.6538 12.0159 11.9738 13.6405 11.9738C15.7389 11.9738 17.4312 10.2815 17.4312 8.18307C17.4312 5.54307 15.2651 3.37692 12.6251 3.37692C9.27431 3.37692 6.56662 6.08461 6.56662 9.43538C6.56662 9.57077 6.46508 9.67231 6.3297 9.67231C6.19431 9.67231 6.09277 9.57077 6.09277 9.43538C6.09277 5.84769 9.00354 2.93692 12.5912 2.93692C15.502 2.93692 17.8374 5.30615 17.8374 8.18307C17.9389 10.5862 16.0097 12.4815 13.6743 12.4815Z" fill="black"/>
</g>
</g>
</g>
<defs>
<clipPath id="clip0_1341_19183">
<rect width="22" height="22" fill="white" transform="translate(0 0.5)"/>
</clipPath>
</defs>
</svg>
