<svg width="22" height="23" viewBox="0 0 22 23" fill="none" xmlns="http://www.w3.org/2000/svg">
<g id="id_45" clip-path="url(#clip0_1341_19241)">
<g id="Group">
<g id="path35">
<path id="Vector" d="M21.932 4.93386L19.732 2.73386L17.532 0.533862C17.4643 0.46617 17.2951 0.46617 17.2274 0.533862C17.1597 0.601555 17.1597 0.770786 17.2274 0.838478L19.2581 2.86925L15.8058 6.38925L13.8089 4.39232L12.7258 3.30925C12.5566 3.14002 12.2858 3.14002 12.1166 3.30925C11.9474 3.47848 11.9474 3.74925 12.1166 3.91848L12.8951 4.69694L4.1966 13.3954C3.85814 13.7339 3.65506 14.2077 3.65506 14.7154C3.65506 15.1892 3.82429 15.6292 4.12891 15.9677L2.09814 17.9985C1.92891 18.1677 1.92891 18.4385 2.09814 18.6077L2.84276 19.3523L0.0673708 22.1277C-0.000321513 22.1954 -0.000321513 22.3646 0.0673708 22.4323C0.101217 22.4662 0.168909 22.5 0.202755 22.5C0.270448 22.5 0.304294 22.4662 0.371986 22.4323L3.14737 19.6569L3.89199 20.4016C3.95968 20.4692 4.09506 20.5369 4.1966 20.5369C4.29814 20.5369 4.43352 20.5031 4.50122 20.4016L6.53199 18.3708C6.87045 18.6754 7.34429 18.8446 7.78429 18.8446C8.25814 18.8446 8.73199 18.6754 9.10429 18.3031L17.8028 9.60463L18.5812 10.3831C18.6489 10.4508 18.7843 10.5185 18.8858 10.5185C18.9874 10.5185 19.1228 10.4846 19.1904 10.3831C19.3597 10.2139 19.3597 9.94309 19.1904 9.77386L18.1074 8.69079L16.1104 6.69386L19.5966 3.20771L21.6274 5.23848C21.6612 5.27232 21.7289 5.30617 21.7966 5.30617C21.8643 5.30617 21.8981 5.27232 21.9658 5.23848C22.0335 5.17079 22.0335 5.0354 21.932 4.93386ZM4.1966 19.4539L3.04583 18.3031L4.73814 16.6108L5.92276 17.7954L4.1966 19.4539ZM17.1935 8.9954L15.6704 10.4846L14.9258 9.74002C14.8581 9.67232 14.6889 9.67232 14.6212 9.74002C14.5535 9.80771 14.5535 9.97694 14.6212 10.0446L15.3658 10.7892L13.7074 12.4477L12.9628 11.7031C12.8951 11.6354 12.7597 11.6354 12.6581 11.7031C12.5566 11.7708 12.5904 11.94 12.6581 12.0077L13.4028 12.7523L11.7443 14.4108L10.9658 13.6323C10.8981 13.5646 10.7628 13.5646 10.6612 13.6323C10.5935 13.7 10.5935 13.8692 10.6612 13.9369L11.4058 14.6816L9.78122 16.4077L9.00276 15.6631C8.93506 15.5954 8.79968 15.5954 8.69814 15.6631C8.5966 15.7308 8.63045 15.9 8.69814 15.9677L9.4766 16.7462L8.46122 17.6939C8.08891 18.0662 7.44583 18.0662 7.07352 17.6939L4.80583 15.4262C4.6366 15.2231 4.50122 14.9862 4.50122 14.7154C4.50122 14.4446 4.60276 14.2077 4.80583 14.0046L13.5043 5.30617L17.1935 8.9954Z" fill="black"/>
</g>
</g>
</g>
<defs>
<clipPath id="clip0_1341_19241">
<rect width="22" height="22" fill="white" transform="translate(0 0.5)"/>
</clipPath>
</defs>
</svg>
