<svg width="22" height="23" viewBox="0 0 22 23" fill="none" xmlns="http://www.w3.org/2000/svg">
<g id="id_42">
<g id="Group">
<path id="Vector" d="M16.2123 22.5H5.78766C5.55073 22.5 5.34766 22.297 5.34766 22.06V19.7246C5.34766 19.1154 5.85535 18.6077 6.46458 18.6077H15.603C16.2123 18.6077 16.72 19.1154 16.72 19.7246V22.06C16.6861 22.297 16.483 22.5 16.2123 22.5ZM6.22766 21.5862H15.7723V19.6908C15.7723 19.5893 15.6707 19.4877 15.5692 19.4877H6.43073C6.32919 19.4877 6.22766 19.5893 6.22766 19.6908V21.5862Z" fill="black"/>
<path id="Vector_2" d="M4.46753 16.4415C2.40291 16.4415 0.676758 14.7492 0.676758 12.6507V11.9738H8.29214V12.6507C8.29214 14.7492 6.56599 16.4415 4.46753 16.4415ZM1.11676 12.4138V12.6507C1.11676 14.5123 2.63983 16.0015 4.46753 16.0015C6.29522 16.0015 7.8183 14.4784 7.8183 12.6507V12.4138H1.11676Z" fill="black"/>
<path id="Vector_3" d="M17.4714 16.4415C15.4068 16.4415 13.6807 14.7492 13.6807 12.6507V11.9738H21.296V12.6507C21.296 14.7492 19.5699 16.4415 17.4714 16.4415ZM14.1207 12.4138V12.6507C14.1207 14.5123 15.6437 16.0015 17.4714 16.0015C19.2991 16.0015 20.8222 14.4784 20.8222 12.6507V12.4138H14.1207Z" fill="black"/>
<path id="Vector_4" d="M8.29214 11.9738V12.1769H7.85214V11.9738C7.85214 11.7369 7.8183 11.5 7.71676 11.2631L4.50137 4.05384L1.28599 11.2631C1.18445 11.5 1.11676 11.7369 1.11676 11.9738V12.0754H0.676758V11.9738C0.676758 11.6692 0.74445 11.3646 0.879835 11.0938L4.2983 3.44461L4.46753 3.54615L4.6706 3.44461L8.08907 11.0938C8.22445 11.3646 8.29214 11.6692 8.29214 11.9738Z" fill="black"/>
<path id="Vector_5" d="M21.296 11.9738V12.1769H20.856V11.9738C20.856 11.7369 20.8222 11.5 20.7207 11.2631L17.5053 4.05384L14.2899 11.2631C14.1884 11.5 14.1207 11.7369 14.1207 11.9738V12.0754H13.6807V11.9738C13.6807 11.6692 13.7484 11.3646 13.8837 11.0938L17.3022 3.44461L17.4714 3.54615L17.6745 3.44461L21.093 11.0938C21.2284 11.3646 21.296 11.6692 21.296 11.9738Z" fill="black"/>
<path id="Vector_6" d="M21.5262 3.9862H0.473846C0.203077 3.9862 0 3.78312 0 3.5462C0 3.30928 0.203077 3.1062 0.44 3.1062H21.5262C21.7969 3.07235 22 3.27543 22 3.5462C22 3.81697 21.7969 3.9862 21.5262 3.9862Z" fill="black"/>
<path id="Vector_7" d="M11.4734 3.54617H10.5596V19.2169H11.4734V3.54617Z" fill="black"/>
<path id="Vector_8" d="M10.9996 3.95231C10.0519 3.95231 9.27344 3.17385 9.27344 2.22615C9.27344 1.27846 10.0519 0.5 10.9996 0.5C11.9473 0.5 12.7257 1.27846 12.7257 2.22615C12.7257 3.17385 11.9473 3.95231 10.9996 3.95231ZM10.9996 1.41385C10.5596 1.41385 10.1873 1.78615 10.1873 2.22615C10.1873 2.66615 10.5596 3.03846 10.9996 3.03846C11.4396 3.03846 11.8119 2.66615 11.8119 2.22615C11.8119 1.78615 11.4396 1.41385 10.9996 1.41385Z" fill="black"/>
</g>
</g>
</svg>
