<svg width="22" height="23" viewBox="0 0 22 23" fill="none" xmlns="http://www.w3.org/2000/svg">
<g id="id_47" clip-path="url(#clip0_1341_19257)">
<g id="g1476">
<g id="path1492">
<path id="Vector" d="M21.9778 20.0856L21.3911 17.9195C21.7972 17.1974 21.9778 16.34 21.9778 15.4826C21.9778 13.181 20.4885 11.1954 18.2772 10.5185C17.7808 5.87025 13.8547 2.30512 9.16135 2.30512C4.10699 2.35025 0.000321515 6.45691 0.000321515 11.5113C0.000321515 13.0456 0.406475 14.58 1.12853 15.9338L0.000321515 20.0856C-0.0448067 20.221 0.000321511 20.4015 0.135706 20.5369C0.225963 20.6272 0.316219 20.6723 0.451604 20.6723C0.496732 20.6723 0.54186 20.6723 0.586988 20.6723L4.73878 19.5441C6.09263 20.3113 7.62699 20.6723 9.16135 20.6723C10.6957 20.6723 12.2301 20.2661 13.5839 19.5441C14.4865 20.2661 15.6147 20.6723 16.788 20.6723C17.6454 20.6723 18.4578 20.4467 19.2249 20.0856L21.3911 20.6723C21.4362 20.6723 21.4813 20.6723 21.5265 20.6723C21.6619 20.6723 21.7521 20.6272 21.8424 20.5369C21.9778 20.4467 22.0229 20.2661 21.9778 20.0856ZM13.4034 18.5964C12.1398 19.3636 10.6506 19.7697 9.16135 19.7697C7.71724 19.7697 6.27314 19.3636 5.00955 18.6415C4.9193 18.5964 4.87417 18.5964 4.78391 18.5964C4.73878 18.5964 4.69366 18.5964 4.64853 18.5964L1.0834 19.5892L2.07622 16.0241C2.12135 15.8887 2.07622 15.7985 2.03109 15.6631C1.30904 14.3995 0.902885 12.9554 0.902885 11.5113C0.902885 6.95332 4.6034 3.25281 9.16135 3.25281C13.4937 3.25281 17.1039 6.63743 17.4198 10.9697C17.4198 11.1503 17.4198 11.3308 17.4198 11.5564C17.4649 14.3995 15.9306 17.1072 13.4034 18.5964ZM20.4885 18.0097L20.9398 19.5892L19.3603 19.1379C19.2249 19.0928 19.1347 19.1379 18.9993 19.1831C18.3675 19.5441 17.6003 19.7697 16.8331 19.7697C15.9757 19.7697 15.1183 19.499 14.4413 19.0477C14.667 18.8672 14.9378 18.6867 15.1634 18.5061C15.2085 18.461 15.2988 18.4159 15.3439 18.3256C15.5244 18.1451 15.7049 17.9646 15.8854 17.7841C15.9306 17.739 16.0208 17.6487 16.066 17.6036C16.2013 17.4682 16.3367 17.2877 16.427 17.1523C16.4721 17.1072 16.5172 17.0169 16.5624 16.9718C16.6978 16.7913 16.788 16.6108 16.9234 16.4302C17.0137 16.2949 17.1039 16.1595 17.149 16.0241C17.3295 15.6631 17.5101 15.302 17.6906 14.8959C17.7357 14.8508 17.7357 14.7605 17.7808 14.7154C17.826 14.6251 17.826 14.5349 17.8711 14.4446C17.9162 14.3543 17.9162 14.2641 17.9613 14.1738C18.0516 13.8579 18.1419 13.4969 18.187 13.181C18.187 13.0908 18.2321 13.0005 18.2321 12.9102C18.2321 12.82 18.2321 12.7749 18.2772 12.6846C18.2772 12.6395 18.2772 12.5492 18.3224 12.5041C18.3675 12.1882 18.3675 11.8723 18.3675 11.5113C19.9921 12.1431 21.1203 13.7226 21.1203 15.4826C21.1203 16.2497 20.9398 16.9718 20.5337 17.6487C20.4434 17.739 20.4434 17.8743 20.4885 18.0097Z" fill="black"/>
</g>
<g id="path1496">
<path id="Vector_2" d="M12.6815 8.21695L12.6364 8.17182C11.6887 7.22413 10.1544 7.22413 9.25179 8.17182L6.04768 11.3759C5.09999 12.3236 5.09999 13.858 6.04768 14.7605L6.09281 14.8057C6.54409 15.257 7.17589 15.5277 7.80768 15.5277C8.43948 15.5277 9.02615 15.3021 9.52256 14.8057L12.7267 11.6016C13.6292 10.699 13.6292 9.16464 12.6815 8.21695ZM9.16153 14.5349C8.8005 14.8959 8.25897 15.1216 7.76256 15.1216C7.26615 15.1216 6.76973 14.9411 6.36358 14.5349L6.31845 14.4898C5.55127 13.7226 5.55127 12.459 6.31845 11.6918L7.76256 10.2477L10.6056 13.0908L9.16153 14.5349ZM12.3656 11.3308L10.9215 12.7749L8.07845 9.93182L9.52256 8.48772C9.88358 8.1267 10.4251 7.90105 10.9215 7.90105C11.4179 7.90105 11.9143 8.08157 12.3205 8.48772L12.3656 8.53284C13.1328 9.30002 13.1328 10.5636 12.3656 11.3308Z" fill="black"/>
</g>
</g>
</g>
<defs>
<clipPath id="clip0_1341_19257">
<rect width="22" height="22" fill="white" transform="translate(0 0.5)"/>
</clipPath>
</defs>
</svg>
