<svg width="22" height="23" viewBox="0 0 22 23" fill="none" xmlns="http://www.w3.org/2000/svg">
<g id="id_40">
<path id="Vector" d="M19.062 8.41847L3.64613 17.5107L5.38151 18.5345C5.45805 18.5793 5.52163 18.644 5.56583 18.722C5.61003 18.8 5.63326 18.8885 5.63319 18.9787H5.63538V21.0254L18.0012 13.732C18.3817 13.5082 18.6952 13.1825 18.9079 12.7901C19.1206 12.3976 19.2244 11.9534 19.2081 11.5051C19.2075 11.4863 19.208 11.4675 19.2096 11.4487V10.0451C19.2081 10.0302 19.2074 10.0151 19.2074 10.0002C19.2076 9.46933 19.1588 8.93968 19.0615 8.41822L19.062 8.41847ZM20.2123 11.5069C20.2271 12.1301 20.0793 12.7462 19.7838 13.2918C19.484 13.8454 19.0417 14.3048 18.5049 14.6203L16.9463 15.5395L19.535 17.0658C19.6119 17.1109 19.6757 17.176 19.7199 17.2545C19.7641 17.333 19.7871 17.4221 19.7866 17.5127C19.7861 17.6032 19.7621 17.692 19.7171 17.77C19.672 17.848 19.6075 17.9124 19.5301 17.9567L17.3001 19.2715V21.9138C17.3 22.0503 17.2469 22.1811 17.1525 22.2777C17.058 22.3742 16.9298 22.4284 16.7962 22.4285C16.6916 22.4289 16.5895 22.3957 16.5044 22.3336L10.9651 19.0666L5.41458 22.3401C5.33874 22.3922 5.25044 22.4222 5.15916 22.427C5.06788 22.4319 4.97704 22.4112 4.89635 22.3674C4.81567 22.3235 4.74819 22.258 4.70111 22.178C4.65403 22.098 4.62914 22.0064 4.62909 21.913V19.2708L2.41998 17.9678C2.33858 17.9266 2.26961 17.8637 2.22046 17.7857C2.17131 17.7077 2.14379 17.6175 2.14085 17.5247C2.1379 17.432 2.15965 17.3401 2.20375 17.259C2.24785 17.1779 2.31266 17.1105 2.39128 17.0641L4.98122 15.5363L3.45059 14.6332L3.42262 14.6184C2.89388 14.3065 2.45656 13.8556 2.15616 13.3126C1.85577 12.7696 1.70328 12.1543 1.7145 11.5307C1.71304 11.5165 1.71301 11.5021 1.71301 11.4877V9.99867C1.70676 8.75359 1.94143 7.51952 2.40354 6.36737C2.86564 5.21523 3.54608 4.16772 4.40573 3.28505C5.26539 2.40238 6.28732 1.70193 7.4128 1.22398C8.53828 0.746026 9.74512 0.5 10.964 0.5C12.1828 0.5 13.3897 0.746026 14.5152 1.22398C15.6406 1.70193 16.6626 2.40238 17.5222 3.28505C18.3819 4.16772 19.0623 5.21523 19.5244 6.36737C19.9865 7.51952 20.2212 8.75359 20.2149 9.99867C20.2149 10.0136 20.2149 10.0295 20.2127 10.0436V11.5051L20.2123 11.5069ZM2.71883 11.5262C2.70642 11.9711 2.81215 12.411 3.02477 12.7994C3.2374 13.1878 3.54901 13.5102 3.92651 13.7322C3.93551 13.7372 3.94401 13.7429 3.95252 13.7486L5.98485 14.9473L9.96071 12.6021L2.86572 8.41798C2.76842 8.93968 2.71957 9.46959 2.71981 10.0007V11.49C2.7203 11.5006 2.71956 11.5128 2.71883 11.525V11.5262ZM14.8254 9.73212C14.7595 8.73188 14.324 7.79461 13.6071 7.10997C12.8902 6.42534 11.9455 6.0445 10.9641 6.0445C9.98272 6.0445 9.03801 6.42534 8.32113 7.10997C7.60425 7.79461 7.16876 8.73188 7.10279 9.73212L10.9634 12.0089L14.8259 9.73087L14.8254 9.73212ZM6.15385 9.17392C6.34537 8.01214 6.93365 6.95726 7.81427 6.19649C8.6949 5.43573 9.81091 5.01831 10.9642 5.01831C12.1175 5.01831 13.2335 5.43573 14.1142 6.19649C14.9948 6.95726 15.5831 8.01214 15.7746 9.17392L18.8035 7.38775C18.263 5.69917 17.2138 4.22836 15.8059 3.18546C14.3979 2.14257 12.7033 1.581 10.9642 1.581C9.2251 1.581 7.53049 2.14257 6.12256 3.18546C4.71463 4.22836 3.66546 5.69917 3.12496 7.38775L6.15385 9.17392ZM15.9443 16.131L11.9685 18.4761L16.2931 21.0262V18.9764H16.2952C16.2952 18.8863 16.3185 18.7978 16.3627 18.7198C16.4069 18.6418 16.4704 18.5771 16.547 18.5323L18.2835 17.5078L15.9451 16.1285L15.9443 16.131Z" fill="black"/>
</g>
</svg>
