<svg width="22" height="23" viewBox="0 0 22 23" fill="none" xmlns="http://www.w3.org/2000/svg">
<g id="id_43" clip-path="url(#clip0_1341_19218)">
<g id="Layer_2">
<g id="Group">
<g id="Group_2">
<path id="Vector" d="M21.8304 9.23231L11.2704 0.601538C11.1012 0.466154 10.8643 0.466154 10.695 0.601538L1.3535 8.31846L0.168883 9.3C-0.0341939 9.46923 -0.0341939 9.74 0.101191 9.94308C0.202729 10.0446 0.338114 10.1123 0.439652 10.1123C0.541191 10.1123 0.642729 10.0785 0.710422 10.0108L1.11658 9.67231V22.06C1.11658 22.1954 1.18427 22.2969 1.25196 22.3985C1.3535 22.5 1.45504 22.5338 1.59042 22.5C1.86119 22.4662 8.25811 21.9246 10.932 19.6908C13.6058 21.8908 20.0027 22.4662 20.2735 22.5H20.3073C20.4089 22.5 20.5443 22.4662 20.612 22.3646C20.7135 22.2631 20.7473 22.1615 20.7473 22.0262V9.60462L21.1535 9.94308C21.3566 10.1123 21.6273 10.0785 21.7966 9.87539C22.0335 9.67231 21.9997 9.40154 21.8304 9.23231ZM5.92273 12.8538C5.92273 11.6692 6.39658 10.8231 7.24273 10.4508C7.54734 10.3154 7.88581 10.2477 8.25811 10.2477C9.10427 10.2477 10.0181 10.62 10.695 11.2631C10.8643 11.4323 11.135 11.4323 11.3043 11.2631C12.2858 10.3154 13.7073 9.97692 14.7566 10.4508C15.6027 10.8231 16.0766 11.6692 16.0766 12.8538C16.0766 15.6631 11.9473 18.0323 10.9997 18.5738C10.052 18.0662 5.92273 15.6631 5.92273 12.8538ZM19.935 21.5523C18.4458 21.3831 13.9104 20.74 11.7781 19.1831C13.2673 18.3369 16.9566 15.9 16.9566 12.8877C16.9566 11.3646 16.2797 10.18 15.095 9.63846C13.8427 9.09692 12.2181 9.36769 10.9658 10.3492C9.7135 9.36769 8.12273 9.06308 6.83658 9.63846C5.65196 10.1462 4.97504 11.3308 4.97504 12.8877C4.97504 15.9338 8.69811 18.3369 10.1535 19.1831C8.02119 20.74 3.48581 21.3831 1.99658 21.5523V8.89385L10.9997 1.54923L19.935 8.86V21.5523Z" fill="black"/>
</g>
<g id="Group_3">
<path id="Vector_2" d="M10.9996 16.6446C10.8642 16.6446 10.7627 16.5431 10.7627 16.4077V12.7523C10.7627 12.6169 10.8642 12.5154 10.9996 12.5154C11.135 12.5154 11.2365 12.6169 11.2365 12.7523V16.4415C11.2365 16.5431 11.135 16.6446 10.9996 16.6446Z" fill="black"/>
</g>
<g id="Group_4">
<path id="Vector_3" d="M12.8614 14.8169H9.13829C9.00291 14.8169 8.90137 14.7154 8.90137 14.58C8.90137 14.4446 9.03675 14.3769 9.13829 14.3769H12.8614C12.9968 14.3769 13.0983 14.4785 13.0983 14.6138C13.0983 14.7492 12.9629 14.8169 12.8614 14.8169Z" fill="black"/>
</g>
</g>
</g>
</g>
<defs>
<clipPath id="clip0_1341_19218">
<rect width="22" height="22" fill="white" transform="translate(0 0.5)"/>
</clipPath>
</defs>
</svg>
