<svg width="22" height="23" viewBox="0 0 22 23" fill="none" xmlns="http://www.w3.org/2000/svg">
<g id="id_41">
<path id="Path 1173" d="M11.8711 5.072C11.8354 5.10688 11.7942 5.1356 11.7491 5.157C11.6914 5.1841 11.6288 5.19907 11.5651 5.201H11.5291C11.4652 5.20084 11.4022 5.18578 11.3451 5.157C11.3 5.1356 11.2588 5.10688 11.2231 5.072C11.2161 5.065 11.2121 5.057 11.2051 5.054C11.1791 5.025 11.1421 4.984 11.0981 4.936C11.0761 4.914 11.0391 4.873 10.9841 4.818C10.5013 4.33352 9.92742 3.94942 9.29547 3.68785C8.66352 3.42628 7.98603 3.29242 7.30209 3.294C6.344 3.29495 5.40479 3.56058 4.58813 4.06156C3.77146 4.56255 3.10908 5.27943 2.67408 6.13307C2.23909 6.98672 2.04839 7.94395 2.12303 8.89913C2.19768 9.85431 2.53476 10.7703 3.09709 11.546C3.1071 11.5598 3.1158 11.5746 3.12309 11.59L6.76109 7.952C6.80361 7.90975 6.86113 7.88603 6.92109 7.88603C6.98104 7.88603 7.03856 7.90975 7.08109 7.952L12.1921 13.058L14.6671 10.583C14.7096 10.5407 14.7671 10.517 14.8271 10.517C14.887 10.517 14.9446 10.5407 14.9871 10.583L16.2391 11.835H18.1021C18.1627 11.835 18.2208 11.8591 18.2637 11.9019C18.3065 11.9448 18.3306 12.0029 18.3306 12.0635C18.3306 12.1241 18.3065 12.1822 18.2637 12.2251C18.2208 12.2679 18.1627 12.292 18.1021 12.292H16.1431C16.1131 12.2922 16.0833 12.2865 16.0555 12.2752C16.0277 12.2638 16.0024 12.2471 15.9811 12.226L14.8291 11.075L12.3541 13.55C12.3116 13.5923 12.254 13.616 12.1941 13.616C12.1341 13.616 12.0766 13.5923 12.0341 13.55L6.91909 8.438L3.12909 12.231C3.08623 12.2745 3.02813 12.2996 2.96709 12.301H0.329086C0.268484 12.301 0.210364 12.2769 0.167512 12.2341C0.12466 12.1912 0.100586 12.1331 0.100586 12.0725C0.100586 12.0119 0.12466 11.9538 0.167512 11.9109C0.210364 11.8681 0.268484 11.844 0.329086 11.844H2.19409C1.58791 10.9239 1.24226 9.85687 1.19383 8.75613C1.1454 7.65539 1.396 6.56208 1.91903 5.59233C2.44205 4.62259 3.21796 3.8126 4.16436 3.24841C5.11075 2.68422 6.19228 2.38689 7.29409 2.388C8.87379 2.38782 10.392 3.00046 11.5291 4.097C12.688 2.98113 14.2406 2.36782 15.8492 2.39041C17.4579 2.41299 18.9926 3.06964 20.1197 4.2176C21.2469 5.36556 21.8753 6.91204 21.8685 8.52084C21.8616 10.1296 21.22 11.6707 20.0831 12.809L12.8031 20.089C12.4698 20.4214 12.0183 20.608 11.5476 20.608C11.0769 20.608 10.6254 20.4214 10.2921 20.089L10.2701 20.067L3.59009 13.417C3.548 13.3749 3.51461 13.3249 3.49183 13.27C3.46905 13.215 3.45733 13.156 3.45733 13.0965C3.45733 13.037 3.46905 12.978 3.49183 12.923C3.51461 12.8681 3.548 12.8181 3.59009 12.776C3.63217 12.7339 3.68214 12.7005 3.73713 12.6777C3.79212 12.655 3.85106 12.6432 3.91059 12.6432C3.97011 12.6432 4.02905 12.655 4.08404 12.6777C4.13903 12.7005 4.189 12.7339 4.23109 12.776L10.9141 19.43L10.9211 19.437L10.9361 19.452C10.9031 19.415 10.9211 19.437 10.9361 19.452C11.0162 19.5326 11.1115 19.5966 11.2164 19.6403C11.3214 19.684 11.4339 19.7065 11.5476 19.7065C11.6613 19.7065 11.7738 19.684 11.8788 19.6403C11.9837 19.5966 12.079 19.5326 12.1591 19.452L19.4391 12.172C20.3619 11.187 20.8655 9.8817 20.8435 8.53211C20.8215 7.18252 20.2756 5.89437 19.3211 4.93994C18.3667 3.98552 17.0786 3.4396 15.729 3.41759C14.3794 3.39558 13.0741 3.8992 12.0891 4.822C12.0341 4.877 11.9971 4.914 11.9751 4.94C11.9311 4.988 11.8941 5.025 11.8681 5.058C11.8611 5.065 11.8571 5.073 11.8501 5.076L11.8711 5.072Z" fill="#001A34"/>
</g>
</svg>
