<svg width="22" height="23" viewBox="0 0 22 23" fill="none" xmlns="http://www.w3.org/2000/svg">
<g id="id_48" clip-path="url(#clip0_1341_19266)">
<g id="Group">
<path id="Vector" d="M14.8245 8.14926C14.6891 8.08157 14.5538 8.04772 14.4184 8.11541L13.7753 8.38618C12.7938 8.79234 11.7445 9.02926 10.6953 9.09695C10.6953 8.6908 10.7291 8.28464 10.7968 7.87849C11.1691 7.91234 11.5414 7.94618 11.9476 7.94618C12.4553 7.94618 12.963 7.91234 13.4707 7.84464L14.6553 7.67541C14.8584 7.64157 15.0276 7.47234 15.0276 7.26926L15.6368 1.88772C15.6707 1.75234 15.603 1.61695 15.5014 1.51541C15.3999 1.41387 15.2645 1.38003 15.0953 1.41387L14.4184 1.54926C12.3538 1.92157 10.2553 1.68464 8.32606 0.83849L7.68299 0.567721C7.5476 0.500029 7.41222 0.533875 7.27683 0.601567C7.14145 0.669259 7.07376 0.804644 7.03991 0.940028L6.43068 6.35541C6.39683 6.55849 6.53222 6.76157 6.70145 6.82926L7.81837 7.23541C8.63068 7.54003 9.47683 7.7431 10.323 7.87849C10.2891 8.28464 10.2553 8.72464 10.2214 9.16464C9.3753 9.19849 8.4953 9.1308 7.64914 8.92772L6.97222 8.79234C6.83683 8.75849 6.70145 8.79234 6.56606 8.89387C6.46453 8.99541 6.39683 9.1308 6.43068 9.26618L6.90453 14.6816C6.93837 14.8846 7.07376 15.0539 7.27683 15.0877L8.46145 15.2908C9.07068 15.3923 9.71376 15.46 10.323 15.46C10.6276 15.46 10.8984 15.46 11.203 15.4262C11.2368 15.6969 11.2707 16.0016 11.2707 16.2723C10.1538 16.3062 9.03683 16.1369 7.95376 15.8323L7.27683 15.6293C7.14145 15.5954 7.00606 15.5954 6.87068 15.697C6.76914 15.7985 6.70145 15.9 6.70145 16.0693V21.5185C6.70145 21.7216 6.83683 21.8908 7.03991 21.9585L8.19068 22.2631C9.10453 22.5 10.0522 22.6016 11.0338 22.6016C12.0153 22.6016 12.9291 22.4662 13.8768 22.2631L15.0276 21.9585C15.2307 21.8908 15.3661 21.7216 15.3661 21.5185V15.9677C15.3661 15.8323 15.2984 15.6969 15.1968 15.5954C15.0953 15.4939 14.9261 15.4939 14.7907 15.5277L14.1138 15.7308C13.3353 15.9677 12.5568 16.1031 11.7784 16.1708C11.7445 15.8662 11.7445 15.5954 11.6768 15.2908C12.523 15.1893 13.3353 15.02 14.1138 14.7493L15.2307 14.3431C15.4338 14.2754 15.5353 14.0723 15.5353 13.8693L15.0614 8.45387C15.0276 8.35234 14.9599 8.21695 14.8245 8.14926ZM14.3168 16.6108L14.4184 16.577V21.0446L13.6061 21.2477C11.9138 21.6877 10.0861 21.6877 8.39376 21.2477L7.58145 21.0446V16.577L7.68299 16.6108C8.8676 16.9831 10.0522 17.1185 11.2707 17.1185C11.2368 17.9646 11.0338 18.777 10.5599 19.4539C10.4922 19.5554 10.5261 19.6908 10.6276 19.7585C10.6614 19.7923 10.6953 19.7923 10.763 19.7923C10.8307 19.7923 10.8984 19.7585 10.9322 19.6908C11.4399 18.9123 11.6768 18.0323 11.7107 17.0846C12.5907 17.0508 13.4707 16.8816 14.3168 16.6108ZM8.15683 6.35541L7.37837 6.0508L7.88606 1.61695L7.9876 1.6508C10.0522 2.5308 12.3538 2.80157 14.5876 2.39541L14.6891 2.36157L14.1814 6.79541L13.3353 6.9308C12.523 7.03234 11.7107 7.06618 10.8984 6.96464C11.0676 5.91541 11.2368 5.1708 11.2707 5.13695C11.3045 5.00157 11.2368 4.90003 11.1014 4.86618C10.9661 4.83234 10.8645 4.90003 10.8307 5.03541C10.7968 5.10311 10.6276 5.84772 10.4584 6.89695C9.67991 6.82926 8.90145 6.62618 8.15683 6.35541ZM8.59683 14.3431L7.78453 14.2077L7.41222 9.74003L7.51376 9.77387C8.4276 9.97695 9.34145 10.0446 10.2891 10.0108C10.323 10.4508 10.3568 10.857 10.4245 11.2631C10.5261 11.737 10.6276 12.2108 10.7291 12.7523C10.8645 13.2939 10.9661 13.8693 11.1014 14.4446C10.2214 14.5123 9.40914 14.4785 8.59683 14.3431ZM13.7753 13.9031C13.0307 14.1739 12.2522 14.3431 11.4738 14.4108C11.3722 13.8016 11.2368 13.2262 11.1014 12.6508C10.9999 12.1431 10.8645 11.6693 10.7968 11.1954C10.7291 10.8231 10.6953 10.3831 10.6614 9.97695C11.8122 9.90926 12.963 9.63849 14.0799 9.19849L14.1814 9.16464L14.5538 13.6323L13.7753 13.9031Z" fill="black"/>
</g>
<g id="Group_2">
<g id="Group_3">
<path id="Vector_2" d="M4.7382 9.94308C4.70435 9.94308 4.67051 9.94308 4.63666 9.90924L1.75974 8.42001C1.6582 8.35231 1.62435 8.21693 1.6582 8.11539C1.72589 8.01385 1.86128 7.98001 1.96282 8.01385L4.83974 9.50308C4.94128 9.57077 4.97512 9.70616 4.94128 9.8077C4.90743 9.90924 4.80589 9.94308 4.7382 9.94308Z" fill="black"/>
</g>
<g id="Group_4">
<path id="Vector_3" d="M1.75973 15.46C1.65819 15.46 1.5905 15.3923 1.55666 15.2908C1.52281 15.1892 1.5905 15.0539 1.69204 15.02L4.77204 14.0385C4.87358 14.0046 5.00896 14.0723 5.04281 14.1739C5.07666 14.2754 5.00896 14.4108 4.90743 14.4446L1.82743 15.4262C1.82743 15.46 1.79358 15.46 1.75973 15.46Z" fill="black"/>
</g>
<g id="Group_5">
<path id="Vector_4" d="M4.73787 12.2108H1.86095C1.72556 12.2108 1.62402 12.1092 1.62402 11.9739C1.62402 11.8385 1.72556 11.7369 1.86095 11.7369H4.73787C4.87325 11.7369 4.97479 11.8385 4.97479 11.9739C4.97479 12.1092 4.87325 12.2108 4.73787 12.2108Z" fill="black"/>
</g>
<g id="Group_6">
<path id="Vector_5" d="M20.1386 15.46C20.1047 15.46 20.0709 15.46 20.0371 15.4261L17.1601 13.9369C17.0586 13.8692 17.0247 13.7338 17.0586 13.6323C17.1263 13.5308 17.2617 13.4969 17.3632 13.5308L20.2401 15.02C20.3417 15.0877 20.3755 15.2231 20.3417 15.3246C20.274 15.4261 20.2063 15.46 20.1386 15.46Z" fill="black"/>
</g>
<g id="Group_7">
<path id="Vector_6" d="M17.1601 9.43541C17.0586 9.43541 16.9909 9.36772 16.957 9.26618C16.9232 9.16464 16.9909 9.02925 17.0924 8.99541L20.1724 8.01387C20.274 7.98002 20.4094 8.04772 20.4432 8.14925C20.477 8.25079 20.4094 8.38618 20.3078 8.42002L17.2278 9.40156C17.194 9.43541 17.1601 9.43541 17.1601 9.43541Z" fill="black"/>
</g>
<g id="Group_8">
<path id="Vector_7" d="M20.1383 11.7031H17.2613C17.126 11.7031 17.0244 11.6016 17.0244 11.4662C17.0244 11.3308 17.126 11.2292 17.2613 11.2292H20.1383C20.2736 11.2292 20.3752 11.3308 20.3752 11.4662C20.3413 11.6016 20.2398 11.7031 20.1383 11.7031Z" fill="black"/>
</g>
</g>
</g>
<defs>
<clipPath id="clip0_1341_19266">
<rect width="22" height="22" fill="white" transform="translate(0 0.5)"/>
</clipPath>
</defs>
</svg>
