<svg width="22" height="23" viewBox="0 0 22 23" fill="none" xmlns="http://www.w3.org/2000/svg">
<g id="id_46" clip-path="url(#clip0_1341_19248)">
<g id="g2970">
<g id="path2990">
<path id="Vector" d="M20.6232 5.19335H14.937V3.47849C14.937 2.75644 14.3504 2.16977 13.6283 2.16977H8.39343C7.67138 2.16977 7.08471 2.75644 7.08471 3.47849V5.19335H1.39856C0.67651 5.19335 0.0898438 5.78002 0.0898438 6.50207V19.5441C0.0898438 20.2662 0.67651 20.8528 1.39856 20.8528H20.6232C21.3452 20.8528 21.9319 20.2662 21.9319 19.5441V6.50207C21.9319 5.78002 21.3452 5.19335 20.6232 5.19335ZM7.98728 3.43336C7.98728 3.20771 8.16779 3.0272 8.39343 3.0272H13.6283C13.8539 3.0272 14.0345 3.20771 14.0345 3.43336V5.14822H7.98728V3.43336ZM0.94728 6.50207C0.94728 6.27643 1.12779 6.09592 1.35343 6.09592H3.29395C3.11343 7.31438 2.16574 8.26208 0.94728 8.44259V6.50207ZM1.39856 19.9503C1.17292 19.9503 0.992408 19.7698 0.992408 19.5441V17.6036C2.21087 17.7841 3.15856 18.7318 3.33907 19.9503H1.39856ZM21.0293 19.5441C21.0293 19.7698 20.8488 19.9503 20.6232 19.9503H18.6827C18.8632 18.7318 19.8109 17.7841 21.0293 17.6036V19.5441ZM21.0293 17.1975C19.5852 17.378 18.457 18.5513 18.2314 19.9954H3.74523C3.56472 18.5513 2.39138 17.4231 0.94728 17.1975V8.89387C2.39138 8.71336 3.51959 7.54002 3.74523 6.09592H18.2314C18.4119 7.54002 19.5852 8.66823 21.0293 8.89387V17.1975ZM21.0293 8.39746C19.8109 8.21694 18.8632 7.26925 18.6827 6.05079H20.6232C20.8488 6.05079 21.0293 6.23131 21.0293 6.45695V8.39746Z" fill="black"/>
</g>
<g id="Group">
<path id="Vector_2" d="M13.4934 13.5421C13.4934 13.7677 13.2678 13.9933 13.0421 13.9933H11.4626V15.5728C11.4626 15.7985 11.237 16.0241 11.0113 16.0241C10.7857 16.0241 10.5601 15.7985 10.5601 15.5728V13.9933H8.98058C8.75494 13.9933 8.5293 13.7677 8.5293 13.5421C8.5293 13.3164 8.75494 13.0908 8.98058 13.0908H10.5601V11.4662C10.5601 11.2405 10.7857 11.0149 11.0113 11.0149C11.237 11.0149 11.4626 11.2405 11.4626 11.4662V13.0908H13.0421C13.3129 13.0908 13.4934 13.3164 13.4934 13.5421Z" fill="black"/>
</g>
</g>
</g>
<defs>
<clipPath id="clip0_1341_19248">
<rect width="22" height="22" fill="white" transform="translate(0 0.5)"/>
</clipPath>
</defs>
</svg>
