<svg width="22" height="23" viewBox="0 0 22 23" fill="none" xmlns="http://www.w3.org/2000/svg">
<g id="id_44" clip-path="url(#clip0_1341_19231)">
<g id="Group">
<g id="Group_2">
<path id="Vector" d="M17.4984 22.5C17.2615 22.5 17.0584 22.2969 17.0584 22.06V19.8939C17.0584 18.9123 16.6184 17.8631 15.9415 17.1523C15.0277 16.3739 14.1138 16.0016 13.2 16.0016H8.83383C7.85229 16.0016 6.80306 16.4416 6.09229 17.1185C5.31383 18.0323 4.94152 18.9462 4.94152 19.86V22.0262C4.94152 22.2631 4.73845 22.4662 4.50152 22.4662C4.2646 22.4662 4.06152 22.2969 4.06152 22.06V19.8939C4.06152 18.7431 4.53537 17.6262 5.44922 16.5431C5.44922 16.5431 5.44922 16.5092 5.48306 16.5092C6.36306 15.6292 7.61537 15.0877 8.86768 15.0877H13.2C14.3508 15.0877 15.4677 15.5616 16.5508 16.4754C16.5508 16.4754 16.5846 16.4754 16.5846 16.5092C17.4646 17.3892 18.0061 18.6416 18.0061 19.8939V22.06C17.9384 22.2969 17.7354 22.5 17.4984 22.5Z" fill="black"/>
</g>
<g id="Group_3">
<path id="Vector_2" d="M15.4672 7.1V7.06615L15.7041 1.07538C15.7041 0.94 15.6703 0.770769 15.5687 0.669231C15.4672 0.567692 15.3318 0.5 15.1964 0.5H6.80259C6.66721 0.5 6.49797 0.567692 6.39644 0.669231C6.2949 0.770769 6.22721 0.94 6.26105 1.07538L6.49798 6.89692C6.46413 6.93077 6.46413 6.96462 6.46413 6.99846C6.32874 7.54 6.19336 8.08154 6.19336 8.62308C6.19336 11.2969 8.29182 13.3954 10.9657 13.3954C13.6395 13.3954 15.738 11.2969 15.738 8.62308C15.7718 8.11538 15.6703 7.60769 15.4672 7.1ZM14.8241 1.41385L14.5872 6.62615H7.41182L7.1749 1.41385H14.8241ZM10.9995 12.4815C8.83336 12.4815 7.10721 10.7892 7.10721 8.58923C7.10721 8.25077 7.1749 7.87846 7.27644 7.50615H14.6549C14.7903 7.87846 14.8918 8.21692 14.8918 8.58923C14.8918 10.7892 13.1657 12.4815 10.9995 12.4815Z" fill="black"/>
<path id="Vector_3" d="M12.4885 4.05384C12.4885 4.18922 12.387 4.29076 12.2516 4.29076H11.2024V5.47537C11.2024 5.61076 11.1008 5.7123 10.9655 5.7123C10.8301 5.7123 10.7285 5.61076 10.7285 5.47537V4.29076H9.67931C9.54392 4.29076 9.44238 4.18922 9.44238 4.05384C9.44238 3.91845 9.54392 3.81691 9.67931 3.81691H10.7285V2.80153C10.7285 2.66614 10.8301 2.56461 10.9655 2.56461C11.1008 2.56461 11.2024 2.66614 11.2024 2.80153V3.85076H12.2516C12.387 3.85076 12.4885 3.9523 12.4885 4.05384Z" fill="black"/>
</g>
</g>
</g>
<defs>
<clipPath id="clip0_1341_19231">
<rect width="22" height="22" fill="white" transform="translate(0 0.5)"/>
</clipPath>
</defs>
</svg>
