<svg width="22" height="23" viewBox="0 0 22 23" fill="none" xmlns="http://www.w3.org/2000/svg">
<g id="Layer_1_copy">
<g id="path3606_00000103264071688423219070000010203722254749581196_">
<path id="Vector" d="M15.6705 13.2938C15.1966 13.2938 14.7566 13.1246 14.452 12.7861L12.6582 10.9923C12.4889 10.823 12.4889 10.5184 12.6582 10.3492C12.8274 10.18 13.132 10.18 13.3012 10.3492L15.0951 12.143C15.3997 12.4477 15.9751 12.4477 16.2797 12.143C16.4489 11.9738 16.5166 11.7707 16.5166 11.5338C16.5166 11.2969 16.4151 11.0938 16.2797 10.9246L13.3351 7.97996C13.1659 7.81073 13.1659 7.50611 13.3351 7.33688C13.5043 7.16765 13.8089 7.16765 13.9782 7.33688L16.9228 10.2815C17.5997 10.9584 17.5997 12.0753 16.9228 12.7523C16.5843 13.0907 16.1443 13.2938 15.6705 13.2938Z" fill="black"/>
</g>
<g id="path3610_00000136369611592863710320000002596355140863510188_">
<path id="Vector_2" d="M11.0678 5.5431C9.74778 5.5431 8.63086 4.46002 8.63086 3.10617C8.63086 1.75233 9.71394 0.66925 11.0678 0.66925C12.4216 0.66925 13.5047 1.75233 13.5047 3.10617C13.5047 4.46002 12.3878 5.5431 11.0678 5.5431ZM11.0678 1.61694C10.2216 1.61694 9.54471 2.29387 9.54471 3.14002C9.54471 3.98617 10.2216 4.6631 11.0678 4.6631C11.9139 4.6631 12.5909 3.98617 12.5909 3.14002C12.5909 2.29387 11.9139 1.61694 11.0678 1.61694Z" fill="black"/>
</g>
<g id="path3614_00000035521249905505533710000017515475519456688280_">
<path id="Vector_3" d="M11.0675 22.2969H8.05523C7.81831 22.2969 7.61523 22.0938 7.61523 21.8569V15.3923C7.61523 15.1553 7.81831 14.9523 8.05523 14.9523H11.9137C12.0491 14.9523 12.1506 15.02 12.2522 15.1215C12.3537 15.223 12.3875 15.3584 12.3537 15.46L11.5075 21.8907C11.4737 22.1277 11.2706 22.2969 11.0675 22.2969ZM8.49523 21.383H10.6614L11.406 15.8323H8.49523V21.383Z" fill="black"/>
</g>
<g id="Group">
<path id="Vector_4" d="M1.75972 22.4323C1.62433 22.4323 1.55664 22.3308 1.55664 22.1954V14.5462C1.55664 13.6323 2.30126 12.8877 3.2151 12.8877H6.76895C6.90433 12.8877 6.97203 12.9892 6.97203 13.1246C6.97203 13.26 6.87049 13.3615 6.76895 13.3615H3.18126C2.50433 13.3615 1.96279 13.9031 1.96279 14.58V22.2292C1.96279 22.3308 1.86126 22.4323 1.75972 22.4323Z" fill="black"/>
</g>
<g id="Group_2">
<path id="Vector_5" d="M20.24 22.4323C20.1046 22.4323 20.003 22.3307 20.003 22.1954V14.5461C20.003 13.8692 19.4615 13.3277 18.7846 13.3277H12.4215C12.2861 13.3277 12.1846 13.2261 12.1846 13.0907C12.1846 12.9554 12.2861 12.8538 12.4215 12.8538H18.8184C19.7323 12.8538 20.4769 13.5984 20.4769 14.5123V22.1615C20.4769 22.3307 20.3753 22.4323 20.24 22.4323Z" fill="black"/>
</g>
<g id="path3638_00000038400152908720395320000016118256954754661519_">
<path id="Vector_6" d="M11.9137 15.8661H6.7691C6.53218 15.8661 6.3291 15.6631 6.3291 15.4261V9.36767C6.36295 6.79536 8.49526 4.6969 11.0676 4.6969C11.2029 4.6969 11.3045 4.73075 11.3722 4.83228L13.9445 7.40459C14.1137 7.57382 14.1137 7.87844 13.9445 8.04767C13.7753 8.2169 13.4706 8.2169 13.3014 8.04767L10.8645 5.61075C8.86756 5.71228 7.24295 7.37075 7.2091 9.40151V15.02H11.5414L12.5229 10.62C12.5906 10.3831 12.8276 10.2138 13.0645 10.2815C13.3014 10.3492 13.4706 10.5861 13.4029 10.8231L12.3537 15.5615C12.3199 15.6969 12.1168 15.8661 11.9137 15.8661Z" fill="black"/>
</g>
<g id="Group_3">
<path id="Vector_7" d="M13.6399 11.2293C13.5722 11.2293 13.5384 11.1954 13.4707 11.1616L10.9322 8.55541C10.8307 8.45387 10.8646 8.31848 10.9322 8.25079C11.0338 8.14925 11.1692 8.1831 11.2369 8.25079L13.7753 10.8569C13.843 10.9585 13.843 11.0939 13.7753 11.1616C13.7753 11.2293 13.7076 11.2293 13.6399 11.2293Z" fill="black"/>
</g>
</g>
</svg>
